{"glyphs":{"0":{"ha":1000,"x_min":97,"x_max":903,"o":"m 903 954 l 903 128 l 774 -1 l 226 0 l 97 129 l 97 956 l 226 1085 l 774 1083 l 903 954 m 257 56 l 354 56 l 354 1029 l 257 1029 l 160 932 l 160 153 l 257 56 m 417 1029 l 417 56 l 583 54 l 583 1028 l 417 1029 m 840 931 l 743 1028 l 646 1028 l 646 54 l 743 54 l 840 151 l 840 931 z "},"1":{"ha":701,"x_min":28,"x_max":681,"o":"m 681 56 l 681 0 l 76 0 l 76 56 l 229 56 l 229 1028 l 71 869 l 28 913 l 199 1083 l 549 1083 l 549 56 l 681 56 m 292 56 l 486 56 l 486 1028 l 292 1028 l 292 56 z "},"2":{"ha":924,"x_min":69,"x_max":854,"o":"m 389 56 l 535 56 l 535 306 l 597 306 l 825 306 l 854 306 l 854 74 l 781 0 l 69 0 l 69 482 l 157 569 l 535 569 l 535 1028 l 389 1028 l 389 778 l 326 778 l 99 778 l 69 778 l 69 954 l 199 1083 l 725 1083 l 854 954 l 854 629 l 739 514 l 389 514 l 389 56 m 326 1028 l 229 1028 l 132 931 l 132 833 l 326 833 l 326 1028 m 597 569 l 708 569 l 792 653 l 792 931 l 694 1028 l 597 1028 l 597 569 m 132 56 l 326 56 l 326 514 l 188 514 l 132 458 l 132 56 m 597 56 l 750 56 l 792 97 l 792 250 l 597 250 l 597 56 z "},"3":{"ha":896,"x_min":56,"x_max":813,"o":"m 813 656 l 713 556 l 813 454 l 813 129 l 683 0 l 171 0 l 56 115 l 56 306 l 118 306 l 335 306 l 361 306 l 361 56 l 493 56 l 493 528 l 229 528 l 229 583 l 493 583 l 493 1028 l 361 1028 l 361 778 l 299 778 l 85 778 l 56 778 l 56 968 l 171 1083 l 683 1083 l 813 954 l 813 656 m 299 1028 l 201 1028 l 118 944 l 118 833 l 299 833 l 299 1028 m 750 931 l 653 1028 l 556 1028 l 556 583 l 653 583 l 750 679 l 750 931 m 750 431 l 653 528 l 556 528 l 556 56 l 653 56 l 750 153 l 750 431 m 201 56 l 299 56 l 299 250 l 118 250 l 118 139 l 201 56 z "},"4":{"ha":1007,"x_min":28,"x_max":979,"o":"m 979 56 l 979 0 l 431 0 l 431 56 l 569 56 l 569 236 l 28 236 l 28 389 l 397 1083 l 467 1083 l 672 1083 l 672 906 l 346 292 l 569 292 l 569 464 l 640 597 l 882 597 l 882 542 l 882 56 l 979 56 m 276 292 l 610 919 l 610 1028 l 438 1028 l 90 375 l 90 292 l 276 292 m 632 56 l 819 56 l 819 542 l 681 542 l 632 450 l 632 56 z "},"5":{"ha":924,"x_min":56,"x_max":868,"o":"m 868 496 l 868 129 l 739 0 l 143 0 l 56 88 l 56 306 l 118 306 l 349 306 l 375 306 l 375 56 l 549 56 l 549 569 l 143 569 l 56 657 l 56 1083 l 840 1083 l 840 1028 l 375 1028 l 375 625 l 753 625 l 868 496 m 174 625 l 313 625 l 313 1028 l 118 1028 l 118 681 l 174 625 m 806 472 l 708 569 l 611 569 l 611 56 l 708 56 l 806 153 l 806 472 m 174 56 l 313 56 l 313 250 l 118 250 l 118 111 l 174 56 z "},"6":{"ha":1000,"x_min":97,"x_max":931,"o":"m 931 482 l 931 129 l 801 0 l 226 0 l 97 129 l 97 954 l 226 1083 l 788 1083 l 917 954 l 917 778 l 597 778 l 597 1028 l 417 1028 l 417 611 l 801 611 l 931 482 m 257 56 l 354 56 l 354 1028 l 257 1028 l 160 931 l 160 153 l 257 56 m 757 1028 l 660 1028 l 660 833 l 854 833 l 854 931 l 757 1028 m 417 556 l 417 56 l 611 56 l 611 556 l 417 556 m 868 458 l 771 556 l 674 556 l 674 56 l 771 56 l 868 153 l 868 458 z "},"7":{"ha":1010,"x_min":97,"x_max":996,"o":"m 996 951 l 656 338 l 656 0 l 593 0 l 363 0 l 336 0 l 336 410 l 679 1028 l 403 1028 l 403 778 l 97 778 l 97 1083 l 893 1083 l 996 951 m 340 1028 l 160 1028 l 160 833 l 340 833 l 340 1028 m 925 943 l 858 1028 l 746 1028 l 399 403 l 399 56 l 593 56 l 593 346 l 925 943 z "},"8":{"ha":951,"x_min":83,"x_max":868,"o":"m 868 656 l 768 556 l 868 454 l 868 129 l 739 0 l 199 0 l 83 115 l 83 454 l 185 556 l 83 656 l 83 968 l 199 1083 l 739 1083 l 868 954 l 868 656 m 146 679 l 243 583 l 340 583 l 340 1028 l 229 1028 l 146 944 l 146 679 m 549 1028 l 403 1028 l 403 583 l 549 583 l 549 1028 m 806 931 l 708 1028 l 611 1028 l 611 583 l 708 583 l 806 679 l 806 931 m 229 56 l 340 56 l 340 528 l 243 528 l 146 431 l 146 139 l 229 56 m 549 528 l 403 528 l 403 56 l 549 56 l 549 528 m 806 431 l 708 528 l 611 528 l 611 56 l 708 56 l 806 153 l 806 431 z "},"9":{"ha":986,"x_min":69,"x_max":903,"o":"m 903 954 l 903 129 l 774 0 l 213 0 l 83 129 l 83 306 l 403 306 l 403 56 l 583 56 l 583 472 l 199 472 l 69 601 l 69 954 l 199 1083 l 774 1083 l 903 954 m 229 528 l 326 528 l 326 1028 l 229 1028 l 132 931 l 132 625 l 229 528 m 583 528 l 583 1028 l 389 1028 l 389 528 l 583 528 m 840 931 l 743 1028 l 646 1028 l 646 56 l 743 56 l 840 153 l 840 931 m 243 56 l 340 56 l 340 250 l 146 250 l 146 153 l 243 56 z "}," ":{"ha":361,"x_min":0,"x_max":0,"o":""},"અ":{"ha":1488,"x_min":69,"x_max":1501,"o":"m 1501 56 l 1501 0 l 1200 0 l 1071 129 l 1071 472 l 911 472 l 911 240 l 782 111 l 282 111 l 167 226 l 167 472 l 69 472 l 69 528 l 417 528 l 417 889 l 299 889 l 201 792 l 158 835 l 268 944 l 614 944 l 729 829 l 729 588 l 614 472 l 479 472 l 479 167 l 751 167 l 849 264 l 849 694 l 911 694 l 911 528 l 1071 528 l 1071 889 l 960 889 l 960 944 l 1261 944 l 1390 815 l 1390 56 l 1501 56 m 479 889 l 479 528 l 583 528 l 667 611 l 667 806 l 583 889 l 479 889 m 1231 56 l 1328 56 l 1328 792 l 1231 889 l 1133 889 l 1133 153 l 1231 56 m 313 167 l 417 167 l 417 472 l 229 472 l 229 250 l 313 167 z "},"આ":{"ha":2001,"x_min":69,"x_max":2015,"o":"m 1501 56 l 1501 0 l 1200 0 l 1071 129 l 1071 472 l 911 472 l 911 240 l 782 111 l 282 111 l 167 226 l 167 472 l 69 472 l 69 528 l 417 528 l 417 889 l 299 889 l 201 792 l 158 835 l 268 944 l 614 944 l 729 829 l 729 588 l 614 472 l 479 472 l 479 167 l 751 167 l 849 264 l 849 694 l 911 694 l 911 528 l 1071 528 l 1071 889 l 960 889 l 960 944 l 1261 944 l 1390 815 l 1390 56 l 1501 56 m 479 889 l 479 528 l 583 528 l 667 611 l 667 806 l 583 889 l 479 889 m 1231 56 l 1328 56 l 1328 792 l 1231 889 l 1133 889 l 1133 153 l 1231 56 m 313 167 l 417 167 l 417 472 l 229 472 l 229 250 l 313 167 m 2015 56 l 2015 0 l 1714 0 l 1585 129 l 1585 889 l 1474 889 l 1474 944 l 1775 944 l 1904 815 l 1904 56 l 2015 56 m 1744 56 l 1842 56 l 1842 792 l 1744 889 l 1647 889 l 1647 153 l 1744 56 z "},"ઇ":{"ha":943,"x_min":83,"x_max":915,"o":"m 915 1018 l 804 907 l 804 129 l 675 0 l 213 0 l 83 129 l 83 378 l 185 479 l 83 581 l 83 815 l 213 944 l 531 944 l 640 835 l 597 792 l 500 889 l 403 889 l 403 507 l 569 507 l 569 451 l 403 451 l 403 56 l 644 56 l 742 153 l 742 931 l 872 1061 l 915 1018 m 146 604 l 244 507 l 340 507 l 340 889 l 243 889 l 146 792 l 146 604 m 243 56 l 340 56 l 340 451 l 243 451 l 146 354 l 146 153 l 243 56 z "},"ઈ":{"ha":999,"x_min":83,"x_max":999,"o":"m 999 1069 l 999 1014 l 888 1014 l 804 931 l 804 129 l 675 0 l 213 0 l 83 129 l 83 378 l 185 479 l 83 581 l 83 815 l 213 944 l 531 944 l 640 835 l 597 792 l 500 889 l 403 889 l 403 507 l 569 507 l 569 451 l 403 451 l 403 56 l 644 56 l 742 153 l 742 954 l 857 1069 l 999 1069 m 146 604 l 244 507 l 340 507 l 340 889 l 243 889 l 146 792 l 146 604 m 243 56 l 340 56 l 340 451 l 243 451 l 146 354 l 146 153 l 243 56 z "},"ઉ":{"ha":931,"x_min":97,"x_max":914,"o":"m 160 928 l 160 153 l 257 56 l 526 56 l 526 451 l 360 451 l 360 507 l 526 507 l 526 889 l 429 889 l 332 792 l 289 835 l 399 944 l 717 944 l 846 815 l 846 579 l 746 479 l 846 378 l 846 129 l 717 0 l 226 0 l 97 129 l 97 951 l 268 1122 l 790 1122 l 914 999 l 871 956 l 760 1067 l 299 1067 l 160 928 m 589 889 l 589 507 l 686 507 l 783 603 l 783 792 l 686 889 l 589 889 m 589 56 l 686 56 l 783 153 l 783 354 l 686 451 l 589 451 l 589 56 z "},"ઊ":{"ha":1382,"x_min":97,"x_max":1396,"o":"m 1396 56 l 1396 0 l 1094 0 l 965 129 l 965 1088 l 299 1088 l 160 949 l 160 153 l 257 56 l 513 56 l 513 451 l 346 451 l 346 507 l 513 507 l 513 889 l 415 889 l 318 792 l 275 835 l 385 944 l 703 944 l 832 815 l 832 579 l 731 478 l 832 376 l 832 129 l 703 0 l 226 0 l 97 129 l 97 972 l 268 1143 l 1054 1143 l 1114 1143 l 1285 972 l 1285 56 l 1396 56 m 1125 56 l 1222 56 l 1222 949 l 1083 1088 l 1028 1088 l 1028 153 l 1125 56 m 575 889 l 575 507 l 672 507 l 769 603 l 769 792 l 672 889 l 575 889 m 575 56 l 672 56 l 769 153 l 769 354 l 672 451 l 575 451 l 575 56 z "},"ઋ":{"ha":1682,"x_min":14,"x_max":1626,"o":"m 1626 732 l 1626 560 l 1539 472 l 1435 472 l 1435 171 l 1333 69 l 1046 69 l 1046 125 l 1143 125 l 1143 472 l 956 472 l 956 25 l 956 0 l 765 0 l 636 129 l 636 308 l 400 56 l 317 56 l 58 56 l 14 56 l 492 568 l 218 833 l 74 833 l 74 889 l 231 889 l 247 889 l 636 513 l 636 889 l 525 889 l 525 944 l 826 944 l 956 815 l 956 528 l 1143 528 l 1143 718 l 1244 819 l 1539 819 l 1626 732 m 893 56 l 893 792 l 796 889 l 699 889 l 699 375 l 699 153 l 796 56 l 893 56 m 1372 194 l 1372 764 l 1275 764 l 1206 694 l 1206 125 l 1303 125 l 1372 194 m 1564 708 l 1508 764 l 1435 764 l 1435 528 l 1508 528 l 1564 583 l 1564 708 m 636 396 l 636 429 l 536 526 l 149 111 l 369 111 l 636 396 z "},"ૠ":{"ha":1649,"x_min":14,"x_max":1579,"o":"m 1579 357 l 1579 88 l 1492 0 l 1143 0 l 1042 101 l 1085 144 l 1174 56 l 1315 56 l 1315 389 l 1088 389 l 1088 556 l 956 556 l 956 25 l 956 0 l 765 0 l 636 129 l 636 308 l 400 56 l 317 56 l 58 56 l 14 56 l 492 568 l 218 833 l 74 833 l 74 889 l 231 889 l 247 889 l 636 513 l 636 889 l 525 889 l 525 944 l 826 944 l 956 815 l 956 611 l 1088 611 l 1088 829 l 1175 917 l 1464 917 l 1551 829 l 1551 643 l 1464 556 l 1150 556 l 1150 444 l 1492 444 l 1579 357 m 893 56 l 893 792 l 796 889 l 699 889 l 699 375 l 699 153 l 796 56 l 893 56 m 1150 611 l 1288 611 l 1288 861 l 1206 861 l 1150 806 l 1150 611 m 1433 861 l 1350 861 l 1350 611 l 1433 611 l 1489 667 l 1489 806 l 1433 861 m 636 396 l 636 429 l 536 526 l 149 111 l 369 111 l 636 396 m 1517 333 l 1461 389 l 1378 389 l 1378 56 l 1461 56 l 1517 111 l 1517 333 z "},"ઌ":{"ha":1174,"x_min":97,"x_max":1188,"o":"m 654 138 l 544 28 l 226 28 l 97 157 l 97 815 l 226 944 l 528 944 l 528 889 l 417 889 l 417 83 l 514 83 l 611 181 l 654 138 m 947 -139 l 947 -461 l 1089 -461 l 1089 -517 l 756 -517 l 654 -415 l 654 -185 l 756 -83 l 1013 -83 l 1013 0 l 886 0 l 757 129 l 757 458 l 511 458 l 511 514 l 757 514 l 757 889 l 646 889 l 646 944 l 947 944 l 1076 815 l 1076 56 l 1188 56 l 1188 0 l 1075 0 l 1075 -122 l 1075 -139 l 947 -139 m 257 83 l 354 83 l 354 889 l 257 889 l 160 792 l 160 181 l 257 83 m 917 56 l 1014 56 l 1014 792 l 917 889 l 819 889 l 819 153 l 917 56 m 885 -139 l 788 -139 l 718 -208 l 718 -392 l 788 -461 l 885 -461 l 885 -139 z "},"ૡ":{"ha":1174,"x_min":97,"x_max":1188,"o":"m 611 181 l 654 138 l 544 28 l 226 28 l 97 157 l 97 815 l 226 944 l 528 944 l 528 889 l 417 889 l 417 83 l 514 83 l 611 181 m 1188 0 l 1076 0 l 1076 -92 l 1003 -165 l 771 -165 l 729 -207 l 729 -262 l 771 -304 l 1017 -304 l 1017 -360 l 771 -360 l 729 -401 l 729 -457 l 771 -499 l 1058 -499 l 1058 -554 l 740 -554 l 667 -481 l 667 -378 l 713 -332 l 667 -286 l 667 -183 l 740 -110 l 972 -110 l 1014 -68 l 1014 0 l 886 0 l 757 129 l 757 458 l 511 458 l 511 514 l 757 514 l 757 889 l 646 889 l 646 944 l 947 944 l 1076 815 l 1076 56 l 1188 56 l 1188 0 m 257 83 l 354 83 l 354 889 l 257 889 l 160 792 l 160 181 l 257 83 m 917 56 l 1014 56 l 1014 792 l 917 889 l 819 889 l 819 153 l 917 56 z "},"એ":{"ha":1488,"x_min":69,"x_max":1501,"o":"m 1501 56 l 1501 0 l 1200 0 l 1071 129 l 1071 472 l 911 472 l 911 240 l 782 111 l 282 111 l 167 226 l 167 472 l 69 472 l 69 528 l 417 528 l 417 889 l 299 889 l 201 792 l 158 835 l 268 944 l 614 944 l 729 829 l 729 588 l 614 472 l 479 472 l 479 167 l 751 167 l 849 264 l 849 694 l 911 694 l 911 528 l 1071 528 l 1071 889 l 960 889 l 960 944 l 1261 944 l 1390 815 l 1390 56 l 1501 56 m 479 889 l 479 528 l 583 528 l 667 611 l 667 806 l 583 889 l 479 889 m 1231 56 l 1328 56 l 1328 792 l 1231 889 l 1133 889 l 1133 153 l 1231 56 m 313 167 l 417 167 l 417 472 l 229 472 l 229 250 l 313 167 m 838 1431 l 1032 1431 l 1336 1042 l 1261 1042 l 1001 1375 l 838 1375 l 838 1431 z "},"ઐ":{"ha":1488,"x_min":69,"x_max":1501,"o":"m 1501 56 l 1501 0 l 1200 0 l 1071 129 l 1071 472 l 911 472 l 911 240 l 782 111 l 282 111 l 167 226 l 167 472 l 69 472 l 69 528 l 417 528 l 417 889 l 299 889 l 201 792 l 158 835 l 268 944 l 614 944 l 729 829 l 729 588 l 614 472 l 479 472 l 479 167 l 751 167 l 849 264 l 849 694 l 911 694 l 911 528 l 1071 528 l 1071 889 l 960 889 l 960 944 l 1261 944 l 1390 815 l 1390 56 l 1501 56 m 479 889 l 479 528 l 583 528 l 667 611 l 667 806 l 583 889 l 479 889 m 1231 56 l 1328 56 l 1328 792 l 1231 889 l 1133 889 l 1133 153 l 1231 56 m 313 167 l 417 167 l 417 472 l 229 472 l 229 250 l 313 167 m 971 1431 l 1168 1431 l 1411 1042 l 1336 1042 l 1128 1375 l 971 1375 l 971 1431 m 825 1264 l 1007 1264 l 1181 1042 l 1106 1042 l 975 1208 l 825 1208 l 825 1264 z "},"ઓ":{"ha":2001,"x_min":69,"x_max":2015,"o":"m 1501 56 l 1501 0 l 1200 0 l 1071 129 l 1071 472 l 911 472 l 911 240 l 782 111 l 282 111 l 167 226 l 167 472 l 69 472 l 69 528 l 417 528 l 417 889 l 299 889 l 201 792 l 158 835 l 268 944 l 614 944 l 729 829 l 729 588 l 614 472 l 479 472 l 479 167 l 751 167 l 849 264 l 849 694 l 911 694 l 911 528 l 1071 528 l 1071 889 l 960 889 l 960 944 l 1261 944 l 1390 815 l 1390 56 l 1501 56 m 479 889 l 479 528 l 583 528 l 667 611 l 667 806 l 583 889 l 479 889 m 1231 56 l 1328 56 l 1328 792 l 1231 889 l 1133 889 l 1133 153 l 1231 56 m 313 167 l 417 167 l 417 472 l 229 472 l 229 250 l 313 167 m 2015 56 l 2015 0 l 1714 0 l 1585 129 l 1585 889 l 1474 889 l 1474 944 l 1775 944 l 1904 815 l 1904 56 l 2015 56 m 1744 56 l 1842 56 l 1842 792 l 1744 889 l 1647 889 l 1647 153 l 1744 56 m 1351 1431 l 1546 1431 l 1850 1042 l 1775 1042 l 1515 1375 l 1351 1375 l 1351 1431 z "},"ઔ":{"ha":2001,"x_min":69,"x_max":2015,"o":"m 1501 56 l 1501 0 l 1200 0 l 1071 129 l 1071 472 l 911 472 l 911 240 l 782 111 l 282 111 l 167 226 l 167 472 l 69 472 l 69 528 l 417 528 l 417 889 l 299 889 l 201 792 l 158 835 l 268 944 l 614 944 l 729 829 l 729 588 l 614 472 l 479 472 l 479 167 l 751 167 l 849 264 l 849 694 l 911 694 l 911 528 l 1071 528 l 1071 889 l 960 889 l 960 944 l 1261 944 l 1390 815 l 1390 56 l 1501 56 m 479 889 l 479 528 l 583 528 l 667 611 l 667 806 l 583 889 l 479 889 m 1231 56 l 1328 56 l 1328 792 l 1231 889 l 1133 889 l 1133 153 l 1231 56 m 313 167 l 417 167 l 417 472 l 229 472 l 229 250 l 313 167 m 2015 56 l 2015 0 l 1714 0 l 1585 129 l 1585 889 l 1474 889 l 1474 944 l 1775 944 l 1904 815 l 1904 56 l 2015 56 m 1744 56 l 1842 56 l 1842 792 l 1744 889 l 1647 889 l 1647 153 l 1744 56 m 1450 1431 l 1647 1431 l 1890 1042 l 1815 1042 l 1607 1375 l 1450 1375 l 1450 1431 m 1304 1264 l 1486 1264 l 1660 1042 l 1585 1042 l 1454 1208 l 1304 1208 l 1304 1264 z "},"ઍ":{"ha":1488,"x_min":69,"x_max":1501,"o":"m 1501 56 l 1501 0 l 1200 0 l 1071 129 l 1071 472 l 911 472 l 911 240 l 782 111 l 282 111 l 167 226 l 167 472 l 69 472 l 69 528 l 417 528 l 417 889 l 299 889 l 201 792 l 158 835 l 268 944 l 614 944 l 729 829 l 729 588 l 614 472 l 479 472 l 479 167 l 751 167 l 849 264 l 849 694 l 911 694 l 911 528 l 1071 528 l 1071 889 l 960 889 l 960 944 l 1261 944 l 1390 815 l 1390 56 l 1501 56 m 479 889 l 479 528 l 583 528 l 667 611 l 667 806 l 583 889 l 479 889 m 1231 56 l 1328 56 l 1328 792 l 1231 889 l 1133 889 l 1133 153 l 1231 56 m 313 167 l 417 167 l 417 472 l 229 472 l 229 250 l 313 167 m 1349 1042 l 1450 1143 l 1450 1264 l 1388 1264 l 1388 1167 l 1318 1097 l 985 1097 l 915 1167 l 915 1264 l 853 1264 l 853 1143 l 954 1042 l 1349 1042 z "},"ઑ":{"ha":2001,"x_min":69,"x_max":2015,"o":"m 1501 56 l 1501 0 l 1200 0 l 1071 129 l 1071 472 l 911 472 l 911 240 l 782 111 l 282 111 l 167 226 l 167 472 l 69 472 l 69 528 l 417 528 l 417 889 l 299 889 l 201 792 l 158 835 l 268 944 l 614 944 l 729 829 l 729 588 l 614 472 l 479 472 l 479 167 l 751 167 l 849 264 l 849 694 l 911 694 l 911 528 l 1071 528 l 1071 889 l 960 889 l 960 944 l 1261 944 l 1390 815 l 1390 56 l 1501 56 m 479 889 l 479 528 l 583 528 l 667 611 l 667 806 l 583 889 l 479 889 m 1231 56 l 1328 56 l 1328 792 l 1231 889 l 1133 889 l 1133 153 l 1231 56 m 313 167 l 417 167 l 417 472 l 229 472 l 229 250 l 313 167 m 2015 56 l 2015 0 l 1714 0 l 1585 129 l 1585 889 l 1474 889 l 1474 944 l 1775 944 l 1904 815 l 1904 56 l 2015 56 m 1744 56 l 1842 56 l 1842 792 l 1744 889 l 1647 889 l 1647 153 l 1744 56 m 1613 1042 l 1714 1143 l 1714 1264 l 1651 1264 l 1651 1167 l 1582 1097 l 1249 1097 l 1179 1167 l 1179 1264 l 1117 1264 l 1117 1143 l 1218 1042 l 1613 1042 z "},"ા":{"ha":514,"x_min":-14,"x_max":528,"o":"m 528 56 l 528 0 l 226 0 l 97 129 l 97 889 l -14 889 l -14 944 l 288 944 l 417 815 l 417 56 l 528 56 m 257 56 l 354 56 l 354 792 l 257 889 l 160 889 l 160 153 l 257 56 z "},"િ":{"ha":486,"x_min":97,"x_max":1314,"o":"m 1314 1228 l 1314 1061 l 1251 1061 l 1251 1204 l 1154 1301 l 417 1301 l 417 56 l 528 56 l 528 0 l 226 0 l 97 129 l 97 1200 l 254 1357 l 1185 1357 l 1314 1228 m 354 1301 l 285 1301 l 160 1176 l 160 153 l 257 56 l 354 56 l 354 1301 z "},"ી":{"ha":472,"x_min":-403,"x_max":486,"o":"m 486 56 l 486 0 l 185 0 l 56 129 l 56 1301 l -243 1301 l -340 1204 l -340 1061 l -403 1061 l -403 1228 l -274 1357 l 218 1357 l 375 1200 l 375 985 l 375 56 l 486 56 m 215 56 l 313 56 l 313 1061 l 313 1176 l 188 1301 l 118 1301 l 118 153 l 215 56 z "},"ુ":{"ha":0,"x_min":-669,"x_max":-28,"o":"m -389 -364 l -146 -364 l -90 -308 l -90 -181 l -146 -125 l -354 -125 l -354 -69 l -115 -69 l -28 -157 l -28 -332 l -115 -419 l -419 -419 l -669 -169 l -626 -126 l -389 -364 z "},"ૂ":{"ha":0,"x_min":-443,"x_max":228,"o":"m -96 -125 l -325 -125 l -381 -181 l -381 -308 l -325 -364 l -144 -364 l -144 -419 l -356 -419 l -443 -332 l -443 -157 l -356 -69 l -65 -69 l 228 -362 l 185 -406 l -96 -125 z "},"ૃ":{"ha":0,"x_min":-476,"x_max":-83,"o":"m -83 -392 l -83 -447 l -375 -447 l -476 -346 l -476 -171 l -375 -69 l -160 -69 l -160 28 l -97 28 l -97 -94 l -97 -125 l -343 -125 l -412 -194 l -412 -322 l -343 -392 l -83 -392 z "},"ૄ":{"ha":0,"x_min":-475,"x_max":-69,"o":"m -69 -519 l -69 -575 l -387 -575 l -475 -487 l -475 -382 l -415 -322 l -475 -262 l -475 -157 l -387 -69 l -160 -69 l -160 28 l -97 28 l -97 -94 l -97 -125 l -357 -125 l -412 -181 l -412 -239 l -357 -294 l -125 -294 l -125 -350 l -357 -350 l -412 -406 l -412 -464 l -357 -519 l -69 -519 z "},"ૢ":{"ha":0,"x_min":-535,"x_max":111,"o":"m -167 -572 l -167 -658 l -125 -700 l 65 -700 l 65 -756 l -156 -756 l -229 -682 l -229 -549 l -156 -475 l -7 -475 l 49 -419 l 49 -181 l -7 -125 l -111 -125 l -181 -194 l -181 -347 l -243 -347 l -243 -194 l -312 -125 l -417 -125 l -472 -181 l -472 -375 l -417 -431 l -340 -431 l -340 -486 l -447 -486 l -535 -399 l -535 -157 l -447 -69 l -282 -69 l -212 -140 l -142 -69 l 24 -69 l 111 -157 l 111 -443 l 24 -531 l -125 -531 l -167 -572 z "},"ૣ":{"ha":0,"x_min":-549,"x_max":97,"o":"m -181 -544 l -181 -600 l -139 -642 l 38 -642 l 38 -697 l -139 -697 l -181 -739 l -181 -794 l -139 -836 l 79 -836 l 79 -892 l -169 -892 l -243 -818 l -243 -715 l -197 -669 l -243 -624 l -243 -521 l -169 -447 l -21 -447 l 35 -392 l 35 -181 l -21 -125 l -125 -125 l -194 -194 l -194 -319 l -257 -319 l -257 -194 l -326 -125 l -431 -125 l -486 -181 l -486 -347 l -431 -403 l -354 -403 l -354 -458 l -461 -458 l -549 -371 l -549 -157 l -461 -69 l -296 -69 l -226 -140 l -156 -69 l 10 -69 l 97 -157 l 97 -415 l 10 -503 l -139 -503 l -181 -544 z "},"ે":{"ha":0,"x_min":-650,"x_max":-151,"o":"m -650 1431 l -456 1431 l -151 1042 l -226 1042 l -486 1375 l -650 1375 l -650 1431 z "},"ૈ":{"ha":0,"x_min":-697,"x_max":-111,"o":"m -551 1431 l -354 1431 l -111 1042 l -186 1042 l -394 1375 l -551 1375 l -551 1431 m -697 1264 l -515 1264 l -342 1042 l -417 1042 l -547 1208 l -697 1208 l -697 1264 z "},"ો":{"ha":514,"x_min":-136,"x_max":528,"o":"m 528 56 l 528 0 l 226 0 l 97 129 l 97 889 l -14 889 l -14 944 l 288 944 l 417 815 l 417 56 l 528 56 m 257 56 l 354 56 l 354 792 l 257 889 l 160 889 l 160 153 l 257 56 m -136 1431 l 58 1431 l 363 1042 l 288 1042 l 28 1375 l -136 1375 l -136 1431 z "},"ૌ":{"ha":514,"x_min":-183,"x_max":528,"o":"m 528 56 l 528 0 l 226 0 l 97 129 l 97 889 l -14 889 l -14 944 l 288 944 l 417 815 l 417 56 l 528 56 m 257 56 l 354 56 l 354 792 l 257 889 l 160 889 l 160 153 l 257 56 m -37 1431 l 160 1431 l 403 1042 l 328 1042 l 119 1375 l -37 1375 l -37 1431 m -183 1264 l -1 1264 l 172 1042 l 97 1042 l -33 1208 l -183 1208 l -183 1264 z "},"ૅ":{"ha":0,"x_min":-614,"x_max":-17,"o":"m -118 1042 l -17 1143 l -17 1264 l -79 1264 l -79 1167 l -149 1097 l -482 1097 l -551 1167 l -551 1264 l -614 1264 l -614 1143 l -512 1042 l -118 1042 z "},"ૉ":{"ha":514,"x_min":-371,"x_max":528,"o":"m 528 56 l 528 0 l 226 0 l 97 129 l 97 889 l -14 889 l -14 944 l 288 944 l 417 815 l 417 56 l 528 56 m 257 56 l 354 56 l 354 792 l 257 889 l 160 889 l 160 153 l 257 56 m 125 1042 l 226 1143 l 226 1264 l 164 1264 l 164 1167 l 94 1097 l -239 1097 l -308 1167 l -308 1264 l -371 1264 l -371 1143 l -269 1042 l 125 1042 z "},"ક":{"ha":926,"x_min":69,"x_max":857,"o":"m 857 451 l 719 451 l 779 392 l 779 115 l 664 0 l 235 0 l 119 115 l 119 271 l 182 271 l 182 139 l 265 56 l 488 56 l 488 451 l 69 451 l 69 507 l 207 507 l 147 567 l 147 829 l 263 944 l 650 944 l 760 835 l 717 792 l 619 889 l 439 889 l 439 507 l 857 507 l 857 451 m 293 507 l 376 507 l 376 889 l 293 889 l 210 806 l 210 590 l 293 507 m 633 451 l 550 451 l 550 56 l 633 56 l 717 139 l 717 368 l 633 451 z "},"ખ":{"ha":1319,"x_min":28,"x_max":1333,"o":"m 1333 56 l 1333 0 l 1032 0 l 903 129 l 903 472 l 715 472 l 715 296 l 586 167 l 268 167 l 139 296 l 139 889 l 28 889 l 28 944 l 329 944 l 458 815 l 458 222 l 556 222 l 653 319 l 653 694 l 715 694 l 715 528 l 903 528 l 903 889 l 792 889 l 792 944 l 1093 944 l 1222 815 l 1222 56 l 1333 56 m 299 222 l 396 222 l 396 792 l 299 889 l 201 889 l 201 319 l 299 222 m 1063 56 l 1160 56 l 1160 792 l 1063 889 l 965 889 l 965 153 l 1063 56 z "},"ગ":{"ha":1221,"x_min":56,"x_max":1235,"o":"m 1235 57 l 1235 1 l 933 1 l 804 131 l 804 890 l 693 890 l 693 946 l 994 946 l 1124 817 l 1124 57 l 1235 57 m 511 944 l 640 815 l 640 407 l 511 278 l 165 278 l 57 386 l 57 542 l 119 542 l 119 410 l 196 333 l 321 333 l 321 889 l 196 889 l 99 792 l 56 835 l 165 944 l 511 944 m 964 57 l 1061 57 l 1061 793 l 964 890 l 867 890 l 867 154 l 964 57 m 578 792 l 481 889 l 383 889 l 383 333 l 481 333 l 578 431 l 578 792 z "},"ઘ":{"ha":1129,"x_min":83,"x_max":1143,"o":"m 1143 56 l 1143 0 l 842 0 l 713 129 l 713 219 l 632 139 l 199 139 l 83 254 l 83 461 l 171 549 l 83 636 l 83 829 l 199 944 l 507 944 l 507 889 l 396 889 l 396 576 l 549 576 l 549 521 l 396 521 l 396 194 l 601 194 l 713 306 l 713 889 l 601 889 l 601 944 l 903 944 l 1032 815 l 1032 56 l 1143 56 m 146 660 l 229 576 l 333 576 l 333 889 l 229 889 l 146 806 l 146 660 m 872 56 l 969 56 l 969 792 l 872 889 l 775 889 l 775 282 l 775 153 l 872 56 m 229 194 l 333 194 l 333 521 l 229 521 l 146 438 l 146 278 l 229 194 z "},"ઙ":{"ha":954,"x_min":83,"x_max":968,"o":"m 656 514 l 771 399 l 771 115 l 656 0 l 199 0 l 83 115 l 83 271 l 146 271 l 146 139 l 229 56 l 479 56 l 479 458 l 226 458 l 111 574 l 111 829 l 226 944 l 628 944 l 738 835 l 694 792 l 597 889 l 403 889 l 403 514 l 656 514 m 257 514 l 340 514 l 340 889 l 257 889 l 174 806 l 174 597 l 257 514 m 968 633 l 821 486 l 674 633 l 821 781 l 968 633 m 821 561 l 893 633 l 821 706 l 749 633 l 821 561 m 708 375 l 625 458 l 542 458 l 542 56 l 625 56 l 708 139 l 708 375 z "},"ચ":{"ha":1286,"x_min":97,"x_max":1300,"o":"m 1300 56 l 1300 0 l 999 0 l 869 129 l 869 233 l 789 153 l 310 153 l 194 268 l 194 500 l 97 500 l 97 556 l 438 556 l 438 889 l 326 889 l 229 792 l 186 835 l 296 944 l 628 944 l 743 829 l 743 615 l 628 500 l 500 500 l 500 208 l 758 208 l 869 319 l 869 889 l 772 889 l 772 944 l 1060 944 l 1189 815 l 1189 56 l 1300 56 m 500 556 l 597 556 l 681 639 l 681 806 l 597 889 l 500 889 l 500 556 m 1029 56 l 1126 56 l 1126 792 l 1029 889 l 932 889 l 932 296 l 932 153 l 1029 56 m 340 208 l 438 208 l 438 500 l 257 500 l 257 292 l 340 208 z "},"છ":{"ha":1263,"x_min":83,"x_max":1179,"o":"m 1179 801 l 1179 143 l 1036 0 l 226 0 l 83 143 l 83 392 l 171 479 l 83 567 l 83 829 l 199 944 l 514 944 l 514 889 l 389 889 l 389 507 l 528 507 l 528 451 l 389 451 l 389 56 l 874 56 l 874 392 l 760 392 l 644 507 l 644 829 l 760 944 l 1036 944 l 1179 801 m 146 590 l 229 507 l 326 507 l 326 889 l 229 889 l 146 806 l 146 590 m 874 447 l 874 889 l 790 889 l 707 806 l 707 531 l 790 447 l 874 447 m 1117 778 l 1006 889 l 936 889 l 936 56 l 1006 56 l 1117 167 l 1117 778 m 257 56 l 326 56 l 326 451 l 229 451 l 146 368 l 146 167 l 257 56 z "},"જ":{"ha":1039,"x_min":14,"x_max":1081,"o":"m 742 539 l 872 383 l 872 115 l 757 0 l 397 0 l 296 101 l 296 411 l 533 694 l 371 889 l 264 889 l 264 618 l 333 618 l 333 563 l 101 563 l 14 650 l 14 857 l 101 944 l 401 944 l 572 740 l 743 944 l 821 944 l 1042 944 l 1081 944 l 742 539 m 201 889 l 132 889 l 76 833 l 76 674 l 132 618 l 201 618 l 201 889 m 428 56 l 504 56 l 504 279 l 504 350 l 956 889 l 774 889 l 358 393 l 358 125 l 428 56 m 703 493 l 567 332 l 567 56 l 726 56 l 810 139 l 810 365 l 703 493 z "},"ઝ":{"ha":1235,"x_min":69,"x_max":1151,"o":"m 1151 944 l 1151 889 l 1151 615 l 1050 514 l 1151 413 l 1151 129 l 1022 0 l 690 0 l 581 108 l 624 151 l 721 56 l 832 56 l 832 486 l 647 486 l 647 368 l 518 239 l 179 239 l 69 347 l 113 390 l 210 294 l 335 294 l 335 861 l 210 861 l 113 764 l 69 807 l 179 917 l 518 917 l 647 788 l 647 542 l 832 542 l 832 944 l 1151 944 m 1089 889 l 894 889 l 894 542 l 992 542 l 1089 639 l 1089 889 m 585 764 l 488 861 l 397 861 l 397 294 l 488 294 l 585 392 l 585 764 m 1089 389 l 992 486 l 894 486 l 894 56 l 992 56 l 1089 153 l 1089 389 z "},"ઞ":{"ha":1211,"x_min":56,"x_max":1225,"o":"m 1225 57 l 1225 1 l 924 1 l 794 131 l 794 557 l 619 557 l 619 353 l 490 222 l 165 222 l 56 332 l 99 375 l 196 278 l 307 278 l 307 889 l 196 889 l 99 792 l 56 835 l 165 944 l 490 944 l 619 817 l 619 613 l 794 613 l 794 890 l 683 890 l 683 946 l 985 946 l 1114 817 l 1114 57 l 1225 57 m 954 57 l 1051 57 l 1051 793 l 954 890 l 857 890 l 857 154 l 954 57 m 557 793 l 460 889 l 369 889 l 369 278 l 460 278 l 557 376 l 557 793 z "},"ટ":{"ha":849,"x_min":83,"x_max":765,"o":"m 765 110 l 656 0 l 199 0 l 83 115 l 83 399 l 199 514 l 451 514 l 451 889 l 257 889 l 160 792 l 117 835 l 226 944 l 628 944 l 743 829 l 743 574 l 628 458 l 375 458 l 375 56 l 625 56 l 722 153 l 765 110 m 514 514 l 597 514 l 681 597 l 681 806 l 597 889 l 514 889 l 514 514 m 229 56 l 313 56 l 313 458 l 229 458 l 146 375 l 146 139 l 229 56 z "},"ઠ":{"ha":833,"x_min":83,"x_max":750,"o":"m 750 392 l 750 129 l 621 0 l 213 0 l 83 129 l 83 392 l 185 493 l 97 581 l 97 829 l 213 944 l 579 944 l 689 835 l 646 792 l 549 889 l 417 889 l 417 521 l 621 521 l 750 392 m 160 604 l 243 521 l 354 521 l 354 889 l 243 889 l 160 806 l 160 604 m 243 56 l 354 56 l 354 465 l 243 465 l 146 368 l 146 153 l 243 56 m 688 368 l 590 465 l 417 465 l 417 56 l 590 56 l 688 153 l 688 368 z "},"ડ":{"ha":854,"x_min":83,"x_max":771,"o":"m 771 399 l 771 115 l 656 0 l 199 0 l 83 115 l 83 271 l 146 271 l 146 139 l 229 56 l 479 56 l 479 458 l 226 458 l 111 574 l 111 829 l 226 944 l 628 944 l 738 835 l 694 792 l 597 889 l 403 889 l 403 514 l 656 514 l 771 399 m 257 514 l 340 514 l 340 889 l 257 889 l 174 806 l 174 597 l 257 514 m 708 375 l 625 458 l 542 458 l 542 56 l 625 56 l 708 139 l 708 375 z "},"ઢ":{"ha":903,"x_min":83,"x_max":819,"o":"m 819 293 l 819 115 l 704 0 l 199 0 l 83 115 l 83 482 l 199 597 l 479 597 l 479 889 l 257 889 l 160 792 l 117 835 l 226 944 l 663 944 l 771 836 l 771 650 l 663 542 l 375 542 l 375 56 l 507 56 l 507 381 l 507 408 l 704 408 l 819 293 m 542 597 l 632 597 l 708 674 l 708 813 l 632 889 l 542 889 l 542 597 m 229 56 l 313 56 l 313 542 l 229 542 l 146 458 l 146 139 l 229 56 m 757 269 l 674 353 l 569 353 l 569 56 l 674 56 l 757 139 l 757 269 z "},"ણ":{"ha":1476,"x_min":-14,"x_max":1490,"o":"m 903 101 l 801 0 l 226 0 l 97 129 l 97 889 l -14 889 l -14 944 l 274 944 l 403 815 l 403 56 l 617 56 l 617 264 l 679 264 l 903 264 l 903 101 m 786 389 l 506 389 l 506 444 l 617 444 l 617 889 l 506 889 l 506 944 l 786 944 l 901 829 l 901 504 l 786 389 m 1490 56 l 1490 0 l 1189 0 l 1060 129 l 1060 889 l 949 889 l 949 944 l 1250 944 l 1379 815 l 1379 56 l 1490 56 m 257 56 l 340 56 l 340 792 l 243 889 l 160 889 l 160 153 l 257 56 m 756 444 l 839 528 l 839 806 l 756 889 l 679 889 l 679 444 l 756 444 m 1219 56 l 1317 56 l 1317 792 l 1219 889 l 1122 889 l 1122 153 l 1219 56 m 840 125 l 840 208 l 679 208 l 679 56 l 771 56 l 840 125 z "},"ત":{"ha":994,"x_min":56,"x_max":1008,"o":"m 1008 56 l 1008 0 l 707 0 l 578 129 l 578 611 l 368 611 l 368 56 l 479 56 l 479 0 l 185 0 l 56 129 l 56 538 l 185 667 l 578 667 l 578 889 l 467 889 l 467 944 l 768 944 l 897 815 l 897 56 l 1008 56 m 738 56 l 835 56 l 835 792 l 738 889 l 640 889 l 640 153 l 738 56 m 306 611 l 215 611 l 118 514 l 118 153 l 215 56 l 306 56 l 306 611 z "},"થ":{"ha":1167,"x_min":69,"x_max":1181,"o":"m 1181 56 l 1181 0 l 879 0 l 750 129 l 750 247 l 669 167 l 185 167 l 69 282 l 69 556 l 326 556 l 326 889 l 250 889 l 181 819 l 181 714 l 250 644 l 207 601 l 118 690 l 118 843 l 219 944 l 510 944 l 611 843 l 611 601 l 510 500 l 389 500 l 389 222 l 639 222 l 750 333 l 750 889 l 667 889 l 667 944 l 940 944 l 1069 815 l 1069 56 l 1181 56 m 389 556 l 479 556 l 549 625 l 549 819 l 479 889 l 389 889 l 389 556 m 910 56 l 1007 56 l 1007 792 l 910 889 l 813 889 l 813 310 l 813 153 l 910 56 m 215 222 l 326 222 l 326 500 l 132 500 l 132 306 l 215 222 z "},"દ":{"ha":771,"x_min":83,"x_max":722,"o":"m 722 278 l 722 129 l 593 0 l 213 0 l 83 129 l 83 378 l 192 486 l 97 581 l 97 815 l 226 944 l 586 944 l 696 835 l 653 792 l 556 889 l 417 889 l 417 507 l 597 507 l 597 451 l 417 451 l 417 56 l 563 56 l 660 153 l 660 278 l 722 278 m 160 604 l 257 507 l 354 507 l 354 889 l 257 889 l 160 792 l 160 604 m 243 56 l 354 56 l 354 451 l 243 451 l 146 354 l 146 153 l 243 56 z "},"ધ":{"ha":1117,"x_min":85,"x_max":1131,"o":"m 1131 56 l 1131 0 l 829 0 l 700 129 l 700 247 l 619 167 l 214 167 l 85 296 l 85 551 l 186 653 l 85 754 l 85 982 l 214 1111 l 536 1111 l 536 1056 l 397 1056 l 397 681 l 564 681 l 564 625 l 397 625 l 397 222 l 589 222 l 700 333 l 700 889 l 589 889 l 589 944 l 890 944 l 1019 815 l 1019 56 l 1131 56 m 147 778 l 244 681 l 335 681 l 335 1056 l 244 1056 l 147 958 l 147 778 m 860 56 l 957 56 l 957 792 l 860 889 l 763 889 l 763 310 l 763 153 l 860 56 m 244 222 l 335 222 l 335 625 l 244 625 l 147 528 l 147 319 l 244 222 z "},"ન":{"ha":1044,"x_min":28,"x_max":1058,"o":"m 1058 56 l 1058 0 l 757 0 l 628 129 l 628 611 l 319 611 l 319 167 l 375 167 l 444 236 l 444 417 l 507 417 l 507 213 l 406 111 l 129 111 l 28 213 l 28 565 l 129 667 l 628 667 l 628 889 l 517 889 l 517 944 l 818 944 l 947 815 l 947 56 l 1058 56 m 788 56 l 885 56 l 885 792 l 788 889 l 690 889 l 690 153 l 788 56 m 257 611 l 160 611 l 90 542 l 90 236 l 160 167 l 257 167 l 257 611 z "},"પ":{"ha":1042,"x_min":14,"x_max":1056,"o":"m 1056 56 l 1056 0 l 754 0 l 625 129 l 625 344 l 558 278 l 254 278 l 125 407 l 125 889 l 14 889 l 14 944 l 308 944 l 438 815 l 438 333 l 528 333 l 625 431 l 625 889 l 514 889 l 514 944 l 815 944 l 944 815 l 944 56 l 1056 56 m 285 333 l 375 333 l 375 792 l 278 889 l 188 889 l 188 431 l 285 333 m 785 56 l 882 56 l 882 792 l 785 889 l 688 889 l 688 407 l 688 153 l 785 56 z "},"ફ":{"ha":926,"x_min":69,"x_max":857,"o":"m 857 451 l 719 451 l 779 392 l 779 115 l 664 0 l 474 0 l 474 -256 l 626 -256 l 626 -311 l 304 -311 l 203 -210 l 203 0 l 101 101 l 101 257 l 164 257 l 164 125 l 233 56 l 488 56 l 488 451 l 69 451 l 69 507 l 207 507 l 147 567 l 147 829 l 263 944 l 650 944 l 760 835 l 717 792 l 619 889 l 439 889 l 439 507 l 857 507 l 857 451 m 293 507 l 376 507 l 376 889 l 293 889 l 210 806 l 210 590 l 293 507 m 633 451 l 550 451 l 550 56 l 633 56 l 717 139 l 717 368 l 633 451 m 411 0 l 265 0 l 265 -186 l 335 -256 l 411 -256 l 411 0 z "},"બ":{"ha":1264,"x_min":83,"x_max":1278,"o":"m 1278 56 l 1278 0 l 976 0 l 847 129 l 847 500 l 660 500 l 660 296 l 531 167 l 213 167 l 83 296 l 83 815 l 213 944 l 528 944 l 528 889 l 403 889 l 403 222 l 500 222 l 597 319 l 597 722 l 660 722 l 660 556 l 847 556 l 847 889 l 736 889 l 736 944 l 1038 944 l 1167 815 l 1167 56 l 1278 56 m 243 222 l 340 222 l 340 889 l 243 889 l 146 792 l 146 319 l 243 222 m 1007 56 l 1104 56 l 1104 792 l 1007 889 l 910 889 l 910 153 l 1007 56 z "},"ભ":{"ha":1292,"x_min":97,"x_max":1306,"o":"m 1306 56 l 1306 0 l 1004 0 l 875 129 l 875 500 l 688 500 l 688 333 l 625 333 l 625 792 l 528 889 l 417 889 l 417 56 l 528 56 l 625 153 l 668 110 l 558 0 l 226 0 l 97 129 l 97 815 l 226 944 l 558 944 l 688 815 l 688 556 l 875 556 l 875 889 l 764 889 l 764 944 l 1065 944 l 1194 815 l 1194 56 l 1306 56 m 354 889 l 257 889 l 160 792 l 160 153 l 257 56 l 354 56 l 354 889 m 1035 56 l 1132 56 l 1132 792 l 1035 889 l 938 889 l 938 153 l 1035 56 z "},"મ":{"ha":1208,"x_min":69,"x_max":1222,"o":"m 1222 56 l 1222 0 l 921 0 l 792 129 l 792 528 l 618 528 l 618 282 l 503 167 l 185 167 l 69 282 l 69 468 l 185 583 l 313 583 l 313 889 l 215 889 l 113 786 l 69 829 l 185 944 l 503 944 l 618 829 l 618 583 l 792 583 l 792 889 l 681 889 l 681 944 l 982 944 l 1111 815 l 1111 56 l 1222 56 m 556 806 l 472 889 l 375 889 l 375 222 l 472 222 l 556 306 l 556 806 m 951 56 l 1049 56 l 1049 792 l 951 889 l 854 889 l 854 153 l 951 56 m 215 222 l 313 222 l 313 528 l 215 528 l 132 444 l 132 306 l 215 222 z "},"ય":{"ha":1158,"x_min":69,"x_max":1172,"o":"m 1172 56 l 1172 0 l 871 0 l 742 129 l 742 247 l 661 167 l 185 167 l 69 282 l 69 583 l 313 583 l 313 889 l 236 889 l 153 806 l 108 847 l 206 944 l 489 944 l 590 843 l 590 629 l 489 528 l 375 528 l 375 222 l 631 222 l 742 333 l 742 889 l 644 889 l 644 944 l 932 944 l 1061 815 l 1061 56 l 1172 56 m 375 583 l 458 583 l 528 653 l 528 819 l 458 889 l 375 889 l 375 583 m 901 56 l 999 56 l 999 792 l 901 889 l 804 889 l 804 310 l 804 153 l 901 56 m 215 222 l 313 222 l 313 528 l 132 528 l 132 306 l 215 222 z "},"ર":{"ha":849,"x_min":83,"x_max":782,"o":"m 782 126 l 656 0 l 310 0 l 181 129 l 181 431 l 83 431 l 83 486 l 438 486 l 438 889 l 299 889 l 201 792 l 158 835 l 268 944 l 628 944 l 757 815 l 757 560 l 628 431 l 500 431 l 500 56 l 625 56 l 739 169 l 782 126 m 500 486 l 597 486 l 694 583 l 694 792 l 597 889 l 500 889 l 500 486 m 340 56 l 438 56 l 438 431 l 243 431 l 243 153 l 340 56 z "},"લ":{"ha":1174,"x_min":97,"x_max":1188,"o":"m 611 181 l 654 138 l 544 28 l 226 28 l 97 157 l 97 815 l 226 944 l 528 944 l 528 889 l 417 889 l 417 83 l 514 83 l 611 181 m 1188 56 l 1188 0 l 886 0 l 757 129 l 757 458 l 511 458 l 511 514 l 757 514 l 757 889 l 646 889 l 646 944 l 947 944 l 1076 815 l 1076 56 l 1188 56 m 257 83 l 354 83 l 354 889 l 257 889 l 160 792 l 160 181 l 257 83 m 917 56 l 1014 56 l 1014 792 l 917 889 l 819 889 l 819 153 l 917 56 z "},"વ":{"ha":1125,"x_min":111,"x_max":1139,"o":"m 1139 56 l 1139 0 l 838 0 l 708 129 l 708 303 l 628 222 l 240 222 l 111 351 l 111 815 l 240 944 l 507 944 l 507 889 l 417 889 l 417 278 l 597 278 l 708 389 l 708 889 l 618 889 l 618 944 l 899 944 l 1028 815 l 1028 56 l 1139 56 m 271 278 l 354 278 l 354 889 l 271 889 l 174 792 l 174 375 l 271 278 m 868 56 l 965 56 l 965 792 l 868 889 l 771 889 l 771 365 l 771 153 l 868 56 z "},"શ":{"ha":1296,"x_min":56,"x_max":1310,"o":"m 681 153 l 724 110 l 614 0 l 282 0 l 153 129 l 153 403 l 56 403 l 56 458 l 403 458 l 403 889 l 306 889 l 208 792 l 208 597 l 146 597 l 146 815 l 275 944 l 586 944 l 715 815 l 715 532 l 586 403 l 465 403 l 465 56 l 583 56 l 681 153 m 1310 56 l 1310 0 l 1008 0 l 879 129 l 879 889 l 768 889 l 768 944 l 1069 944 l 1199 815 l 1199 56 l 1310 56 m 465 458 l 556 458 l 653 556 l 653 792 l 556 889 l 465 889 l 465 458 m 1039 56 l 1136 56 l 1136 792 l 1039 889 l 942 889 l 942 153 l 1039 56 m 313 56 l 403 56 l 403 403 l 215 403 l 215 153 l 313 56 z "},"ષ":{"ha":1063,"x_min":0,"x_max":1076,"o":"m 1076 57 l 1076 1 l 775 1 l 646 131 l 646 344 l 579 278 l 240 278 l 111 407 l 111 889 l 0 889 l 0 944 l 288 944 l 646 586 l 646 890 l 535 890 l 535 946 l 836 946 l 965 817 l 965 57 l 1076 57 m 806 57 l 903 57 l 903 793 l 806 890 l 708 890 l 708 407 l 708 154 l 806 57 m 271 333 l 354 333 l 354 792 l 257 889 l 174 889 l 174 431 l 271 333 m 646 431 l 646 500 l 417 729 l 417 333 l 549 333 l 646 431 z "},"સ":{"ha":1286,"x_min":69,"x_max":1300,"o":"m 1300 56 l 1300 0 l 999 0 l 869 129 l 869 431 l 479 431 l 479 56 l 597 56 l 694 153 l 738 110 l 628 0 l 289 0 l 167 122 l 167 431 l 69 431 l 69 486 l 417 486 l 417 889 l 299 889 l 201 792 l 158 835 l 268 944 l 593 944 l 715 822 l 715 553 l 649 486 l 869 486 l 869 889 l 758 889 l 758 944 l 1060 944 l 1189 815 l 1189 56 l 1300 56 m 563 486 l 653 576 l 653 799 l 563 889 l 479 889 l 479 486 l 563 486 m 1029 56 l 1126 56 l 1126 792 l 1029 889 l 932 889 l 932 153 l 1029 56 m 417 431 l 229 431 l 229 146 l 319 56 l 417 56 l 417 431 z "},"હ":{"ha":1022,"x_min":125,"x_max":1008,"o":"m 1008 46 l 893 -69 l 268 -69 l 125 74 l 125 558 l 125 583 l 315 583 l 431 468 l 431 250 l 614 250 l 614 542 l 485 542 l 385 642 l 385 843 l 486 944 l 790 944 l 886 849 l 843 806 l 760 889 l 676 889 l 676 597 l 804 597 l 906 496 l 906 294 l 806 194 l 431 194 l 431 -14 l 863 -14 l 965 89 l 1008 46 m 614 597 l 614 889 l 517 889 l 447 819 l 447 667 l 517 597 l 614 597 m 676 250 l 774 250 l 843 319 l 843 472 l 774 542 l 676 542 l 676 250 m 299 -14 l 368 -14 l 368 444 l 285 528 l 188 528 l 188 97 l 299 -14 z "},"ળ":{"ha":1271,"x_min":97,"x_max":1285,"o":"m 1285 56 l 1285 0 l 997 0 l 868 129 l 868 889 l 771 889 l 674 792 l 674 240 l 544 111 l 226 111 l 97 240 l 97 815 l 226 944 l 514 944 l 514 889 l 417 889 l 417 167 l 514 167 l 611 264 l 611 815 l 740 944 l 1058 944 l 1188 815 l 1188 56 l 1285 56 m 257 167 l 354 167 l 354 889 l 257 889 l 160 792 l 160 264 l 257 167 m 1028 56 l 1125 56 l 1125 792 l 1028 889 l 931 889 l 931 153 l 1028 56 z "},"ૹ":{"ha":1039,"x_min":-269,"x_max":1081,"o":"m 742 539 l 872 383 l 872 115 l 757 0 l 397 0 l 296 101 l 296 411 l 533 694 l 371 889 l 264 889 l 264 618 l 333 618 l 333 563 l 101 563 l 14 650 l 14 857 l 101 944 l 401 944 l 572 740 l 743 944 l 821 944 l 1042 944 l 1081 944 l 742 539 m 201 889 l 132 889 l 76 833 l 76 674 l 132 618 l 201 618 l 201 889 m 428 56 l 504 56 l 504 279 l 504 350 l 956 889 l 774 889 l 358 393 l 358 125 l 428 56 m 703 493 l 567 332 l 567 56 l 726 56 l 810 139 l 810 365 l 703 493 m 86 160 l -71 315 l 85 472 l 242 317 l 86 160 m 7 315 l 86 238 l 164 317 l 85 394 l 7 315 m 43 117 l -112 -40 l -269 115 l -114 272 l 43 117 m -112 38 l -35 117 l -114 194 l -192 115 l -112 38 m 161 153 l 318 -3 l 163 -160 l 6 -4 l 161 153 m 240 -3 l 161 75 l 83 -3 l 163 -82 l 240 -3 z "},"ં":{"ha":0,"x_min":-478,"x_max":-54,"o":"m -267 1056 l -54 1267 l -265 1479 l -478 1268 l -267 1056 m -392 1268 l -265 1393 l -140 1267 l -267 1142 l -392 1268 z "},"ઁ":{"ha":0,"x_min":-614,"x_max":-17,"o":"m -315 1194 l -164 1346 l -315 1497 l -467 1346 l -315 1194 m -392 1346 l -315 1422 l -239 1346 l -315 1269 l -392 1346 m -118 1042 l -17 1143 l -17 1264 l -79 1264 l -79 1167 l -149 1097 l -482 1097 l -551 1167 l -551 1264 l -614 1264 l -614 1143 l -512 1042 l -118 1042 z "},"ઃ":{"ha":444,"x_min":47,"x_max":396,"o":"m 221 540 l 396 714 l 222 889 l 47 715 l 221 540 m 124 715 l 222 813 l 319 714 l 221 617 l 124 715 m 221 96 l 396 269 l 222 444 l 47 271 l 221 96 m 124 271 l 222 368 l 319 269 l 221 172 l 124 271 z "},"્":{"ha":0,"x_min":-287,"x_max":-17,"o":"m -218 -69 l -287 -69 l -86 -347 l -17 -347 l -218 -69 z "},"઼":{"ha":0,"x_min":-793,"x_max":-369,"o":"m -582 -472 l -369 -261 l -581 -49 l -793 -260 l -582 -472 m -707 -260 l -581 -135 l -456 -261 l -582 -386 l -707 -260 z "},"ઽ":{"ha":876,"x_min":83,"x_max":807,"o":"m 807 279 l 807 115 l 692 0 l 213 0 l 83 129 l 83 306 l 146 306 l 146 153 l 243 56 l 585 56 l 111 665 l 111 829 l 226 944 l 733 944 l 733 889 l 333 889 l 807 279 m 744 261 l 257 889 l 174 806 l 174 683 l 661 56 l 744 139 l 744 261 z "},"૦":{"ha":993,"x_min":104,"x_max":889,"o":"m 889 814 l 889 128 l 760 -1 l 233 0 l 104 129 l 104 815 l 233 944 l 760 943 l 889 814 m 264 56 l 361 56 l 361 889 l 264 889 l 167 792 l 167 153 l 264 56 m 424 889 l 424 56 l 569 54 l 569 888 l 424 889 m 826 790 l 729 888 l 632 888 l 632 54 l 729 54 l 826 151 l 826 790 z "},"૧":{"ha":799,"x_min":69,"x_max":757,"o":"m 757 56 l 757 0 l 456 0 l 326 129 l 326 500 l 185 500 l 69 615 l 69 829 l 185 944 l 517 944 l 646 815 l 646 56 l 757 56 m 326 556 l 326 889 l 215 889 l 132 806 l 132 639 l 215 556 l 326 556 m 486 56 l 583 56 l 583 792 l 486 889 l 389 889 l 389 153 l 486 56 z "},"૨":{"ha":849,"x_min":71,"x_max":782,"o":"m 782 126 l 656 0 l 310 0 l 181 129 l 181 417 l 71 526 l 115 569 l 213 472 l 438 472 l 438 889 l 313 889 l 215 792 l 172 835 l 282 944 l 628 944 l 757 815 l 757 546 l 628 417 l 500 417 l 500 56 l 625 56 l 739 169 l 782 126 m 500 472 l 597 472 l 694 569 l 694 792 l 597 889 l 500 889 l 500 472 m 340 56 l 438 56 l 438 417 l 243 417 l 243 153 l 340 56 z "},"૩":{"ha":785,"x_min":69,"x_max":701,"o":"m 701 586 l 601 486 l 701 385 l 701 129 l 572 0 l 185 0 l 69 115 l 69 278 l 132 278 l 132 139 l 215 56 l 382 56 l 382 458 l 174 458 l 174 514 l 382 514 l 382 889 l 229 889 l 132 792 l 89 835 l 199 944 l 572 944 l 701 815 l 701 586 m 639 792 l 542 889 l 444 889 l 444 514 l 542 514 l 639 610 l 639 792 m 639 361 l 542 458 l 444 458 l 444 56 l 542 56 l 639 153 l 639 361 z "},"૪":{"ha":985,"x_min":0,"x_max":985,"o":"m 658 568 l 815 388 l 815 115 l 700 0 l 271 0 l 169 101 l 169 399 l 322 574 l 0 944 l 78 944 l 289 944 l 331 944 l 488 764 l 644 944 l 722 944 l 943 944 l 985 944 l 658 568 m 361 618 l 449 719 l 301 889 l 126 889 l 361 618 m 301 56 l 378 56 l 378 279 l 378 336 l 858 889 l 674 889 l 232 381 l 232 125 l 301 56 m 619 524 l 440 318 l 440 56 l 669 56 l 753 139 l 753 369 l 619 524 z "},"૫":{"ha":1063,"x_min":0,"x_max":1021,"o":"m 1021 56 l 1021 0 l 719 0 l 590 129 l 590 306 l 240 306 l 111 435 l 111 889 l 0 889 l 0 944 l 288 944 l 417 815 l 417 361 l 590 361 l 590 889 l 507 889 l 507 944 l 781 944 l 910 815 l 910 56 l 1021 56 m 271 361 l 354 361 l 354 792 l 257 889 l 174 889 l 174 458 l 271 361 m 750 56 l 847 56 l 847 792 l 750 889 l 653 889 l 653 153 l 750 56 z "},"૬":{"ha":835,"x_min":69,"x_max":768,"o":"m 768 417 l 671 417 l 671 129 l 542 0 l 196 0 l 69 126 l 113 169 l 226 56 l 351 56 l 351 417 l 217 417 l 88 546 l 88 815 l 217 944 l 569 944 l 679 835 l 636 792 l 539 889 l 414 889 l 414 472 l 671 472 l 768 472 l 768 417 m 351 472 l 351 889 l 247 889 l 150 792 l 150 569 l 247 472 l 351 472 m 608 417 l 414 417 l 414 56 l 511 56 l 608 153 l 608 417 z "},"૭":{"ha":982,"x_min":83,"x_max":899,"o":"m 899 760 l 899 129 l 769 0 l 240 0 l 83 157 l 83 815 l 213 944 l 256 901 l 146 792 l 146 181 l 271 56 l 586 56 l 586 361 l 458 361 l 329 490 l 329 760 l 458 889 l 769 889 l 899 760 m 586 417 l 586 833 l 489 833 l 392 736 l 392 514 l 489 417 l 586 417 m 836 736 l 739 833 l 649 833 l 649 56 l 739 56 l 836 153 l 836 736 z "},"૮":{"ha":785,"x_min":56,"x_max":701,"o":"m 701 306 l 701 129 l 572 0 l 171 0 l 56 115 l 56 411 l 364 944 l 431 944 l 650 944 l 681 944 l 340 356 l 340 56 l 542 56 l 639 153 l 639 306 l 701 306 m 201 56 l 278 56 l 278 301 l 278 363 l 582 889 l 399 889 l 118 403 l 118 139 l 201 56 z "},"૯":{"ha":858,"x_min":104,"x_max":817,"o":"m 701 181 l 744 138 l 635 28 l 233 28 l 104 157 l 104 815 l 233 944 l 635 944 l 744 835 l 701 792 l 604 889 l 424 889 l 424 83 l 604 83 l 701 181 m 264 83 l 361 83 l 361 889 l 264 889 l 167 792 l 167 181 l 264 83 m 817 514 l 817 458 l 504 458 l 504 514 l 817 514 z "},"ૐ":{"ha":1465,"x_min":83,"x_max":1354,"o":"m 761 1167 l 610 1318 l 761 1469 l 913 1318 l 761 1167 m 685 1318 l 761 1242 l 838 1318 l 761 1394 l 685 1318 m 564 1014 l 463 1115 l 463 1236 l 525 1236 l 525 1139 l 594 1069 l 928 1069 l 997 1139 l 997 1236 l 1060 1236 l 1060 1115 l 958 1014 l 564 1014 m 1354 829 l 1354 199 l 1239 83 l 953 83 l 838 199 l 881 242 l 983 139 l 1063 139 l 1063 889 l 965 889 l 882 806 l 882 442 l 781 340 l 660 340 l 660 129 l 531 0 l 213 0 l 83 129 l 83 292 l 146 292 l 146 153 l 243 56 l 354 56 l 354 451 l 201 451 l 201 507 l 354 507 l 354 889 l 257 889 l 160 792 l 117 835 l 226 944 l 531 944 l 660 815 l 660 581 l 558 479 l 642 396 l 750 396 l 819 465 l 819 829 l 935 944 l 1239 944 l 1354 829 m 417 889 l 417 507 l 499 507 l 597 604 l 597 792 l 500 889 l 417 889 m 1292 806 l 1208 889 l 1125 889 l 1125 139 l 1208 139 l 1292 222 l 1292 806 m 597 354 l 500 451 l 417 451 l 417 56 l 500 56 l 597 153 l 597 354 z "},"૰":{"ha":604,"x_min":42,"x_max":535,"o":"m 535 343 l 535 101 l 433 0 l 143 0 l 42 101 l 42 343 l 143 444 l 433 444 l 535 343 m 174 56 l 257 56 l 257 389 l 174 389 l 104 319 l 104 125 l 174 56 m 472 319 l 403 389 l 319 389 l 319 56 l 403 56 l 472 125 l 472 319 z "},"૱":{"ha":1404,"x_min":69,"x_max":1363,"o":"m 629 944 l 758 815 l 758 586 l 657 486 l 758 385 l 758 129 l 629 0 l 453 0 l 453 -236 l 586 -236 l 586 -292 l 256 -292 l 154 -190 l 154 31 l 69 115 l 69 278 l 132 278 l 132 139 l 215 56 l 453 56 l 453 458 l 217 458 l 217 514 l 453 514 l 453 889 l 231 889 l 133 792 l 90 835 l 200 944 l 629 944 m 696 792 l 599 889 l 515 889 l 515 514 l 599 514 l 696 610 l 696 792 m 696 361 l 599 458 l 515 458 l 515 56 l 599 56 l 696 153 l 696 361 m 1363 343 l 1363 101 l 1261 0 l 971 0 l 869 101 l 869 343 l 971 444 l 1261 444 l 1363 343 m 1001 56 l 1085 56 l 1085 389 l 1001 389 l 932 319 l 932 125 l 1001 56 m 1300 319 l 1231 389 l 1147 389 l 1147 56 l 1231 56 l 1300 125 l 1300 319 m 390 0 l 217 0 l 217 -167 l 286 -236 l 390 -236 l 390 0 z "},"।":{"ha":667,"x_min":139,"x_max":681,"o":"m 681 56 l 681 0 l 379 0 l 250 129 l 250 889 l 139 889 l 139 944 l 440 944 l 569 815 l 569 56 l 681 56 m 410 56 l 507 56 l 507 792 l 410 889 l 313 889 l 313 153 l 410 56 z "},"॥":{"ha":1125,"x_min":139,"x_max":1139,"o":"m 681 56 l 681 0 l 379 0 l 250 129 l 250 889 l 139 889 l 139 944 l 440 944 l 569 815 l 569 56 l 681 56 m 410 56 l 507 56 l 507 792 l 410 889 l 313 889 l 313 153 l 410 56 m 1139 56 l 1139 0 l 838 0 l 708 129 l 708 889 l 597 889 l 597 944 l 899 944 l 1028 815 l 1028 56 l 1139 56 m 868 56 l 965 56 l 965 792 l 868 889 l 771 889 l 771 153 l 868 56 z "},"₹":{"ha":951,"x_min":69,"x_max":924,"o":"m 924 1056 l 683 1056 l 757 982 l 757 875 l 924 875 l 924 819 l 757 819 l 757 629 l 628 500 l 500 500 l 500 56 l 625 56 l 739 169 l 782 126 l 656 0 l 310 0 l 181 129 l 181 500 l 69 500 l 69 556 l 438 556 l 438 819 l 69 819 l 69 875 l 438 875 l 438 1056 l 69 1056 l 69 1111 l 924 1111 l 924 1056 m 597 1056 l 500 1056 l 500 556 l 597 556 l 694 653 l 694 958 l 597 1056 m 438 500 l 243 500 l 243 153 l 340 56 l 438 56 l 438 500 z "},"◌":{"ha":917,"x_min":61,"x_max":856,"o":"m 418 839 q 463 822 446 839 q 479 778 479 806 q 463 734 479 751 q 418 717 446 717 q 374 734 392 717 q 357 778 357 751 q 374 822 357 806 q 418 839 392 839 m 594 819 q 638 802 621 819 q 654 757 654 785 q 637 714 654 732 q 594 696 619 696 q 550 714 568 696 q 532 757 532 732 q 550 802 532 785 q 594 819 568 819 m 254 779 q 298 762 281 779 q 315 718 315 744 q 298 673 315 690 q 254 656 281 656 q 210 673 228 656 q 193 718 193 690 q 210 762 193 744 q 254 779 228 779 m 725 725 q 769 708 751 725 q 786 663 786 690 q 769 619 786 636 q 725 601 751 601 q 681 619 699 601 q 664 663 664 636 q 681 707 664 689 q 725 725 699 725 m 143 626 q 186 609 168 626 q 204 565 204 592 q 186 522 204 539 q 143 504 168 504 q 97 522 115 504 q 79 565 79 539 q 97 609 79 592 q 143 626 115 626 m 794 560 q 838 542 821 560 q 856 499 856 525 q 838 455 856 472 q 794 438 821 438 q 751 455 768 438 q 733 499 733 472 q 751 543 733 526 q 794 560 768 560 m 122 453 q 166 435 149 453 q 183 390 183 418 q 166 347 183 364 q 122 331 149 331 q 78 347 96 331 q 61 390 61 364 q 78 435 61 417 q 122 453 96 453 m 782 375 q 824 357 807 375 q 842 313 842 339 q 824 269 842 286 q 782 251 807 251 q 738 269 756 251 q 719 313 719 286 q 738 358 719 340 q 782 375 756 375 m 194 290 q 238 273 221 290 q 256 229 256 256 q 238 185 256 203 q 194 168 221 168 q 151 185 168 168 q 133 229 133 203 q 151 273 133 256 q 194 290 168 290 m 679 238 q 724 220 706 238 q 742 176 742 203 q 724 133 742 150 q 679 115 706 115 q 635 133 653 115 q 618 176 618 150 q 635 220 618 203 q 679 238 653 238 m 336 186 q 380 168 363 186 q 397 125 397 150 q 380 79 397 97 q 336 61 363 61 q 292 79 310 61 q 274 125 274 97 q 292 168 274 150 q 336 186 310 186 m 511 164 q 556 147 539 164 q 574 103 574 129 q 556 59 574 76 q 511 42 539 42 q 467 59 485 42 q 450 103 450 76 q 467 147 450 131 q 511 164 485 164 z "},"!":{"ha":472,"x_min":83,"x_max":389,"o":"m 389 681 l 389 1111 l 83 1111 l 83 679 l 151 361 l 321 361 l 389 681 m 268 417 l 204 417 l 146 689 l 146 1056 l 326 1056 l 326 690 l 268 417 m 104 0 l 368 0 l 368 250 l 104 250 l 104 0 m 167 194 l 306 194 l 306 56 l 167 56 l 167 194 z "},"\"":{"ha":583,"x_min":42,"x_max":542,"o":"m 42 861 l 250 861 l 250 1222 l 42 1222 l 42 861 m 333 861 l 542 861 l 542 1222 l 333 1222 l 333 861 m 188 1167 l 188 917 l 104 917 l 104 1167 l 188 1167 m 479 1167 l 479 917 l 396 917 l 396 1167 l 479 1167 z "},"#":{"ha":1101,"x_min":56,"x_max":1046,"o":"m 807 722 l 736 389 l 990 389 l 990 333 l 724 333 l 653 0 l 583 0 l 654 333 l 339 333 l 268 0 l 199 0 l 269 333 l 56 333 l 56 389 l 282 389 l 353 722 l 111 722 l 111 778 l 364 778 l 435 1111 l 504 1111 l 433 778 l 749 778 l 819 1111 l 889 1111 l 818 778 l 1046 778 l 1046 722 l 807 722 m 738 722 l 422 722 l 351 389 l 667 389 l 738 722 z "},"$":{"ha":1015,"x_min":69,"x_max":946,"o":"m 946 321 l 946 129 l 817 0 l 524 0 l 524 -181 l 461 -181 l 461 0 l 240 0 l 132 108 l 132 0 l 69 0 l 69 333 l 132 333 l 132 194 l 271 56 l 707 56 l 83 790 l 83 982 l 213 1111 l 507 1111 l 507 1292 l 569 1292 l 569 1111 l 747 1111 l 856 1003 l 856 1132 l 918 1132 l 918 778 l 856 778 l 856 917 l 717 1056 l 322 1056 l 946 321 m 883 300 l 243 1056 l 146 958 l 146 811 l 786 56 l 883 153 l 883 300 z "},"%":{"ha":1400,"x_min":56,"x_max":1344,"o":"m 531 667 l 157 667 l 56 768 l 56 1093 l 157 1194 l 531 1194 l 632 1093 l 632 768 l 531 667 m 1174 1139 l 240 -39 l 186 0 l 1119 1178 l 1174 1139 m 188 722 l 313 722 l 313 1139 l 188 1139 l 118 1069 l 118 792 l 188 722 m 500 722 l 569 792 l 569 1069 l 500 1139 l 375 1139 l 375 722 l 500 722 m 1344 426 l 1344 101 l 1243 0 l 869 0 l 768 101 l 768 426 l 869 528 l 1243 528 l 1344 426 m 900 56 l 1025 56 l 1025 472 l 900 472 l 831 403 l 831 125 l 900 56 m 1282 403 l 1213 472 l 1088 472 l 1088 56 l 1213 56 l 1282 125 l 1282 403 z "},"&":{"ha":1064,"x_min":69,"x_max":981,"o":"m 981 556 l 842 556 l 842 129 l 713 0 l 199 0 l 69 129 l 69 482 l 171 583 l 69 683 l 69 982 l 199 1111 l 718 1111 l 842 988 l 799 944 l 688 1056 l 389 1056 l 389 611 l 981 611 l 981 556 m 132 707 l 229 611 l 326 611 l 326 1056 l 229 1056 l 132 958 l 132 707 m 229 56 l 326 56 l 326 556 l 229 556 l 132 458 l 132 153 l 229 56 m 779 556 l 389 556 l 389 56 l 682 56 l 779 153 l 779 556 z "},"'":{"ha":292,"x_min":42,"x_max":250,"o":"m 42 861 l 250 861 l 250 1222 l 42 1222 l 42 861 m 188 1167 l 188 917 l 104 917 l 104 1167 l 188 1167 z "},"(":{"ha":379,"x_min":83,"x_max":396,"o":"m 160 438 q 396 1278 160 872 l 331 1314 q 144 886 204 1101 q 83 438 83 671 q 144 -11 83 204 q 331 -439 204 -226 l 396 -403 q 160 438 160 3 z "},")":{"ha":379,"x_min":-17,"x_max":296,"o":"m 219 438 q -17 -403 219 3 l 49 -439 q 235 -11 175 -226 q 296 438 296 204 q 235 886 296 671 q 49 1314 175 1101 l -17 1278 q 219 438 219 872 z "},"*":{"ha":461,"x_min":28,"x_max":433,"o":"m 206 943 q 175 960 194 951 l 47 1000 l 28 939 l 154 899 q 190 894 174 893 q 164 869 172 881 l 86 763 l 138 725 l 215 832 q 231 865 228 850 q 246 833 239 842 l 324 726 l 376 764 l 297 871 q 271 896 285 888 l 279 896 q 306 900 292 896 l 433 940 l 413 1001 l 286 960 q 256 943 272 956 q 263 978 263 961 l 263 1111 l 199 1111 l 199 978 q 206 943 199 961 z "},"+":{"ha":846,"x_min":69,"x_max":776,"o":"m 776 542 l 454 542 l 454 219 l 392 219 l 392 542 l 69 542 l 69 597 l 392 597 l 392 919 l 454 919 l 454 597 l 776 597 l 776 542 z "},",":{"ha":472,"x_min":111,"x_max":375,"o":"m 375 250 l 111 250 l 111 -206 l 375 -47 l 375 250 m 174 -94 l 174 194 l 313 194 l 313 -11 l 174 -94 z "},"-":{"ha":486,"x_min":69,"x_max":417,"o":"m 417 472 l 417 417 l 69 417 l 69 472 l 417 472 z "},".":{"ha":486,"x_min":111,"x_max":375,"o":"m 111 0 l 375 0 l 375 250 l 111 250 l 111 0 m 174 194 l 313 194 l 313 56 l 174 56 l 174 194 z "},"/":{"ha":653,"x_min":-7,"x_max":694,"o":"m -7 -139 l 632 1194 l 694 1167 l 56 -167 l -7 -139 z "},":":{"ha":472,"x_min":139,"x_max":403,"o":"m 139 0 l 403 0 l 403 250 l 139 250 l 139 0 m 201 194 l 340 194 l 340 56 l 201 56 l 201 194 m 139 528 l 403 528 l 403 778 l 139 778 l 139 528 m 201 722 l 340 722 l 340 583 l 201 583 l 201 722 z "},";":{"ha":472,"x_min":139,"x_max":403,"o":"m 139 528 l 403 528 l 403 778 l 139 778 l 139 528 m 201 722 l 340 722 l 340 583 l 201 583 l 201 722 m 403 250 l 139 250 l 139 -206 l 403 -47 l 403 250 m 201 -94 l 201 194 l 340 194 l 340 -11 l 201 -94 z "},"<":{"ha":819,"x_min":56,"x_max":750,"o":"m 142 581 l 750 358 l 731 303 l 56 549 l 56 611 l 731 857 l 750 801 l 142 581 z "},"=":{"ha":847,"x_min":69,"x_max":778,"o":"m 778 736 l 778 681 l 69 681 l 69 736 l 778 736 m 778 458 l 778 403 l 69 403 l 69 458 l 778 458 z "},">":{"ha":769,"x_min":69,"x_max":764,"o":"m 764 611 l 764 549 l 89 303 l 69 358 l 678 581 l 69 801 l 89 857 l 764 611 z "},"?":{"ha":769,"x_min":56,"x_max":728,"o":"m 728 996 l 728 685 l 613 569 l 471 569 l 471 361 l 207 361 l 207 625 l 408 625 l 408 1056 l 201 1056 l 118 972 l 118 871 l 56 871 l 56 996 l 171 1111 l 613 1111 l 728 996 m 665 972 l 582 1056 l 471 1056 l 471 625 l 582 625 l 665 708 l 665 972 m 408 569 l 269 569 l 269 417 l 408 417 l 408 569 m 207 250 l 471 250 l 471 0 l 207 0 l 207 250 m 269 56 l 408 56 l 408 194 l 269 194 l 269 56 z "},"@":{"ha":1451,"x_min":83,"x_max":1368,"o":"m 1368 831 l 1368 115 l 1253 0 l 949 0 l 865 85 l 781 0 l 456 0 l 340 115 l 340 621 l 456 736 l 739 736 l 833 642 l 833 736 l 1111 736 l 1111 56 l 1222 56 l 1306 139 l 1306 807 l 1167 946 l 285 946 l 146 807 l 146 -56 l 285 -194 l 1154 -194 l 1154 -250 l 254 -250 l 83 -79 l 83 831 l 254 1001 l 1197 1001 l 1368 831 m 486 56 l 563 56 l 563 681 l 486 681 l 403 597 l 403 139 l 486 56 m 833 139 l 833 556 l 708 681 l 625 681 l 625 56 l 750 56 l 833 139 m 979 56 l 1049 56 l 1049 681 l 896 681 l 896 139 l 979 56 z "},"A":{"ha":1235,"x_min":14,"x_max":1221,"o":"m 1221 56 l 1221 0 l 813 0 l 646 0 l 646 56 l 794 56 l 678 417 l 293 417 l 175 56 l 317 56 l 317 0 l 90 0 l 14 0 l 14 56 l 108 56 l 451 1111 l 783 1111 l 1126 56 l 1221 56 m 1061 56 l 736 1056 l 535 1056 l 860 56 l 1061 56 m 660 472 l 485 1008 l 311 472 l 660 472 z "},"B":{"ha":1046,"x_min":28,"x_max":976,"o":"m 976 685 l 861 569 l 976 454 l 976 129 l 847 0 l 28 0 l 28 56 l 139 56 l 139 1056 l 28 1056 l 28 1111 l 847 1111 l 976 982 l 976 685 m 201 56 l 396 56 l 396 1056 l 201 1056 l 201 56 m 657 1056 l 458 1056 l 458 597 l 657 597 l 657 1056 m 914 958 l 817 1056 l 719 1056 l 719 597 l 803 597 l 914 708 l 914 958 m 458 56 l 657 56 l 657 542 l 458 542 l 458 56 m 914 431 l 803 542 l 719 542 l 719 56 l 817 56 l 914 153 l 914 431 z "},"C":{"ha":1000,"x_min":69,"x_max":931,"o":"m 931 138 l 793 0 l 213 0 l 69 143 l 69 968 l 213 1111 l 761 1111 l 858 1014 l 858 1125 l 921 1125 l 921 864 l 921 750 l 858 750 l 858 928 l 731 1056 l 389 1056 l 389 56 l 763 56 l 888 181 l 931 138 m 243 56 l 326 56 l 326 1056 l 243 1056 l 132 944 l 132 167 l 243 56 z "},"D":{"ha":1097,"x_min":28,"x_max":1028,"o":"m 1028 968 l 1028 143 l 885 0 l 28 0 l 28 56 l 139 56 l 139 1056 l 28 1056 l 28 1111 l 885 1111 l 1028 968 m 201 56 l 396 56 l 396 1056 l 201 1056 l 201 56 m 458 1056 l 458 56 l 708 56 l 708 1056 l 458 1056 m 965 944 l 854 1056 l 771 1056 l 771 56 l 854 56 l 965 167 l 965 944 z "},"E":{"ha":1004,"x_min":28,"x_max":921,"o":"m 858 792 l 858 1056 l 458 1056 l 458 597 l 817 597 l 817 542 l 458 542 l 458 56 l 858 56 l 858 319 l 921 319 l 921 0 l 858 0 l 28 0 l 28 56 l 139 56 l 139 1056 l 28 1056 l 28 1111 l 889 1111 l 921 1111 l 921 792 l 858 792 m 396 1056 l 201 1056 l 201 56 l 396 56 l 396 1056 z "},"F":{"ha":935,"x_min":28,"x_max":907,"o":"m 907 792 l 844 792 l 844 1056 l 458 1056 l 458 569 l 789 569 l 789 514 l 458 514 l 458 56 l 569 56 l 569 0 l 28 0 l 28 56 l 139 56 l 139 1056 l 28 1056 l 28 1111 l 907 1111 l 907 792 m 396 1056 l 201 1056 l 201 56 l 396 56 l 396 1056 z "},"G":{"ha":1160,"x_min":111,"x_max":1118,"o":"m 1118 514 l 1021 514 l 1021 0 l 844 0 l 740 106 l 635 0 l 254 0 l 111 143 l 111 968 l 254 1111 l 817 1111 l 914 1014 l 914 1125 l 976 1125 l 976 864 l 976 778 l 914 778 l 914 928 l 786 1056 l 431 1056 l 431 56 l 604 56 l 708 160 l 708 514 l 597 514 l 597 569 l 1118 569 l 1118 514 m 285 56 l 368 56 l 368 1056 l 285 1056 l 174 944 l 174 167 l 285 56 m 958 514 l 771 514 l 771 160 l 875 56 l 958 56 l 958 514 z "},"H":{"ha":1236,"x_min":28,"x_max":1208,"o":"m 1097 1056 l 1097 56 l 1208 56 l 1208 0 l 681 0 l 681 56 l 778 56 l 778 542 l 458 542 l 458 56 l 556 56 l 556 0 l 28 0 l 28 56 l 139 56 l 139 1056 l 28 1056 l 28 1111 l 556 1111 l 556 1056 l 458 1056 l 458 597 l 778 597 l 778 1056 l 681 1056 l 681 1111 l 1208 1111 l 1208 1056 l 1097 1056 m 396 56 l 396 1056 l 201 1056 l 201 56 l 396 56 m 1035 1056 l 840 1056 l 840 56 l 1035 56 l 1035 1056 z "},"I":{"ha":597,"x_min":28,"x_max":569,"o":"m 458 1056 l 458 56 l 569 56 l 569 0 l 28 0 l 28 56 l 139 56 l 139 1056 l 28 1056 l 28 1111 l 569 1111 l 569 1056 l 458 1056 m 396 1056 l 201 1056 l 201 56 l 396 56 l 396 1056 z "},"J":{"ha":590,"x_min":-236,"x_max":563,"o":"m 563 1056 l 465 1056 l 465 -121 l 336 -250 l -107 -250 l -236 -121 l -193 -78 l -76 -194 l 146 -194 l 146 1056 l 35 1056 l 35 1111 l 563 1111 l 563 1056 m 403 1056 l 208 1056 l 208 -194 l 306 -194 l 403 -97 l 403 1056 z "},"K":{"ha":1192,"x_min":28,"x_max":1206,"o":"m 458 56 l 556 56 l 556 0 l 28 0 l 28 56 l 139 56 l 139 1056 l 28 1056 l 28 1111 l 556 1111 l 556 1056 l 458 1056 l 458 56 m 1206 56 l 1206 0 l 1046 0 l 765 0 l 507 529 l 507 583 l 890 1056 l 767 1056 l 767 1111 l 967 1111 l 1108 1111 l 1108 1056 l 967 1056 l 585 583 l 851 583 l 1108 56 l 1206 56 m 201 56 l 396 56 l 396 1056 l 201 1056 l 201 56 m 1040 56 l 810 528 l 574 528 l 804 56 l 1040 56 z "},"L":{"ha":986,"x_min":28,"x_max":944,"o":"m 944 319 l 944 0 l 882 0 l 28 0 l 28 56 l 139 56 l 139 1056 l 28 1056 l 28 1111 l 569 1111 l 569 1056 l 458 1056 l 458 56 l 882 56 l 882 319 l 944 319 m 201 56 l 396 56 l 396 1056 l 201 1056 l 201 56 z "},"M":{"ha":1575,"x_min":42,"x_max":1533,"o":"m 1436 1056 l 1436 56 l 1533 56 l 1533 0 l 978 0 l 978 56 l 1117 56 l 1117 1047 l 843 0 l 517 0 l 215 1053 l 215 56 l 354 56 l 354 0 l 42 0 l 42 56 l 153 56 l 153 1056 l 42 1056 l 42 1111 l 326 1111 l 525 1111 l 810 117 l 1069 1111 l 1133 1111 l 1533 1111 l 1533 1056 l 1436 1056 m 765 56 l 478 1056 l 276 1056 l 564 56 l 765 56 m 1374 1056 l 1179 1056 l 1179 56 l 1374 56 l 1374 1056 z "},"N":{"ha":1242,"x_min":28,"x_max":1214,"o":"m 1214 1056 l 1103 1056 l 1103 0 l 1040 0 l 728 0 l 201 1056 l 201 56 l 313 56 l 313 0 l 28 0 l 28 56 l 139 56 l 139 1056 l 28 1056 l 28 1111 l 313 1111 l 514 1111 l 1040 56 l 1040 1056 l 929 1056 l 929 1111 l 1214 1111 l 1214 1056 m 974 56 l 475 1056 l 268 1056 l 767 56 l 974 56 z "},"O":{"ha":1049,"x_min":69,"x_max":979,"o":"m 979 968 l 979 143 l 836 0 l 213 0 l 69 143 l 69 968 l 213 1111 l 836 1111 l 979 968 m 243 56 l 326 56 l 326 1056 l 243 1056 l 132 944 l 132 167 l 243 56 m 389 1056 l 389 56 l 660 56 l 660 1056 l 389 1056 m 917 944 l 806 1056 l 722 1056 l 722 56 l 806 56 l 917 167 l 917 944 z "},"P":{"ha":1129,"x_min":69,"x_max":1060,"o":"m 1060 982 l 1060 615 l 917 472 l 500 472 l 500 56 l 611 56 l 611 0 l 69 0 l 69 56 l 181 56 l 181 1056 l 69 1056 l 69 1111 l 931 1111 l 1060 982 m 438 56 l 438 1056 l 243 1056 l 243 56 l 438 56 m 500 528 l 740 528 l 740 1056 l 500 1056 l 500 528 m 997 958 l 900 1056 l 803 1056 l 803 528 l 886 528 l 997 639 l 997 958 z "},"Q":{"ha":1000,"x_min":69,"x_max":931,"o":"m 674 -1 l 674 -264 l 813 -264 l 813 -319 l 456 -318 l 326 -189 l 326 0 l 213 0 l 69 143 l 69 968 l 213 1111 l 788 1110 l 931 967 l 931 142 l 788 -1 l 674 -1 m 326 56 l 326 1056 l 243 1056 l 132 944 l 132 167 l 243 56 l 326 56 m 611 1054 l 389 1056 l 389 56 l 611 54 l 611 1054 m 757 1054 l 674 1054 l 674 54 l 757 54 l 868 165 l 868 943 l 757 1054 m 611 -1 l 389 0 l 389 -165 l 486 -262 l 611 -262 l 611 -1 z "},"R":{"ha":1157,"x_min":69,"x_max":1157,"o":"m 1157 56 l 1157 0 l 842 0 l 726 115 l 726 528 l 500 528 l 500 56 l 611 56 l 611 0 l 69 0 l 69 56 l 181 56 l 181 1056 l 69 1056 l 69 1111 l 917 1111 l 1046 982 l 1046 671 l 931 556 l 1046 440 l 1046 56 l 1157 56 m 438 56 l 438 1056 l 243 1056 l 243 56 l 438 56 m 726 1056 l 500 1056 l 500 583 l 726 583 l 726 1056 m 886 1056 l 789 1056 l 789 583 l 872 583 l 983 694 l 983 958 l 886 1056 m 872 56 l 983 56 l 983 417 l 872 528 l 789 528 l 789 139 l 872 56 z "},"S":{"ha":1015,"x_min":69,"x_max":946,"o":"m 946 321 l 946 129 l 817 0 l 229 0 l 132 97 l 132 -14 l 69 -14 l 69 247 l 69 333 l 132 333 l 132 183 l 260 56 l 707 56 l 83 790 l 83 982 l 213 1111 l 758 1111 l 856 1014 l 856 1125 l 918 1125 l 918 864 l 918 778 l 856 778 l 856 928 l 728 1056 l 322 1056 l 946 321 m 883 300 l 243 1056 l 146 958 l 146 811 l 786 56 l 883 153 l 883 300 z "},"T":{"ha":1083,"x_min":69,"x_max":1014,"o":"m 1014 792 l 951 792 l 951 1056 l 701 1056 l 701 56 l 813 56 l 813 0 l 271 0 l 271 56 l 382 56 l 382 1056 l 132 1056 l 132 792 l 69 792 l 69 1111 l 132 1111 l 1014 1111 l 1014 792 m 639 1056 l 444 1056 l 444 56 l 639 56 l 639 1056 z "},"U":{"ha":1150,"x_min":42,"x_max":1108,"o":"m 1108 1056 l 997 1056 l 997 143 l 854 0 l 296 0 l 153 143 l 153 1056 l 42 1056 l 42 1111 l 583 1111 l 583 1056 l 472 1056 l 472 56 l 824 56 l 935 167 l 935 1056 l 824 1056 l 824 1111 l 1108 1111 l 1108 1056 m 326 56 l 410 56 l 410 1056 l 215 1056 l 215 167 l 326 56 z "},"V":{"ha":1165,"x_min":14,"x_max":1151,"o":"m 1151 1056 l 1058 1056 l 749 0 l 417 0 l 107 1056 l 14 1056 l 14 1111 l 422 1111 l 589 1111 l 589 1056 l 439 1056 l 715 114 l 992 1056 l 842 1056 l 842 1111 l 1075 1111 l 1151 1111 l 1151 1056 m 665 56 l 375 1056 l 174 1056 l 464 56 l 665 56 z "},"W":{"ha":1704,"x_min":14,"x_max":1690,"o":"m 1690 1056 l 1599 1056 l 1315 0 l 983 0 l 851 489 l 721 0 l 389 0 l 106 1056 l 14 1056 l 14 1111 l 422 1111 l 540 1111 l 1017 1111 l 1135 1111 l 1135 1056 l 1032 1056 l 1282 124 l 1532 1056 l 1381 1056 l 1381 1111 l 1614 1111 l 1690 1111 l 1690 1056 m 638 56 l 375 1056 l 174 1056 l 436 56 l 638 56 m 819 611 l 700 1056 l 511 1056 l 438 1056 l 688 124 l 819 611 m 1232 56 l 969 1056 l 768 1056 l 1031 56 l 1232 56 z "},"X":{"ha":1290,"x_min":38,"x_max":1235,"o":"m 1235 56 l 1235 0 l 786 0 l 619 0 l 619 56 l 753 56 l 515 450 l 232 56 l 363 56 l 363 0 l 38 0 l 38 56 l 157 56 l 481 507 l 151 1056 l 56 1056 l 56 1111 l 504 1111 l 668 1111 l 668 1056 l 538 1056 l 738 724 l 976 1056 l 843 1056 l 843 1111 l 1168 1111 l 1168 1056 l 1051 1056 l 772 667 l 1139 56 l 1235 56 m 1069 56 l 468 1056 l 221 1056 l 822 56 l 1069 56 z "},"Y":{"ha":1069,"x_min":-14,"x_max":1056,"o":"m 693 528 l 693 56 l 804 56 l 804 0 l 263 0 l 263 56 l 374 56 l 374 475 l 90 1056 l -14 1056 l -14 1111 l 521 1111 l 521 1056 l 436 1056 l 660 597 l 882 1056 l 760 1056 l 760 1111 l 1056 1111 l 1056 1056 l 950 1056 l 693 528 m 631 56 l 631 517 l 368 1056 l 158 1056 l 436 486 l 436 56 l 631 56 z "},"Z":{"ha":1078,"x_min":56,"x_max":1022,"o":"m 944 319 l 1007 319 l 1007 0 l 944 0 l 99 0 l 56 51 l 626 1056 l 157 1056 l 157 792 l 94 792 l 94 1111 l 157 1111 l 978 1111 l 1022 1058 l 453 56 l 944 56 l 944 319 m 156 56 l 376 56 l 936 1042 l 922 1056 l 703 1056 l 143 69 l 156 56 z "},"[":{"ha":583,"x_min":97,"x_max":569,"o":"m 417 1222 l 417 -347 l 569 -347 l 569 -403 l 213 -403 l 97 -287 l 97 1163 l 213 1278 l 569 1278 l 569 1222 l 417 1222 m 354 1222 l 243 1222 l 160 1139 l 160 -264 l 243 -347 l 354 -347 l 354 1222 z "},"\\":{"ha":653,"x_min":-42,"x_max":660,"o":"m -42 1167 l 21 1194 l 660 -139 l 597 -167 l -42 1167 z "},"]":{"ha":583,"x_min":14,"x_max":486,"o":"m 486 1163 l 486 -287 l 371 -403 l 14 -403 l 14 -347 l 167 -347 l 167 1222 l 14 1222 l 14 1278 l 371 1278 l 486 1163 m 424 1139 l 340 1222 l 229 1222 l 229 -347 l 340 -347 l 424 -264 l 424 1139 z "},"_":{"ha":806,"x_min":42,"x_max":764,"o":"m 764 -56 l 764 -111 l 42 -111 l 42 -56 l 764 -56 z "},"a":{"ha":1014,"x_min":83,"x_max":986,"o":"m 986 56 l 986 0 l 671 0 l 588 85 l 503 0 l 199 0 l 83 115 l 83 329 l 199 444 l 556 444 l 556 778 l 410 778 l 410 556 l 118 556 l 118 718 l 233 833 l 760 833 l 875 718 l 875 56 l 986 56 m 347 778 l 264 778 l 181 694 l 181 611 l 347 611 l 347 778 m 701 56 l 813 56 l 813 694 l 729 778 l 618 778 l 618 139 l 701 56 m 229 56 l 347 56 l 347 389 l 229 389 l 146 306 l 146 139 l 229 56 m 556 139 l 556 389 l 410 389 l 410 56 l 472 56 l 556 139 z "},"b":{"ha":1043,"x_min":0,"x_max":974,"o":"m 974 704 l 974 129 l 844 0 l 497 0 l 400 99 l 301 0 l 111 0 l 111 56 l 111 1167 l 0 1167 l 0 1222 l 301 1222 l 431 1093 l 431 758 l 506 833 l 844 833 l 974 704 m 368 1069 l 271 1167 l 174 1167 l 174 56 l 271 56 l 368 153 l 368 1069 m 528 56 l 647 56 l 647 778 l 536 778 l 431 672 l 431 153 l 528 56 m 911 681 l 814 778 l 710 778 l 710 56 l 814 56 l 911 153 l 911 681 z "},"c":{"ha":840,"x_min":56,"x_max":799,"o":"m 521 556 l 521 778 l 375 778 l 375 56 l 639 56 l 749 165 l 792 122 l 669 0 l 185 0 l 56 129 l 56 704 l 185 833 l 697 833 l 799 732 l 799 556 l 521 556 m 313 778 l 215 778 l 118 681 l 118 153 l 215 56 l 313 56 l 313 778 m 583 611 l 736 611 l 736 708 l 667 778 l 583 778 l 583 611 z "},"d":{"ha":1057,"x_min":69,"x_max":1043,"o":"m 1043 56 l 1043 0 l 742 0 l 644 99 l 546 0 l 199 0 l 69 129 l 69 704 l 199 833 l 538 833 l 613 758 l 613 1167 l 501 1167 l 501 1222 l 803 1222 l 932 1093 l 932 56 l 1043 56 m 772 56 l 869 56 l 869 1069 l 772 1167 l 675 1167 l 675 153 l 772 56 m 229 56 l 333 56 l 333 778 l 229 778 l 132 681 l 132 153 l 229 56 m 613 153 l 613 672 l 507 778 l 396 778 l 396 56 l 515 56 l 613 153 z "},"e":{"ha":917,"x_min":69,"x_max":868,"o":"m 868 129 l 739 0 l 199 0 l 69 129 l 69 704 l 199 833 l 732 833 l 861 704 l 861 476 l 732 347 l 389 347 l 389 56 l 708 56 l 825 172 l 868 129 m 229 56 l 326 56 l 326 778 l 229 778 l 132 681 l 132 153 l 229 56 m 389 403 l 542 403 l 542 778 l 389 778 l 389 403 m 701 778 l 604 778 l 604 403 l 701 403 l 799 500 l 799 681 l 701 778 z "},"f":{"ha":646,"x_min":28,"x_max":701,"o":"m 458 1167 l 458 833 l 639 833 l 639 778 l 458 778 l 458 129 l 329 0 l 28 0 l 28 56 l 139 56 l 139 778 l 28 778 l 28 833 l 139 833 l 139 1093 l 268 1222 l 586 1222 l 701 1107 l 658 1064 l 556 1167 l 458 1167 m 396 1167 l 299 1167 l 201 1069 l 201 56 l 299 56 l 396 153 l 396 1167 z "},"g":{"ha":1000,"x_min":69,"x_max":931,"o":"m 931 833 l 931 778 l 931 -218 l 801 -347 l 185 -347 l 69 -232 l 69 -69 l 382 -69 l 382 -292 l 611 -292 l 611 150 l 544 83 l 206 83 l 76 213 l 76 704 l 206 833 l 544 833 l 643 736 l 740 833 l 931 833 m 236 139 l 326 139 l 326 778 l 236 778 l 139 681 l 139 236 l 236 139 m 611 236 l 611 681 l 514 778 l 389 778 l 389 139 l 514 139 l 611 236 m 868 778 l 771 778 l 674 681 l 674 -292 l 771 -292 l 868 -194 l 868 778 m 215 -292 l 319 -292 l 319 -125 l 132 -125 l 132 -208 l 215 -292 z "},"h":{"ha":1076,"x_min":0,"x_max":1063,"o":"m 1063 56 l 1063 0 l 761 0 l 632 129 l 632 778 l 521 778 l 431 688 l 431 56 l 514 56 l 514 0 l 240 0 l 111 129 l 111 1167 l 0 1167 l 0 1222 l 301 1222 l 431 1093 l 431 774 l 490 833 l 822 833 l 951 704 l 951 56 l 1063 56 m 368 56 l 368 1069 l 271 1167 l 174 1167 l 174 153 l 271 56 l 368 56 m 792 56 l 889 56 l 889 681 l 792 778 l 694 778 l 694 153 l 792 56 z "},"i":{"ha":597,"x_min":28,"x_max":569,"o":"m 281 944 l 69 1157 l 282 1368 l 493 1156 l 281 944 m 153 1157 l 281 1028 l 410 1156 l 282 1285 l 153 1157 m 569 56 l 569 0 l 268 0 l 139 129 l 139 778 l 28 778 l 28 833 l 329 833 l 458 704 l 458 56 l 569 56 m 299 56 l 396 56 l 396 681 l 299 778 l 201 778 l 201 153 l 299 56 z "},"j":{"ha":639,"x_min":-83,"x_max":528,"o":"m 315 944 l 104 1157 l 317 1368 l 528 1156 l 315 944 m 188 1157 l 315 1028 l 444 1156 l 317 1285 l 188 1157 m 364 833 l 493 704 l 493 -218 l 364 -347 l 32 -347 l -83 -232 l -40 -189 l 63 -292 l 174 -292 l 174 778 l 63 778 l 63 833 l 364 833 m 431 681 l 333 778 l 236 778 l 236 -292 l 333 -292 l 431 -194 l 431 681 z "},"k":{"ha":1079,"x_min":14,"x_max":1058,"o":"m 315 1222 l 444 1093 l 444 25 l 444 0 l 254 0 l 125 129 l 125 1167 l 14 1167 l 14 1222 l 315 1222 m 382 1069 l 285 1167 l 188 1167 l 188 153 l 285 56 l 382 56 l 382 1069 m 1058 56 l 1058 0 l 929 0 l 667 0 l 479 418 l 479 472 l 793 833 l 825 833 l 953 833 l 953 778 l 825 778 l 560 472 l 803 472 l 989 56 l 1058 56 m 924 56 l 761 417 l 546 417 l 708 56 l 924 56 z "},"l":{"ha":542,"x_min":0,"x_max":514,"o":"m 514 56 l 514 0 l 226 0 l 97 129 l 97 1167 l 0 1167 l 0 1222 l 288 1222 l 417 1093 l 417 56 l 514 56 m 257 56 l 354 56 l 354 1069 l 257 1167 l 160 1167 l 160 153 l 257 56 z "},"m":{"ha":1646,"x_min":42,"x_max":1604,"o":"m 1604 56 l 1604 0 l 1296 0 l 1181 115 l 1181 778 l 1083 778 l 986 681 l 986 56 l 1069 56 l 1069 0 l 667 0 l 667 778 l 569 778 l 472 681 l 472 56 l 556 56 l 556 0 l 42 0 l 42 56 l 153 56 l 153 778 l 42 778 l 42 833 l 343 833 l 442 736 l 539 833 l 857 833 l 956 736 l 1053 833 l 1364 833 l 1493 704 l 1493 56 l 1604 56 m 410 56 l 410 681 l 313 778 l 215 778 l 215 56 l 410 56 m 924 56 l 924 681 l 826 778 l 729 778 l 729 56 l 924 56 m 1326 56 l 1431 56 l 1431 681 l 1333 778 l 1243 778 l 1243 139 l 1326 56 z "},"n":{"ha":1111,"x_min":28,"x_max":1083,"o":"m 1083 56 l 1083 0 l 768 0 l 653 115 l 653 778 l 556 778 l 458 681 l 458 56 l 528 56 l 528 0 l 28 0 l 28 56 l 139 56 l 139 778 l 28 778 l 28 833 l 329 833 l 428 736 l 525 833 l 843 833 l 972 704 l 972 56 l 1083 56 m 396 56 l 396 681 l 299 778 l 201 778 l 201 56 l 396 56 m 799 56 l 910 56 l 910 681 l 813 778 l 715 778 l 715 139 l 799 56 z "},"o":{"ha":936,"x_min":69,"x_max":867,"o":"m 867 690 l 867 143 l 724 0 l 213 0 l 69 143 l 69 690 l 213 833 l 724 833 l 867 690 m 243 56 l 340 56 l 340 778 l 243 778 l 132 667 l 132 167 l 243 56 m 403 778 l 403 56 l 533 56 l 533 778 l 403 778 m 804 667 l 693 778 l 596 778 l 596 56 l 693 56 l 804 167 l 804 667 z "},"p":{"ha":1049,"x_min":28,"x_max":979,"o":"m 979 704 l 979 129 l 850 0 l 525 0 l 458 67 l 458 -403 l 556 -403 l 556 -458 l 268 -458 l 139 -329 l 139 778 l 28 778 l 28 833 l 329 833 l 428 736 l 525 833 l 850 833 l 979 704 m 396 -403 l 396 681 l 299 778 l 201 778 l 201 -306 l 299 -403 l 396 -403 m 556 56 l 653 56 l 653 778 l 556 778 l 458 681 l 458 153 l 556 56 m 917 681 l 819 778 l 715 778 l 715 56 l 819 56 l 917 153 l 917 681 z "},"q":{"ha":1049,"x_min":69,"x_max":1007,"o":"m 1007 -389 l 1007 -444 l 719 -444 l 590 -315 l 590 67 l 524 0 l 199 0 l 69 129 l 69 704 l 199 833 l 524 833 l 622 736 l 719 833 l 910 833 l 910 778 l 910 -389 l 1007 -389 m 229 56 l 333 56 l 333 778 l 229 778 l 132 681 l 132 153 l 229 56 m 590 153 l 590 681 l 493 778 l 396 778 l 396 56 l 493 56 l 590 153 m 750 -389 l 847 -389 l 847 778 l 750 778 l 653 681 l 653 -292 l 750 -389 z "},"r":{"ha":806,"x_min":28,"x_max":806,"o":"m 806 732 l 763 689 l 674 778 l 556 778 l 458 681 l 458 56 l 569 56 l 569 0 l 268 0 l 139 129 l 139 778 l 28 778 l 28 833 l 329 833 l 428 736 l 525 833 l 704 833 l 806 732 m 396 56 l 396 681 l 299 778 l 201 778 l 201 153 l 299 56 l 396 56 z "},"s":{"ha":890,"x_min":83,"x_max":793,"o":"m 793 283 l 793 115 l 678 0 l 240 0 l 146 94 l 146 -14 l 83 -14 l 83 285 l 146 285 l 146 181 l 271 56 l 564 56 l 97 550 l 97 718 l 213 833 l 622 833 l 717 739 l 717 847 l 779 847 l 779 549 l 717 549 l 717 653 l 592 778 l 326 778 l 793 283 m 731 261 l 243 778 l 160 694 l 160 572 l 647 56 l 731 139 l 731 261 z "},"t":{"ha":674,"x_min":14,"x_max":646,"o":"m 646 129 l 517 0 l 240 0 l 111 129 l 111 1014 l 14 1014 l 14 1069 l 294 1069 l 410 954 l 410 750 l 604 750 l 604 694 l 410 694 l 410 56 l 486 56 l 603 172 l 646 129 m 271 56 l 347 56 l 347 931 l 264 1014 l 174 1014 l 174 153 l 271 56 z "},"u":{"ha":1104,"x_min":28,"x_max":1076,"o":"m 1076 56 l 1076 0 l 775 0 l 678 99 l 579 0 l 268 0 l 139 129 l 139 778 l 28 778 l 28 833 l 322 833 l 451 704 l 451 56 l 549 56 l 646 153 l 646 808 l 646 833 l 836 833 l 965 704 l 965 56 l 1076 56 m 299 56 l 389 56 l 389 681 l 292 778 l 201 778 l 201 153 l 299 56 m 806 56 l 903 56 l 903 681 l 806 778 l 708 778 l 708 153 l 806 56 z "},"v":{"ha":1068,"x_min":28,"x_max":1040,"o":"m 1040 778 l 946 778 l 693 0 l 375 0 l 122 778 l 28 778 l 28 833 l 422 833 l 540 833 l 540 778 l 440 778 l 660 103 l 879 778 l 779 778 l 779 833 l 964 833 l 1040 833 l 1040 778 m 610 56 l 375 778 l 188 778 l 422 56 l 610 56 z "},"w":{"ha":1522,"x_min":14,"x_max":1508,"o":"m 1508 778 l 1417 778 l 1208 0 l 890 0 l 763 478 l 633 0 l 315 0 l 107 778 l 14 778 l 14 833 l 410 833 l 501 833 l 501 778 l 425 778 l 600 125 l 728 603 l 682 778 l 588 778 l 588 833 l 985 833 l 1079 833 l 1079 778 l 1000 778 l 1175 124 l 1350 778 l 1226 778 l 1226 833 l 1432 833 l 1508 833 l 1508 778 m 550 56 l 357 778 l 169 778 l 363 56 l 550 56 m 1125 56 l 932 778 l 744 778 l 938 56 l 1125 56 z "},"x":{"ha":1013,"x_min":14,"x_max":985,"o":"m 985 56 l 985 0 l 599 0 l 463 0 l 463 56 l 564 56 l 389 329 l 197 56 l 297 56 l 297 0 l 83 0 l 28 0 l 28 56 l 122 56 l 354 386 l 104 778 l 14 778 l 14 833 l 400 833 l 518 833 l 518 778 l 435 778 l 588 539 l 754 778 l 682 778 l 682 833 l 868 833 l 929 833 l 929 778 l 829 778 l 622 483 l 894 56 l 985 56 m 822 56 l 364 778 l 176 778 l 635 56 l 822 56 z "},"y":{"ha":1035,"x_min":28,"x_max":965,"o":"m 965 704 l 965 -218 l 836 -347 l 233 -347 l 118 -232 l 118 -69 l 438 -69 l 438 -292 l 646 -292 l 646 150 l 579 83 l 268 83 l 139 213 l 139 778 l 28 778 l 28 833 l 322 833 l 451 704 l 451 139 l 549 139 l 646 236 l 646 778 l 549 778 l 549 833 l 836 833 l 965 704 m 299 139 l 389 139 l 389 681 l 292 778 l 201 778 l 201 236 l 299 139 m 903 681 l 806 778 l 708 778 l 708 -292 l 806 -292 l 903 -194 l 903 681 m 264 -292 l 375 -292 l 375 -125 l 181 -125 l 181 -208 l 264 -292 z "},"z":{"ha":889,"x_min":44,"x_max":844,"o":"m 767 250 l 829 250 l 829 0 l 767 0 l 88 0 l 44 51 l 476 778 l 146 778 l 146 583 l 83 583 l 83 833 l 146 833 l 800 833 l 844 781 l 414 56 l 767 56 l 767 250 m 144 56 l 338 56 l 758 764 l 744 778 l 553 778 l 132 69 l 144 56 z "},"{":{"ha":653,"x_min":56,"x_max":611,"o":"m 500 567 l 371 438 l 500 308 l 500 -347 l 611 -347 l 611 -403 l 310 -403 l 181 -274 l 181 410 l 56 410 l 56 465 l 181 465 l 181 1149 l 310 1278 l 611 1278 l 611 1222 l 500 1222 l 500 567 m 438 590 l 438 1222 l 340 1222 l 243 1125 l 243 465 l 313 465 l 438 590 m 438 285 l 313 410 l 243 410 l 243 -250 l 340 -347 l 438 -347 l 438 285 z "},"|":{"ha":285,"x_min":111,"x_max":174,"o":"m 174 1194 l 174 -347 l 111 -347 l 111 1194 l 174 1194 z "},"}":{"ha":653,"x_min":42,"x_max":597,"o":"m 597 410 l 472 410 l 472 -274 l 343 -403 l 42 -403 l 42 -347 l 153 -347 l 153 308 l 282 438 l 153 567 l 153 1222 l 42 1222 l 42 1278 l 343 1278 l 472 1149 l 472 465 l 597 465 l 597 410 m 215 590 l 340 465 l 410 465 l 410 1125 l 313 1222 l 215 1222 l 215 590 m 410 410 l 340 410 l 215 285 l 215 -347 l 313 -347 l 410 -250 l 410 410 z "},"~":{"ha":1007,"x_min":83,"x_max":963,"o":"m 239 528 l 83 372 l 126 329 l 269 472 l 436 472 l 579 329 l 807 329 l 963 485 l 919 528 l 776 385 l 610 385 l 467 528 l 239 528 z "},"¡":{"ha":472,"x_min":83,"x_max":389,"o":"m 368 583 l 368 833 l 104 833 l 104 583 l 368 583 m 306 778 l 306 639 l 167 639 l 167 778 l 306 778 m 151 472 l 83 154 l 83 -278 l 389 -278 l 389 153 l 321 472 l 151 472 m 326 -222 l 146 -222 l 146 144 l 204 417 l 268 417 l 326 143 l 326 -222 z "},"¢":{"ha":931,"x_min":56,"x_max":801,"o":"m 758 167 l 801 124 l 678 0 l 504 0 l 504 -181 l 442 -181 l 442 0 l 185 0 l 56 129 l 56 704 l 185 833 l 442 833 l 442 1014 l 504 1014 l 504 833 l 678 833 l 801 710 l 758 667 l 647 778 l 354 778 l 354 56 l 647 56 l 758 167 m 215 56 l 292 56 l 292 778 l 215 778 l 118 681 l 118 153 l 215 56 z "},"£":{"ha":1008,"x_min":69,"x_max":953,"o":"m 953 143 l 810 0 l 69 0 l 69 56 l 208 56 l 208 472 l 69 472 l 69 528 l 208 528 l 208 926 l 338 1056 l 704 1056 l 814 946 l 771 903 l 674 1000 l 528 1000 l 528 528 l 778 528 l 778 472 l 528 472 l 528 129 l 454 56 l 779 56 l 910 186 l 953 143 m 271 56 l 368 56 l 465 153 l 465 1000 l 368 1000 l 271 903 l 271 56 z "},"¤":{"ha":753,"x_min":42,"x_max":711,"o":"m 610 363 l 711 261 l 669 219 l 568 321 l 525 278 l 228 278 l 185 321 l 83 219 l 42 261 l 143 363 l 99 407 l 99 704 l 142 747 l 42 847 l 83 889 l 183 789 l 228 833 l 525 833 l 569 789 l 669 889 l 711 847 l 611 747 l 654 704 l 654 407 l 610 363 m 592 431 l 592 681 l 494 778 l 258 778 l 161 681 l 161 431 l 258 333 l 494 333 l 592 431 z "},"¥":{"ha":1069,"x_min":-14,"x_max":1056,"o":"m 949 1000 l 693 500 l 929 500 l 929 444 l 693 444 l 693 333 l 929 333 l 929 278 l 693 278 l 693 56 l 804 56 l 804 0 l 263 0 l 263 56 l 374 56 l 374 278 l 138 278 l 138 333 l 374 333 l 374 444 l 138 444 l 138 500 l 347 500 l 90 1000 l -14 1000 l -14 1056 l 521 1056 l 521 1000 l 436 1000 l 658 567 l 881 1000 l 760 1000 l 760 1056 l 1056 1056 l 1056 1000 l 949 1000 m 631 56 l 631 489 l 368 1000 l 158 1000 l 436 458 l 436 56 l 631 56 z "},"¦":{"ha":285,"x_min":111,"x_max":174,"o":"m 111 1194 l 174 1194 l 174 667 l 111 667 l 111 1194 m 174 -167 l 111 -167 l 111 361 l 174 361 l 174 -167 z "},"§":{"ha":1008,"x_min":83,"x_max":925,"o":"m 925 589 l 925 265 l 863 233 l 90 833 l 90 996 l 192 1111 l 758 1111 l 856 1014 l 856 1125 l 918 1125 l 918 864 l 918 792 l 856 792 l 856 928 l 728 1056 l 325 1056 l 925 589 m 863 313 l 863 558 l 222 1056 l 153 972 l 153 864 l 863 313 m 153 632 l 925 32 l 925 -131 l 824 -246 l 243 -246 l 146 -149 l 146 -260 l 83 -260 l 83 1 l 83 74 l 146 74 l 146 -62 l 274 -190 l 690 -190 l 90 276 l 90 588 l 153 632 m 153 553 l 153 307 l 793 -190 l 863 -107 l 863 1 l 153 553 z "},"©":{"ha":1264,"x_min":97,"x_max":1167,"o":"m 1167 954 l 1167 157 l 1010 0 l 254 0 l 97 157 l 97 954 l 254 1111 l 1010 1111 l 1167 954 m 1104 931 l 979 1056 l 285 1056 l 160 931 l 160 181 l 285 56 l 979 56 l 1104 181 l 1104 931 m 663 833 l 663 278 l 788 278 l 897 388 l 940 344 l 818 222 l 458 222 l 343 338 l 343 774 l 458 889 l 818 889 l 940 767 l 897 724 l 788 833 l 663 833 m 600 833 l 489 833 l 406 750 l 406 361 l 489 278 l 600 278 l 600 833 z "},"«":{"ha":575,"x_min":56,"x_max":506,"o":"m 283 658 l 236 688 l 56 444 l 236 201 l 283 231 l 167 444 l 283 658 m 506 658 l 458 688 l 278 444 l 458 201 l 506 231 l 389 444 l 506 658 z "},"¬":{"ha":875,"x_min":63,"x_max":813,"o":"m 813 625 l 813 569 l 813 292 l 750 292 l 750 569 l 63 569 l 63 625 l 813 625 z "},"­":{"ha":486,"x_min":69,"x_max":417,"o":"m 417 472 l 417 417 l 69 417 l 69 472 l 417 472 z "},"®":{"ha":722,"x_min":42,"x_max":681,"o":"m 681 996 l 681 611 l 565 496 l 157 496 l 42 611 l 42 996 l 157 1111 l 565 1111 l 681 996 m 642 982 l 549 1075 l 174 1075 l 81 982 l 81 625 l 174 532 l 549 532 l 642 625 l 642 982 m 529 644 l 565 644 l 565 619 l 450 619 l 406 664 l 406 786 l 343 786 l 343 633 l 343 619 l 186 619 l 186 644 l 221 644 l 221 971 l 186 971 l 186 996 l 485 996 l 529 951 l 529 831 l 497 799 l 529 767 l 529 644 m 315 644 l 315 971 l 249 971 l 249 644 l 315 644 m 406 811 l 406 971 l 343 971 l 343 811 l 406 811 m 471 971 l 433 971 l 433 811 l 471 811 l 501 842 l 501 940 l 471 971 m 464 644 l 501 644 l 501 756 l 471 786 l 433 786 l 433 675 l 464 644 z "},"°":{"ha":694,"x_min":69,"x_max":625,"o":"m 625 982 l 625 685 l 496 556 l 199 556 l 69 685 l 69 982 l 199 1111 l 496 1111 l 625 982 m 218 1067 l 117 965 l 117 701 l 218 597 l 476 597 l 578 701 l 578 965 l 476 1067 l 218 1067 z "},"±":{"ha":846,"x_min":69,"x_max":778,"o":"m 392 597 l 69 597 l 69 653 l 392 653 l 392 917 l 454 917 l 454 653 l 776 653 l 776 597 l 454 597 l 454 333 l 392 333 l 392 597 m 778 222 l 778 167 l 69 167 l 69 222 l 778 222 z "},"²":{"ha":681,"x_min":56,"x_max":625,"o":"m 625 979 l 625 851 l 551 778 l 56 778 l 56 1038 l 129 1111 l 389 1111 l 389 1340 l 292 1340 l 292 1181 l 56 1181 l 56 1315 l 129 1389 l 544 1389 l 618 1315 l 618 1129 l 544 1063 l 285 1063 l 285 826 l 401 826 l 401 979 l 625 979 m 236 1340 l 160 1340 l 111 1292 l 111 1236 l 236 1236 l 236 1340 m 444 1111 l 514 1111 l 563 1153 l 563 1292 l 514 1340 l 444 1340 l 444 1111 m 111 826 l 229 826 l 229 1063 l 153 1063 l 111 1021 l 111 826 m 569 931 l 457 931 l 457 826 l 521 826 l 569 875 l 569 931 z "},"³":{"ha":660,"x_min":56,"x_max":604,"o":"m 604 1129 l 556 1083 l 604 1038 l 604 851 l 531 778 l 129 778 l 56 851 l 56 979 l 111 979 l 251 979 l 278 979 l 278 826 l 375 826 l 375 1060 l 188 1060 l 188 1107 l 375 1107 l 375 1340 l 271 1340 l 271 1188 l 215 1188 l 85 1188 l 56 1188 l 56 1315 l 129 1389 l 531 1389 l 604 1315 l 604 1129 m 215 1340 l 157 1340 l 111 1294 l 111 1236 l 215 1236 l 215 1340 m 431 1107 l 504 1107 l 549 1149 l 549 1294 l 503 1340 l 431 1340 l 431 1107 m 549 1018 l 504 1060 l 431 1060 l 431 826 l 504 826 l 549 871 l 549 1018 m 156 826 l 222 826 l 222 931 l 111 931 l 111 871 l 156 826 z "},"¶":{"ha":924,"x_min":69,"x_max":896,"o":"m 896 1056 l 785 1056 l 785 0 l 722 0 l 722 1056 l 611 1056 l 611 458 l 611 0 l 549 0 l 549 458 l 185 458 l 69 572 l 69 996 l 185 1111 l 896 1111 l 896 1056 z "},"·":{"ha":417,"x_min":85,"x_max":349,"o":"m 85 278 l 349 278 l 349 528 l 85 528 l 85 278 m 147 472 l 286 472 l 286 333 l 147 333 l 147 472 z "},"¹":{"ha":496,"x_min":28,"x_max":454,"o":"m 454 826 l 454 778 l 65 778 l 65 826 l 163 826 l 163 1340 l 68 1246 l 28 1285 l 132 1389 l 385 1389 l 385 826 l 454 826 m 218 826 l 329 826 l 329 1340 l 218 1340 l 218 826 z "},"»":{"ha":575,"x_min":69,"x_max":519,"o":"m 69 231 l 117 201 l 297 444 l 117 688 l 69 658 l 186 444 l 69 231 m 292 231 l 339 201 l 519 444 l 339 688 l 292 658 l 408 444 l 292 231 z "},"¼":{"ha":1244,"x_min":53,"x_max":1203,"o":"m 1039 1167 l 221 -39 l 167 0 l 985 1206 l 1039 1167 m 188 604 l 188 1118 l 93 1024 l 53 1063 l 157 1167 l 410 1167 l 410 604 l 479 604 l 479 556 l 90 556 l 90 604 l 188 604 m 243 604 l 354 604 l 354 1118 l 243 1118 l 243 604 m 1203 49 l 1203 0 l 863 0 l 863 49 l 939 49 l 939 138 l 613 138 l 613 258 l 872 611 l 935 611 l 1021 611 l 1021 468 l 814 186 l 939 186 l 939 256 l 1000 339 l 1147 339 l 1147 290 l 1147 49 l 1203 49 m 668 186 l 750 186 l 965 479 l 965 563 l 899 563 l 668 249 l 668 186 m 994 49 l 1092 49 l 1092 290 l 1031 290 l 994 242 l 994 49 z "},"½":{"ha":1297,"x_min":53,"x_max":1263,"o":"m 1039 1167 l 221 -39 l 167 0 l 985 1206 l 1039 1167 m 188 604 l 188 1118 l 93 1024 l 53 1063 l 157 1167 l 410 1167 l 410 604 l 479 604 l 479 556 l 90 556 l 90 604 l 188 604 m 243 604 l 354 604 l 354 1118 l 243 1118 l 243 604 m 1263 201 l 1263 74 l 1189 0 l 693 0 l 693 260 l 767 333 l 1026 333 l 1026 563 l 929 563 l 929 403 l 693 403 l 693 538 l 767 611 l 1182 611 l 1256 538 l 1256 351 l 1182 285 l 922 285 l 922 49 l 1039 49 l 1039 201 l 1263 201 m 874 563 l 797 563 l 749 514 l 749 458 l 874 458 l 874 563 m 1082 333 l 1151 333 l 1200 375 l 1200 514 l 1151 563 l 1082 563 l 1082 333 m 749 49 l 867 49 l 867 285 l 790 285 l 749 243 l 749 49 m 1207 153 l 1094 153 l 1094 49 l 1158 49 l 1207 97 l 1207 153 z "},"¾":{"ha":1369,"x_min":56,"x_max":1314,"o":"m 1150 1165 l 332 -40 l 278 -1 l 1096 1204 l 1150 1165 m 531 556 l 129 556 l 56 629 l 56 757 l 111 757 l 251 757 l 278 757 l 278 604 l 375 604 l 375 838 l 215 838 l 215 885 l 375 885 l 375 1118 l 271 1118 l 271 965 l 215 965 l 85 965 l 56 965 l 56 1093 l 129 1167 l 531 1167 l 604 1093 l 604 907 l 556 861 l 604 815 l 604 629 l 531 556 m 215 1118 l 157 1118 l 111 1072 l 111 1014 l 215 1014 l 215 1118 m 431 885 l 504 885 l 549 926 l 549 1072 l 503 1118 l 431 1118 l 431 885 m 504 604 l 549 649 l 549 796 l 504 838 l 431 838 l 431 604 l 504 604 m 156 604 l 222 604 l 222 708 l 111 708 l 111 649 l 156 604 m 1314 49 l 1314 0 l 974 0 l 974 49 l 1050 49 l 1050 138 l 724 138 l 724 258 l 983 611 l 1046 611 l 1132 611 l 1132 468 l 925 186 l 1050 186 l 1050 256 l 1111 339 l 1258 339 l 1258 290 l 1258 49 l 1314 49 m 779 186 l 861 186 l 1076 479 l 1076 563 l 1010 563 l 779 249 l 779 186 m 1106 49 l 1203 49 l 1203 290 l 1142 290 l 1106 242 l 1106 49 z "},"¿":{"ha":769,"x_min":56,"x_max":728,"o":"m 576 583 l 313 583 l 313 833 l 576 833 l 576 583 m 514 778 l 375 778 l 375 639 l 514 639 l 514 778 m 728 -37 l 728 -162 l 613 -278 l 171 -278 l 56 -162 l 56 149 l 171 264 l 313 264 l 313 472 l 576 472 l 576 208 l 375 208 l 375 -222 l 582 -222 l 665 -139 l 665 -37 l 728 -37 m 375 264 l 514 264 l 514 417 l 375 417 l 375 264 m 201 -222 l 313 -222 l 313 208 l 201 208 l 118 125 l 118 -139 l 201 -222 z "},"À":{"ha":1235,"x_min":14,"x_max":1221,"o":"m 1221 56 l 1221 0 l 813 0 l 646 0 l 646 56 l 794 56 l 678 417 l 293 417 l 175 56 l 317 56 l 317 0 l 90 0 l 14 0 l 14 56 l 108 56 l 451 1111 l 783 1111 l 1126 56 l 1221 56 m 1061 56 l 736 1056 l 535 1056 l 860 56 l 1061 56 m 660 472 l 485 1008 l 311 472 l 660 472 m 651 1194 l 525 1450 l 458 1450 l 585 1194 l 651 1194 z "},"Á":{"ha":1235,"x_min":14,"x_max":1221,"o":"m 1221 56 l 1221 0 l 813 0 l 646 0 l 646 56 l 794 56 l 678 417 l 293 417 l 175 56 l 317 56 l 317 0 l 90 0 l 14 0 l 14 56 l 108 56 l 451 1111 l 783 1111 l 1126 56 l 1221 56 m 1061 56 l 736 1056 l 535 1056 l 860 56 l 1061 56 m 660 472 l 485 1008 l 311 472 l 660 472 m 797 1394 l 731 1394 l 590 1194 l 657 1194 l 797 1394 z "},"Â":{"ha":1235,"x_min":14,"x_max":1221,"o":"m 1221 56 l 1221 0 l 813 0 l 646 0 l 646 56 l 794 56 l 678 417 l 293 417 l 175 56 l 317 56 l 317 0 l 90 0 l 14 0 l 14 56 l 108 56 l 451 1111 l 783 1111 l 1126 56 l 1221 56 m 1061 56 l 736 1056 l 535 1056 l 860 56 l 1061 56 m 660 472 l 485 1008 l 311 472 l 660 472 m 746 1194 l 617 1363 l 488 1194 l 418 1194 l 582 1408 l 651 1408 l 815 1194 l 746 1194 z "},"Ã":{"ha":1235,"x_min":14,"x_max":1221,"o":"m 1221 56 l 1221 0 l 813 0 l 646 0 l 646 56 l 794 56 l 678 417 l 293 417 l 175 56 l 317 56 l 317 0 l 90 0 l 14 0 l 14 56 l 108 56 l 451 1111 l 783 1111 l 1126 56 l 1221 56 m 1061 56 l 736 1056 l 535 1056 l 860 56 l 1061 56 m 660 472 l 485 1008 l 311 472 l 660 472 m 460 1338 l 360 1238 l 403 1194 l 490 1282 l 581 1282 l 668 1194 l 819 1194 l 919 1294 l 876 1338 l 789 1250 l 699 1250 l 611 1338 l 460 1338 z "},"Ä":{"ha":1242,"x_min":14,"x_max":1221,"o":"m 472 1222 l 393 1301 l 472 1381 l 551 1301 l 472 1222 m 776 1222 l 697 1301 l 776 1381 l 856 1301 l 776 1222 m 1221 56 l 1221 0 l 813 0 l 646 0 l 646 56 l 794 56 l 678 417 l 293 417 l 175 56 l 317 56 l 317 0 l 90 0 l 14 0 l 14 56 l 108 56 l 451 1111 l 783 1111 l 1126 56 l 1221 56 m 1061 56 l 736 1056 l 535 1056 l 860 56 l 1061 56 m 660 472 l 485 1008 l 311 472 l 660 472 z "},"Å":{"ha":1235,"x_min":14,"x_max":1221,"o":"m 1221 56 l 1221 0 l 813 0 l 646 0 l 646 56 l 794 56 l 678 417 l 293 417 l 175 56 l 317 56 l 317 0 l 90 0 l 14 0 l 14 56 l 108 56 l 451 1111 l 783 1111 l 1126 56 l 1221 56 m 1061 56 l 736 1056 l 535 1056 l 860 56 l 1061 56 m 660 472 l 485 1008 l 311 472 l 660 472 m 624 1167 l 776 1318 l 625 1471 l 472 1319 l 624 1167 m 539 1319 l 625 1404 l 710 1318 l 624 1233 l 539 1319 z "},"Æ":{"ha":1742,"x_min":86,"x_max":1658,"o":"m 1596 778 l 1596 1056 l 1196 1056 l 1196 597 l 1554 597 l 1554 542 l 1196 542 l 1196 56 l 1596 56 l 1596 333 l 1658 333 l 1658 0 l 1596 0 l 710 0 l 710 56 l 876 56 l 876 389 l 471 389 l 268 56 l 403 56 l 403 0 l 86 0 l 86 56 l 194 56 l 836 1111 l 910 1111 l 1626 1111 l 1658 1111 l 1658 778 l 1596 778 m 876 444 l 876 1056 l 504 444 l 876 444 m 1133 1056 l 939 1056 l 939 56 l 1133 56 l 1133 1056 z "},"Ç":{"ha":1000,"x_min":69,"x_max":931,"o":"m 931 138 l 793 0 l 213 0 l 69 143 l 69 968 l 213 1111 l 761 1111 l 858 1014 l 858 1125 l 921 1125 l 921 864 l 921 750 l 858 750 l 858 928 l 731 1056 l 389 1056 l 389 56 l 763 56 l 888 181 l 931 138 m 243 56 l 326 56 l 326 1056 l 243 1056 l 132 944 l 132 167 l 243 56 m 508 -83 l 571 -83 l 571 -262 l 400 -433 l 357 -390 l 508 -239 l 508 -83 z "},"È":{"ha":1004,"x_min":28,"x_max":921,"o":"m 858 792 l 858 1056 l 458 1056 l 458 597 l 817 597 l 817 542 l 458 542 l 458 56 l 858 56 l 858 319 l 921 319 l 921 0 l 858 0 l 28 0 l 28 56 l 139 56 l 139 1056 l 28 1056 l 28 1111 l 889 1111 l 921 1111 l 921 792 l 858 792 m 396 1056 l 201 1056 l 201 56 l 396 56 l 396 1056 m 582 1194 l 456 1450 l 389 1450 l 515 1194 l 582 1194 z "},"É":{"ha":1004,"x_min":28,"x_max":921,"o":"m 858 792 l 858 1056 l 458 1056 l 458 597 l 817 597 l 817 542 l 458 542 l 458 56 l 858 56 l 858 319 l 921 319 l 921 0 l 858 0 l 28 0 l 28 56 l 139 56 l 139 1056 l 28 1056 l 28 1111 l 889 1111 l 921 1111 l 921 792 l 858 792 m 396 1056 l 201 1056 l 201 56 l 396 56 l 396 1056 m 676 1394 l 610 1394 l 469 1194 l 536 1194 l 676 1394 z "},"Ê":{"ha":1004,"x_min":28,"x_max":921,"o":"m 858 792 l 858 1056 l 458 1056 l 458 597 l 817 597 l 817 542 l 458 542 l 458 56 l 858 56 l 858 319 l 921 319 l 921 0 l 858 0 l 28 0 l 28 56 l 139 56 l 139 1056 l 28 1056 l 28 1111 l 889 1111 l 921 1111 l 921 792 l 858 792 m 396 1056 l 201 1056 l 201 56 l 396 56 l 396 1056 m 651 1194 l 522 1363 l 393 1194 l 324 1194 l 488 1408 l 557 1408 l 721 1194 l 651 1194 z "},"Ë":{"ha":1004,"x_min":28,"x_max":921,"o":"m 858 792 l 858 1056 l 458 1056 l 458 597 l 817 597 l 817 542 l 458 542 l 458 56 l 858 56 l 858 319 l 921 319 l 921 0 l 858 0 l 28 0 l 28 56 l 139 56 l 139 1056 l 28 1056 l 28 1111 l 889 1111 l 921 1111 l 921 792 l 858 792 m 396 1056 l 201 1056 l 201 56 l 396 56 l 396 1056 m 353 1222 l 432 1301 l 353 1381 l 274 1301 l 353 1222 m 657 1222 l 736 1301 l 657 1381 l 578 1301 l 657 1222 z "},"Ì":{"ha":597,"x_min":28,"x_max":569,"o":"m 458 1056 l 458 56 l 569 56 l 569 0 l 28 0 l 28 56 l 139 56 l 139 1056 l 28 1056 l 28 1111 l 569 1111 l 569 1056 l 458 1056 m 396 1056 l 201 1056 l 201 56 l 396 56 l 396 1056 m 346 1194 l 219 1450 l 153 1450 l 279 1194 l 346 1194 z "},"Í":{"ha":597,"x_min":28,"x_max":569,"o":"m 458 1056 l 458 56 l 569 56 l 569 0 l 28 0 l 28 56 l 139 56 l 139 1056 l 28 1056 l 28 1111 l 569 1111 l 569 1056 l 458 1056 m 396 1056 l 201 1056 l 201 56 l 396 56 l 396 1056 m 482 1394 l 415 1394 l 275 1194 l 342 1194 l 482 1394 z "},"Î":{"ha":597,"x_min":28,"x_max":569,"o":"m 425 1194 l 296 1363 l 167 1194 l 97 1194 l 261 1408 l 331 1408 l 494 1194 l 425 1194 m 458 1056 l 458 56 l 569 56 l 569 0 l 28 0 l 28 56 l 139 56 l 139 1056 l 28 1056 l 28 1111 l 569 1111 l 569 1056 l 458 1056 m 396 1056 l 201 1056 l 201 56 l 396 56 l 396 1056 z "},"Ï":{"ha":597,"x_min":28,"x_max":569,"o":"m 458 1056 l 458 56 l 569 56 l 569 0 l 28 0 l 28 56 l 139 56 l 139 1056 l 28 1056 l 28 1111 l 569 1111 l 569 1056 l 458 1056 m 396 1056 l 201 1056 l 201 56 l 396 56 l 396 1056 m 147 1222 l 226 1301 l 147 1381 l 68 1301 l 147 1222 m 451 1222 l 531 1301 l 451 1381 l 372 1301 l 451 1222 z "},"Ð":{"ha":1097,"x_min":28,"x_max":1028,"o":"m 1028 968 l 1028 143 l 885 0 l 28 0 l 28 56 l 139 56 l 139 583 l 28 583 l 28 639 l 139 639 l 139 1056 l 28 1056 l 28 1111 l 885 1111 l 1028 968 m 201 639 l 396 639 l 396 1056 l 201 1056 l 201 639 m 583 639 l 583 583 l 458 583 l 458 56 l 708 56 l 708 1056 l 458 1056 l 458 639 l 583 639 m 965 944 l 854 1056 l 771 1056 l 771 56 l 854 56 l 965 167 l 965 944 m 201 56 l 396 56 l 396 583 l 201 583 l 201 56 z "},"Ñ":{"ha":1242,"x_min":28,"x_max":1214,"o":"m 1214 1056 l 1103 1056 l 1103 0 l 1040 0 l 728 0 l 201 1056 l 201 56 l 313 56 l 313 0 l 28 0 l 28 56 l 139 56 l 139 1056 l 28 1056 l 28 1111 l 313 1111 l 514 1111 l 1040 56 l 1040 1056 l 929 1056 l 929 1111 l 1214 1111 l 1214 1056 m 974 56 l 475 1056 l 268 1056 l 767 56 l 974 56 m 464 1338 l 364 1238 l 407 1194 l 494 1282 l 585 1282 l 672 1194 l 824 1194 l 924 1294 l 881 1338 l 793 1250 l 703 1250 l 615 1338 l 464 1338 z "},"Ò":{"ha":1049,"x_min":69,"x_max":979,"o":"m 979 968 l 979 143 l 836 0 l 213 0 l 69 143 l 69 968 l 213 1111 l 836 1111 l 979 968 m 243 56 l 326 56 l 326 1056 l 243 1056 l 132 944 l 132 167 l 243 56 m 389 1056 l 389 56 l 660 56 l 660 1056 l 389 1056 m 917 944 l 806 1056 l 722 1056 l 722 56 l 806 56 l 917 167 l 917 944 m 567 1203 l 440 1458 l 374 1458 l 500 1203 l 567 1203 z "},"Ó":{"ha":1049,"x_min":69,"x_max":979,"o":"m 979 968 l 979 143 l 836 0 l 213 0 l 69 143 l 69 968 l 213 1111 l 836 1111 l 979 968 m 243 56 l 326 56 l 326 1056 l 243 1056 l 132 944 l 132 167 l 243 56 m 389 1056 l 389 56 l 660 56 l 660 1056 l 389 1056 m 917 944 l 806 1056 l 722 1056 l 722 56 l 806 56 l 917 167 l 917 944 m 713 1394 l 646 1394 l 506 1194 l 572 1194 l 713 1394 z "},"Ô":{"ha":1049,"x_min":69,"x_max":979,"o":"m 979 968 l 979 143 l 836 0 l 213 0 l 69 143 l 69 968 l 213 1111 l 836 1111 l 979 968 m 243 56 l 326 56 l 326 1056 l 243 1056 l 132 944 l 132 167 l 243 56 m 389 1056 l 389 56 l 660 56 l 660 1056 l 389 1056 m 917 944 l 806 1056 l 722 1056 l 722 56 l 806 56 l 917 167 l 917 944 m 654 1194 l 525 1363 l 396 1194 l 326 1194 l 490 1408 l 560 1408 l 724 1194 l 654 1194 z "},"Õ":{"ha":1049,"x_min":69,"x_max":979,"o":"m 979 968 l 979 143 l 836 0 l 213 0 l 69 143 l 69 968 l 213 1111 l 836 1111 l 979 968 m 243 56 l 326 56 l 326 1056 l 243 1056 l 132 944 l 132 167 l 243 56 m 389 1056 l 389 56 l 660 56 l 660 1056 l 389 1056 m 917 944 l 806 1056 l 722 1056 l 722 56 l 806 56 l 917 167 l 917 944 m 378 1338 l 278 1238 l 321 1194 l 408 1282 l 499 1282 l 586 1194 l 738 1194 l 838 1294 l 794 1338 l 707 1250 l 617 1250 l 529 1338 l 378 1338 z "},"Ö":{"ha":1049,"x_min":69,"x_max":979,"o":"m 979 968 l 979 143 l 836 0 l 213 0 l 69 143 l 69 968 l 213 1111 l 836 1111 l 979 968 m 243 56 l 326 56 l 326 1056 l 243 1056 l 132 944 l 132 167 l 243 56 m 389 1056 l 389 56 l 660 56 l 660 1056 l 389 1056 m 917 944 l 806 1056 l 722 1056 l 722 56 l 806 56 l 917 167 l 917 944 m 376 1222 l 456 1301 l 376 1381 l 297 1301 l 376 1222 m 681 1222 l 760 1301 l 681 1381 l 601 1301 l 681 1222 z "},"×":{"ha":833,"x_min":154,"x_max":693,"o":"m 463 569 l 693 339 l 654 300 l 424 531 l 193 300 l 154 339 l 385 569 l 154 800 l 193 839 l 424 608 l 654 839 l 693 800 l 463 569 z "},"Ø":{"ha":1056,"x_min":-4,"x_max":1053,"o":"m 932 1015 l 979 968 l 979 143 l 836 0 l 213 0 l 165 47 l 43 -108 l -4 -69 l 122 90 l 69 143 l 69 968 l 213 1111 l 836 1111 l 890 1057 l 1007 1206 l 1053 1167 l 932 1015 m 161 138 l 326 347 l 326 1056 l 243 1056 l 132 944 l 132 167 l 161 138 m 660 768 l 660 1056 l 389 1056 l 389 426 l 660 768 m 806 1056 l 722 1056 l 722 846 l 851 1010 l 806 1056 m 894 967 l 722 749 l 722 56 l 806 56 l 917 167 l 917 944 l 894 967 m 389 328 l 389 56 l 660 56 l 660 671 l 389 328 m 243 56 l 326 56 l 326 250 l 204 94 l 243 56 z "},"Ù":{"ha":1150,"x_min":42,"x_max":1108,"o":"m 1108 1056 l 997 1056 l 997 143 l 854 0 l 296 0 l 153 143 l 153 1056 l 42 1056 l 42 1111 l 583 1111 l 583 1056 l 472 1056 l 472 56 l 824 56 l 935 167 l 935 1056 l 824 1056 l 824 1111 l 1108 1111 l 1108 1056 m 326 56 l 410 56 l 410 1056 l 215 1056 l 215 167 l 326 56 m 665 1194 l 539 1450 l 472 1450 l 599 1194 l 665 1194 z "},"Ú":{"ha":1150,"x_min":42,"x_max":1108,"o":"m 1108 1056 l 997 1056 l 997 143 l 854 0 l 296 0 l 153 143 l 153 1056 l 42 1056 l 42 1111 l 583 1111 l 583 1056 l 472 1056 l 472 56 l 824 56 l 935 167 l 935 1056 l 824 1056 l 824 1111 l 1108 1111 l 1108 1056 m 326 56 l 410 56 l 410 1056 l 215 1056 l 215 167 l 326 56 m 894 1394 l 828 1394 l 688 1194 l 754 1194 l 894 1394 z "},"Û":{"ha":1150,"x_min":42,"x_max":1108,"o":"m 1108 1056 l 997 1056 l 997 143 l 854 0 l 296 0 l 153 143 l 153 1056 l 42 1056 l 42 1111 l 583 1111 l 583 1056 l 472 1056 l 472 56 l 824 56 l 935 167 l 935 1056 l 824 1056 l 824 1111 l 1108 1111 l 1108 1056 m 326 56 l 410 56 l 410 1056 l 215 1056 l 215 167 l 326 56 m 831 1194 l 701 1363 l 572 1194 l 503 1194 l 667 1408 l 736 1408 l 900 1194 l 831 1194 z "},"Ü":{"ha":1150,"x_min":42,"x_max":1108,"o":"m 1108 1056 l 997 1056 l 997 143 l 854 0 l 296 0 l 153 143 l 153 1056 l 42 1056 l 42 1111 l 583 1111 l 583 1056 l 472 1056 l 472 56 l 824 56 l 935 167 l 935 1056 l 824 1056 l 824 1111 l 1108 1111 l 1108 1056 m 326 56 l 410 56 l 410 1056 l 215 1056 l 215 167 l 326 56 m 551 1222 l 631 1301 l 551 1381 l 472 1301 l 551 1222 m 856 1222 l 935 1301 l 856 1381 l 776 1301 l 856 1222 z "},"Ý":{"ha":1069,"x_min":-14,"x_max":1056,"o":"m 693 528 l 693 56 l 804 56 l 804 0 l 263 0 l 263 56 l 374 56 l 374 475 l 90 1056 l -14 1056 l -14 1111 l 521 1111 l 521 1056 l 436 1056 l 660 597 l 882 1056 l 760 1056 l 760 1111 l 1056 1111 l 1056 1056 l 950 1056 l 693 528 m 631 56 l 631 517 l 368 1056 l 158 1056 l 436 486 l 436 56 l 631 56 m 810 1394 l 743 1394 l 603 1194 l 669 1194 l 810 1394 z "},"Þ":{"ha":1129,"x_min":69,"x_max":1060,"o":"m 1060 732 l 1060 393 l 917 250 l 500 250 l 500 56 l 611 56 l 611 0 l 69 0 l 69 56 l 181 56 l 181 1056 l 69 1056 l 69 1111 l 611 1111 l 611 1056 l 500 1056 l 500 861 l 931 861 l 1060 732 m 438 56 l 438 1056 l 243 1056 l 243 56 l 438 56 m 500 306 l 740 306 l 740 806 l 500 806 l 500 306 m 997 708 l 900 806 l 803 806 l 803 306 l 886 306 l 997 417 l 997 708 z "},"ß":{"ha":1060,"x_min":28,"x_max":990,"o":"m 990 671 l 875 556 l 990 440 l 990 129 l 861 0 l 560 0 l 560 56 l 671 56 l 671 528 l 458 528 l 458 129 l 329 0 l 28 0 l 28 56 l 139 56 l 139 694 l 28 694 l 28 750 l 139 750 l 139 982 l 268 1111 l 861 1111 l 990 982 l 990 671 m 396 153 l 396 1056 l 299 1056 l 201 958 l 201 56 l 299 56 l 396 153 m 671 583 l 671 1056 l 458 1056 l 458 583 l 671 583 m 928 958 l 831 1056 l 733 1056 l 733 583 l 817 583 l 928 694 l 928 958 m 928 417 l 817 528 l 733 528 l 733 56 l 831 56 l 928 153 l 928 417 z "},"à":{"ha":1014,"x_min":83,"x_max":986,"o":"m 986 56 l 986 0 l 671 0 l 588 85 l 503 0 l 199 0 l 83 115 l 83 329 l 199 444 l 556 444 l 556 778 l 410 778 l 410 556 l 118 556 l 118 718 l 233 833 l 760 833 l 875 718 l 875 56 l 986 56 m 347 778 l 264 778 l 181 694 l 181 611 l 347 611 l 347 778 m 701 56 l 813 56 l 813 694 l 729 778 l 618 778 l 618 139 l 701 56 m 229 56 l 347 56 l 347 389 l 229 389 l 146 306 l 146 139 l 229 56 m 556 139 l 556 389 l 410 389 l 410 56 l 472 56 l 556 139 m 551 917 l 425 1172 l 358 1172 l 485 917 l 551 917 z "},"á":{"ha":1014,"x_min":83,"x_max":986,"o":"m 986 56 l 986 0 l 671 0 l 588 85 l 503 0 l 199 0 l 83 115 l 83 329 l 199 444 l 556 444 l 556 778 l 410 778 l 410 556 l 118 556 l 118 718 l 233 833 l 760 833 l 875 718 l 875 56 l 986 56 m 347 778 l 264 778 l 181 694 l 181 611 l 347 611 l 347 778 m 701 56 l 813 56 l 813 694 l 729 778 l 618 778 l 618 139 l 701 56 m 229 56 l 347 56 l 347 389 l 229 389 l 146 306 l 146 139 l 229 56 m 556 139 l 556 389 l 410 389 l 410 56 l 472 56 l 556 139 m 660 1117 l 593 1117 l 453 917 l 519 917 l 660 1117 z "},"â":{"ha":1014,"x_min":83,"x_max":986,"o":"m 986 56 l 986 0 l 671 0 l 588 85 l 503 0 l 199 0 l 83 115 l 83 329 l 199 444 l 556 444 l 556 778 l 410 778 l 410 556 l 118 556 l 118 718 l 233 833 l 760 833 l 875 718 l 875 56 l 986 56 m 347 778 l 264 778 l 181 694 l 181 611 l 347 611 l 347 778 m 701 56 l 813 56 l 813 694 l 729 778 l 618 778 l 618 139 l 701 56 m 229 56 l 347 56 l 347 389 l 229 389 l 146 306 l 146 139 l 229 56 m 556 139 l 556 389 l 410 389 l 410 56 l 472 56 l 556 139 m 608 917 l 479 1085 l 350 917 l 281 917 l 444 1131 l 514 1131 l 678 917 l 608 917 z "},"ã":{"ha":1014,"x_min":83,"x_max":986,"o":"m 986 56 l 986 0 l 671 0 l 588 85 l 503 0 l 199 0 l 83 115 l 83 329 l 199 444 l 556 444 l 556 778 l 410 778 l 410 556 l 118 556 l 118 718 l 233 833 l 760 833 l 875 718 l 875 56 l 986 56 m 347 778 l 264 778 l 181 694 l 181 611 l 347 611 l 347 778 m 701 56 l 813 56 l 813 694 l 729 778 l 618 778 l 618 139 l 701 56 m 229 56 l 347 56 l 347 389 l 229 389 l 146 306 l 146 139 l 229 56 m 556 139 l 556 389 l 410 389 l 410 56 l 472 56 l 556 139 m 317 1060 l 217 960 l 260 917 l 347 1004 l 438 1004 l 525 917 l 676 917 l 776 1017 l 733 1060 l 646 972 l 556 972 l 468 1060 l 317 1060 z "},"ä":{"ha":1014,"x_min":83,"x_max":986,"o":"m 986 56 l 986 0 l 671 0 l 588 85 l 503 0 l 199 0 l 83 115 l 83 329 l 199 444 l 556 444 l 556 778 l 410 778 l 410 556 l 118 556 l 118 718 l 233 833 l 760 833 l 875 718 l 875 56 l 986 56 m 347 778 l 264 778 l 181 694 l 181 611 l 347 611 l 347 778 m 701 56 l 813 56 l 813 694 l 729 778 l 618 778 l 618 139 l 701 56 m 229 56 l 347 56 l 347 389 l 229 389 l 146 306 l 146 139 l 229 56 m 556 139 l 556 389 l 410 389 l 410 56 l 472 56 l 556 139 m 331 944 l 410 1024 l 331 1103 l 251 1024 l 331 944 m 635 944 l 714 1024 l 635 1103 l 556 1024 l 635 944 z "},"å":{"ha":1014,"x_min":83,"x_max":986,"o":"m 986 56 l 986 0 l 671 0 l 588 85 l 503 0 l 199 0 l 83 115 l 83 329 l 199 444 l 556 444 l 556 778 l 410 778 l 410 556 l 118 556 l 118 718 l 233 833 l 760 833 l 875 718 l 875 56 l 986 56 m 347 778 l 264 778 l 181 694 l 181 611 l 347 611 l 347 778 m 701 56 l 813 56 l 813 694 l 729 778 l 618 778 l 618 139 l 701 56 m 229 56 l 347 56 l 347 389 l 229 389 l 146 306 l 146 139 l 229 56 m 556 139 l 556 389 l 410 389 l 410 56 l 472 56 l 556 139 m 489 889 l 642 1040 l 490 1193 l 338 1042 l 489 889 m 404 1042 l 490 1126 l 575 1040 l 489 956 l 404 1042 z "},"æ":{"ha":1389,"x_min":69,"x_max":1333,"o":"m 847 347 l 847 56 l 1174 56 l 1290 172 l 1333 129 l 1204 0 l 657 0 l 574 85 l 489 0 l 185 0 l 69 115 l 69 329 l 185 444 l 542 444 l 542 778 l 396 778 l 396 556 l 104 556 l 104 718 l 219 833 l 732 833 l 817 750 l 900 833 l 1204 833 l 1333 704 l 1333 476 l 1204 347 l 847 347 m 333 778 l 250 778 l 167 694 l 167 611 l 333 611 l 333 778 m 785 56 l 785 694 l 701 778 l 604 778 l 604 139 l 688 56 l 785 56 m 847 694 l 847 403 l 1014 403 l 1014 778 l 931 778 l 847 694 m 1174 778 l 1076 778 l 1076 403 l 1174 403 l 1271 500 l 1271 681 l 1174 778 m 215 56 l 333 56 l 333 389 l 215 389 l 132 306 l 132 139 l 215 56 m 542 139 l 542 389 l 396 389 l 396 56 l 458 56 l 542 139 z "},"ç":{"ha":840,"x_min":56,"x_max":799,"o":"m 521 556 l 521 778 l 375 778 l 375 56 l 639 56 l 749 165 l 792 122 l 669 0 l 185 0 l 56 129 l 56 704 l 185 833 l 697 833 l 799 732 l 799 556 l 521 556 m 313 778 l 215 778 l 118 681 l 118 153 l 215 56 l 313 56 l 313 778 m 583 611 l 736 611 l 736 708 l 667 778 l 583 778 l 583 611 m 436 -83 l 494 -83 l 494 -262 l 324 -433 l 283 -392 l 436 -239 l 436 -83 z "},"è":{"ha":917,"x_min":69,"x_max":868,"o":"m 868 129 l 739 0 l 199 0 l 69 129 l 69 704 l 199 833 l 732 833 l 861 704 l 861 476 l 732 347 l 389 347 l 389 56 l 708 56 l 825 172 l 868 129 m 229 56 l 326 56 l 326 778 l 229 778 l 132 681 l 132 153 l 229 56 m 389 403 l 542 403 l 542 778 l 389 778 l 389 403 m 701 778 l 604 778 l 604 403 l 701 403 l 799 500 l 799 681 l 701 778 m 504 917 l 378 1172 l 311 1172 l 438 917 l 504 917 z "},"é":{"ha":917,"x_min":69,"x_max":868,"o":"m 868 129 l 739 0 l 199 0 l 69 129 l 69 704 l 199 833 l 732 833 l 861 704 l 861 476 l 732 347 l 389 347 l 389 56 l 708 56 l 825 172 l 868 129 m 229 56 l 326 56 l 326 778 l 229 778 l 132 681 l 132 153 l 229 56 m 389 403 l 542 403 l 542 778 l 389 778 l 389 403 m 701 778 l 604 778 l 604 403 l 701 403 l 799 500 l 799 681 l 701 778 m 651 1117 l 585 1117 l 444 917 l 511 917 l 651 1117 z "},"ê":{"ha":917,"x_min":69,"x_max":868,"o":"m 868 129 l 739 0 l 199 0 l 69 129 l 69 704 l 199 833 l 732 833 l 861 704 l 861 476 l 732 347 l 389 347 l 389 56 l 708 56 l 825 172 l 868 129 m 229 56 l 326 56 l 326 778 l 229 778 l 132 681 l 132 153 l 229 56 m 389 403 l 542 403 l 542 778 l 389 778 l 389 403 m 701 778 l 604 778 l 604 403 l 701 403 l 799 500 l 799 681 l 701 778 m 599 917 l 469 1085 l 340 917 l 271 917 l 435 1131 l 504 1131 l 668 917 l 599 917 z "},"ë":{"ha":917,"x_min":69,"x_max":868,"o":"m 868 129 l 739 0 l 199 0 l 69 129 l 69 704 l 199 833 l 732 833 l 861 704 l 861 476 l 732 347 l 389 347 l 389 56 l 708 56 l 825 172 l 868 129 m 229 56 l 326 56 l 326 778 l 229 778 l 132 681 l 132 153 l 229 56 m 389 403 l 542 403 l 542 778 l 389 778 l 389 403 m 701 778 l 604 778 l 604 403 l 701 403 l 799 500 l 799 681 l 701 778 m 319 944 l 399 1024 l 319 1103 l 240 1024 l 319 944 m 624 944 l 703 1024 l 624 1103 l 544 1024 l 624 944 z "},"ì":{"ha":597,"x_min":28,"x_max":569,"o":"m 238 917 l 111 1172 l 178 1172 l 304 917 l 238 917 m 569 56 l 569 0 l 268 0 l 139 129 l 139 778 l 28 778 l 28 833 l 329 833 l 458 704 l 458 56 l 569 56 m 299 56 l 396 56 l 396 681 l 299 778 l 201 778 l 201 153 l 299 56 z "},"í":{"ha":597,"x_min":28,"x_max":569,"o":"m 299 917 l 232 917 l 372 1117 l 439 1117 l 299 917 m 569 56 l 569 0 l 268 0 l 139 129 l 139 778 l 28 778 l 28 833 l 329 833 l 458 704 l 458 56 l 569 56 m 299 56 l 396 56 l 396 681 l 299 778 l 201 778 l 201 153 l 299 56 z "},"î":{"ha":597,"x_min":28,"x_max":569,"o":"m 143 917 l 74 917 l 238 1131 l 307 1131 l 471 917 l 401 917 l 272 1085 l 143 917 m 569 56 l 569 0 l 268 0 l 139 129 l 139 778 l 28 778 l 28 833 l 329 833 l 458 704 l 458 56 l 569 56 m 299 56 l 396 56 l 396 681 l 299 778 l 201 778 l 201 153 l 299 56 z "},"ï":{"ha":597,"x_min":28,"x_max":569,"o":"m 146 944 l 67 1024 l 146 1103 l 225 1024 l 146 944 m 450 944 l 371 1024 l 450 1103 l 529 1024 l 450 944 m 569 56 l 569 0 l 268 0 l 139 129 l 139 778 l 28 778 l 28 833 l 329 833 l 458 704 l 458 56 l 569 56 m 299 56 l 396 56 l 396 681 l 299 778 l 201 778 l 201 153 l 299 56 z "},"ð":{"ha":1057,"x_min":69,"x_max":932,"o":"m 932 1093 l 932 29 l 932 0 l 742 0 l 644 99 l 546 0 l 199 0 l 69 129 l 69 649 l 199 778 l 538 778 l 613 703 l 613 1167 l 417 1167 l 417 1042 l 354 1042 l 354 1167 l 153 1167 l 153 1222 l 354 1222 l 354 1347 l 417 1347 l 417 1222 l 803 1222 l 932 1093 m 869 56 l 869 1069 l 772 1167 l 675 1167 l 675 153 l 772 56 l 869 56 m 229 56 l 333 56 l 333 722 l 229 722 l 132 625 l 132 153 l 229 56 m 613 153 l 613 617 l 507 722 l 396 722 l 396 56 l 515 56 l 613 153 z "},"ñ":{"ha":1111,"x_min":28,"x_max":1083,"o":"m 1083 56 l 1083 0 l 768 0 l 653 115 l 653 778 l 556 778 l 458 681 l 458 56 l 528 56 l 528 0 l 28 0 l 28 56 l 139 56 l 139 778 l 28 778 l 28 833 l 329 833 l 428 736 l 525 833 l 843 833 l 972 704 l 972 56 l 1083 56 m 396 56 l 396 681 l 299 778 l 201 778 l 201 56 l 396 56 m 799 56 l 910 56 l 910 681 l 813 778 l 715 778 l 715 139 l 799 56 m 346 1024 l 246 924 l 289 881 l 376 968 l 467 968 l 554 881 l 706 881 l 806 981 l 763 1024 l 675 936 l 585 936 l 497 1024 l 346 1024 z "},"ò":{"ha":936,"x_min":69,"x_max":867,"o":"m 867 690 l 867 143 l 724 0 l 213 0 l 69 143 l 69 690 l 213 833 l 724 833 l 867 690 m 243 56 l 340 56 l 340 778 l 243 778 l 132 667 l 132 167 l 243 56 m 403 778 l 403 56 l 533 56 l 533 778 l 403 778 m 804 667 l 693 778 l 596 778 l 596 56 l 693 56 l 804 167 l 804 667 m 543 917 l 417 1172 l 350 1172 l 476 917 l 543 917 z "},"ó":{"ha":936,"x_min":69,"x_max":867,"o":"m 867 690 l 867 143 l 724 0 l 213 0 l 69 143 l 69 690 l 213 833 l 724 833 l 867 690 m 243 56 l 340 56 l 340 778 l 243 778 l 132 667 l 132 167 l 243 56 m 403 778 l 403 56 l 533 56 l 533 778 l 403 778 m 804 667 l 693 778 l 596 778 l 596 56 l 693 56 l 804 167 l 804 667 m 654 1117 l 588 1117 l 447 917 l 514 917 l 654 1117 z "},"ô":{"ha":936,"x_min":69,"x_max":867,"o":"m 594 917 l 465 1085 l 336 917 l 267 917 l 431 1131 l 500 1131 l 664 917 l 594 917 m 867 690 l 867 143 l 724 0 l 213 0 l 69 143 l 69 690 l 213 833 l 724 833 l 867 690 m 243 56 l 340 56 l 340 778 l 243 778 l 132 667 l 132 167 l 243 56 m 403 778 l 403 56 l 533 56 l 533 778 l 403 778 m 804 667 l 693 778 l 596 778 l 596 56 l 693 56 l 804 167 l 804 667 z "},"õ":{"ha":936,"x_min":69,"x_max":867,"o":"m 867 690 l 867 143 l 724 0 l 213 0 l 69 143 l 69 690 l 213 833 l 724 833 l 867 690 m 243 56 l 340 56 l 340 778 l 243 778 l 132 667 l 132 167 l 243 56 m 403 778 l 403 56 l 533 56 l 533 778 l 403 778 m 804 667 l 693 778 l 596 778 l 596 56 l 693 56 l 804 167 l 804 667 m 315 1060 l 215 960 l 258 917 l 346 1004 l 436 1004 l 524 917 l 675 917 l 775 1017 l 732 1060 l 644 972 l 554 972 l 467 1060 l 315 1060 z "},"ö":{"ha":936,"x_min":69,"x_max":867,"o":"m 867 690 l 867 143 l 724 0 l 213 0 l 69 143 l 69 690 l 213 833 l 724 833 l 867 690 m 243 56 l 340 56 l 340 778 l 243 778 l 132 667 l 132 167 l 243 56 m 403 778 l 403 56 l 533 56 l 533 778 l 403 778 m 804 667 l 693 778 l 596 778 l 596 56 l 693 56 l 804 167 l 804 667 m 318 944 l 397 1024 l 318 1103 l 239 1024 l 318 944 m 622 944 l 701 1024 l 622 1103 l 543 1024 l 622 944 z "},"÷":{"ha":847,"x_min":69,"x_max":778,"o":"m 424 918 l 522 819 l 424 721 l 325 819 l 424 918 m 778 597 l 778 542 l 69 542 l 69 597 l 778 597 m 424 418 l 522 319 l 424 221 l 325 319 l 424 418 z "},"ø":{"ha":936,"x_min":-4,"x_max":949,"o":"m 814 743 l 867 690 l 867 143 l 724 0 l 213 0 l 167 46 l 36 -96 l -4 -56 l 126 86 l 69 143 l 69 690 l 213 833 l 724 833 l 774 783 l 908 929 l 949 889 l 814 743 m 168 131 l 340 317 l 340 778 l 243 778 l 132 667 l 132 167 l 168 131 m 533 525 l 533 778 l 403 778 l 403 383 l 533 525 m 693 778 l 596 778 l 596 592 l 732 739 l 693 778 m 772 699 l 596 508 l 596 56 l 693 56 l 804 167 l 804 667 l 772 699 m 403 300 l 403 56 l 533 56 l 533 440 l 403 300 m 243 56 l 340 56 l 340 232 l 208 90 l 243 56 z "},"ù":{"ha":1104,"x_min":28,"x_max":1076,"o":"m 1076 56 l 1076 0 l 775 0 l 678 99 l 579 0 l 268 0 l 139 129 l 139 778 l 28 778 l 28 833 l 322 833 l 451 704 l 451 56 l 549 56 l 646 153 l 646 808 l 646 833 l 836 833 l 965 704 l 965 56 l 1076 56 m 299 56 l 389 56 l 389 681 l 292 778 l 201 778 l 201 153 l 299 56 m 806 56 l 903 56 l 903 681 l 806 778 l 708 778 l 708 153 l 806 56 m 569 915 l 443 1171 l 376 1171 l 503 915 l 569 915 z "},"ú":{"ha":1104,"x_min":28,"x_max":1076,"o":"m 1076 56 l 1076 0 l 775 0 l 678 99 l 579 0 l 268 0 l 139 129 l 139 778 l 28 778 l 28 833 l 322 833 l 451 704 l 451 56 l 549 56 l 646 153 l 646 808 l 646 833 l 836 833 l 965 704 l 965 56 l 1076 56 m 299 56 l 389 56 l 389 681 l 292 778 l 201 778 l 201 153 l 299 56 m 806 56 l 903 56 l 903 681 l 806 778 l 708 778 l 708 153 l 806 56 m 678 1117 l 611 1117 l 471 917 l 538 917 l 678 1117 z "},"û":{"ha":1104,"x_min":28,"x_max":1076,"o":"m 1076 56 l 1076 0 l 775 0 l 678 99 l 579 0 l 268 0 l 139 129 l 139 778 l 28 778 l 28 833 l 322 833 l 451 704 l 451 56 l 549 56 l 646 153 l 646 808 l 646 833 l 836 833 l 965 704 l 965 56 l 1076 56 m 299 56 l 389 56 l 389 681 l 292 778 l 201 778 l 201 153 l 299 56 m 806 56 l 903 56 l 903 681 l 806 778 l 708 778 l 708 153 l 806 56 m 635 917 l 506 1085 l 376 917 l 307 917 l 471 1131 l 540 1131 l 704 917 l 635 917 z "},"ü":{"ha":1104,"x_min":28,"x_max":1076,"o":"m 1076 56 l 1076 0 l 775 0 l 678 99 l 579 0 l 268 0 l 139 129 l 139 778 l 28 778 l 28 833 l 322 833 l 451 704 l 451 56 l 549 56 l 646 153 l 646 808 l 646 833 l 836 833 l 965 704 l 965 56 l 1076 56 m 299 56 l 389 56 l 389 681 l 292 778 l 201 778 l 201 153 l 299 56 m 806 56 l 903 56 l 903 681 l 806 778 l 708 778 l 708 153 l 806 56 m 382 944 l 461 1024 l 382 1103 l 303 1024 l 382 944 m 686 944 l 765 1024 l 686 1103 l 607 1024 l 686 944 z "},"ý":{"ha":1035,"x_min":28,"x_max":965,"o":"m 965 704 l 965 -218 l 836 -347 l 233 -347 l 118 -232 l 118 -69 l 438 -69 l 438 -292 l 646 -292 l 646 150 l 579 83 l 268 83 l 139 213 l 139 778 l 28 778 l 28 833 l 322 833 l 451 704 l 451 139 l 549 139 l 646 236 l 646 778 l 549 778 l 549 833 l 836 833 l 965 704 m 299 139 l 389 139 l 389 681 l 292 778 l 201 778 l 201 236 l 299 139 m 903 681 l 806 778 l 708 778 l 708 -292 l 806 -292 l 903 -194 l 903 681 m 264 -292 l 375 -292 l 375 -125 l 181 -125 l 181 -208 l 264 -292 m 669 1117 l 603 1117 l 463 917 l 529 917 l 669 1117 z "},"þ":{"ha":1049,"x_min":28,"x_max":979,"o":"m 979 704 l 979 129 l 850 0 l 525 0 l 458 67 l 458 -329 l 343 -444 l 28 -444 l 28 -389 l 139 -389 l 139 1056 l 28 1056 l 28 1111 l 343 1111 l 458 996 l 458 767 l 525 833 l 850 833 l 979 704 m 396 972 l 313 1056 l 201 1056 l 201 -389 l 313 -389 l 396 -306 l 396 972 m 556 56 l 653 56 l 653 778 l 556 778 l 458 681 l 458 153 l 556 56 m 917 681 l 819 778 l 715 778 l 715 56 l 819 56 l 917 153 l 917 681 z "},"ÿ":{"ha":1035,"x_min":28,"x_max":965,"o":"m 965 704 l 965 -218 l 836 -347 l 233 -347 l 118 -232 l 118 -69 l 438 -69 l 438 -292 l 646 -292 l 646 150 l 579 83 l 268 83 l 139 213 l 139 778 l 28 778 l 28 833 l 322 833 l 451 704 l 451 139 l 549 139 l 646 236 l 646 778 l 549 778 l 549 833 l 836 833 l 965 704 m 299 139 l 389 139 l 389 681 l 292 778 l 201 778 l 201 236 l 299 139 m 903 681 l 806 778 l 708 778 l 708 -292 l 806 -292 l 903 -194 l 903 681 m 264 -292 l 375 -292 l 375 -125 l 181 -125 l 181 -208 l 264 -292 m 374 944 l 453 1024 l 374 1103 l 294 1024 l 374 944 m 678 944 l 757 1024 l 678 1103 l 599 1024 l 678 944 z "},"Ā":{"ha":1235,"x_min":14,"x_max":1221,"o":"m 1221 56 l 1221 0 l 813 0 l 646 0 l 646 56 l 794 56 l 678 417 l 293 417 l 175 56 l 317 56 l 317 0 l 90 0 l 14 0 l 14 56 l 108 56 l 451 1111 l 783 1111 l 1126 56 l 1221 56 m 1061 56 l 736 1056 l 535 1056 l 860 56 l 1061 56 m 660 472 l 485 1008 l 311 472 l 660 472 m 850 1278 l 850 1222 l 378 1222 l 378 1278 l 850 1278 z "},"ā":{"ha":1014,"x_min":83,"x_max":986,"o":"m 986 56 l 986 0 l 671 0 l 588 85 l 503 0 l 199 0 l 83 115 l 83 329 l 199 444 l 556 444 l 556 778 l 410 778 l 410 556 l 118 556 l 118 718 l 233 833 l 760 833 l 875 718 l 875 56 l 986 56 m 347 778 l 264 778 l 181 694 l 181 611 l 347 611 l 347 778 m 701 56 l 813 56 l 813 694 l 729 778 l 618 778 l 618 139 l 701 56 m 229 56 l 347 56 l 347 389 l 229 389 l 146 306 l 146 139 l 229 56 m 556 139 l 556 389 l 410 389 l 410 56 l 472 56 l 556 139 m 732 1000 l 732 944 l 260 944 l 260 1000 l 732 1000 z "},"Ă":{"ha":1235,"x_min":14,"x_max":1221,"o":"m 794 1194 l 896 1296 l 896 1417 l 833 1417 l 833 1319 l 764 1250 l 458 1250 l 389 1319 l 389 1417 l 326 1417 l 326 1296 l 428 1194 l 794 1194 m 1221 56 l 1221 0 l 813 0 l 646 0 l 646 56 l 794 56 l 678 417 l 293 417 l 175 56 l 317 56 l 317 0 l 90 0 l 14 0 l 14 56 l 108 56 l 451 1111 l 783 1111 l 1126 56 l 1221 56 m 1061 56 l 736 1056 l 535 1056 l 860 56 l 1061 56 m 660 472 l 485 1008 l 311 472 l 660 472 z "},"ă":{"ha":1014,"x_min":83,"x_max":986,"o":"m 986 56 l 986 0 l 671 0 l 588 85 l 503 0 l 199 0 l 83 115 l 83 329 l 199 444 l 556 444 l 556 778 l 410 778 l 410 556 l 118 556 l 118 718 l 233 833 l 760 833 l 875 718 l 875 56 l 986 56 m 347 778 l 264 778 l 181 694 l 181 611 l 347 611 l 347 778 m 701 56 l 813 56 l 813 694 l 729 778 l 618 778 l 618 139 l 701 56 m 229 56 l 347 56 l 347 389 l 229 389 l 146 306 l 146 139 l 229 56 m 556 139 l 556 389 l 410 389 l 410 56 l 472 56 l 556 139 m 675 917 l 776 1018 l 776 1139 l 714 1139 l 714 1042 l 644 972 l 339 972 l 269 1042 l 269 1139 l 207 1139 l 207 1018 l 308 917 l 675 917 z "},"Ą":{"ha":1242,"x_min":14,"x_max":1228,"o":"m 1228 56 l 1228 0 l 858 0 l 704 -154 l 704 -237 l 760 -293 l 871 -293 l 926 -237 l 969 -281 l 901 -349 l 729 -349 l 642 -261 l 642 -131 l 808 36 l 685 417 l 294 417 l 175 56 l 324 56 l 324 0 l 90 0 l 14 0 l 14 56 l 108 56 l 458 1111 l 790 1111 l 1133 56 l 1228 56 m 1068 56 l 743 1056 l 542 1056 l 867 56 l 1068 56 m 667 472 l 492 1010 l 314 472 l 667 472 z "},"ą":{"ha":1014,"x_min":83,"x_max":986,"o":"m 986 56 l 986 0 l 671 0 l 588 85 l 503 0 l 371 -132 l 371 -215 l 426 -271 l 538 -271 l 593 -215 l 636 -258 l 568 -326 l 396 -326 l 308 -239 l 308 -108 l 417 0 l 199 0 l 83 115 l 83 329 l 199 444 l 556 444 l 556 778 l 410 778 l 410 556 l 118 556 l 118 718 l 233 833 l 760 833 l 875 718 l 875 56 l 986 56 m 347 778 l 264 778 l 181 694 l 181 611 l 347 611 l 347 778 m 701 56 l 813 56 l 813 694 l 729 778 l 618 778 l 618 139 l 701 56 m 229 56 l 347 56 l 347 389 l 229 389 l 146 306 l 146 139 l 229 56 m 556 389 l 410 389 l 410 56 l 472 56 l 556 139 l 556 389 z "},"Ć":{"ha":1000,"x_min":69,"x_max":931,"o":"m 931 138 l 793 0 l 213 0 l 69 143 l 69 968 l 213 1111 l 761 1111 l 858 1014 l 858 1125 l 921 1125 l 921 864 l 921 750 l 858 750 l 858 928 l 731 1056 l 389 1056 l 389 56 l 763 56 l 888 181 l 931 138 m 243 56 l 326 56 l 326 1056 l 243 1056 l 132 944 l 132 167 l 243 56 m 719 1394 l 653 1394 l 513 1194 l 579 1194 l 719 1394 z "},"ć":{"ha":840,"x_min":56,"x_max":799,"o":"m 521 556 l 521 778 l 375 778 l 375 56 l 639 56 l 749 165 l 792 122 l 669 0 l 185 0 l 56 129 l 56 704 l 185 833 l 697 833 l 799 732 l 799 556 l 521 556 m 313 778 l 215 778 l 118 681 l 118 153 l 215 56 l 313 56 l 313 778 m 583 611 l 736 611 l 736 708 l 667 778 l 583 778 l 583 611 m 619 1117 l 553 1117 l 413 917 l 479 917 l 619 1117 z "},"Ċ":{"ha":1000,"x_min":69,"x_max":931,"o":"m 931 138 l 793 0 l 213 0 l 69 143 l 69 968 l 213 1111 l 761 1111 l 858 1014 l 858 1125 l 921 1125 l 921 864 l 921 750 l 858 750 l 858 928 l 731 1056 l 389 1056 l 389 56 l 763 56 l 888 181 l 931 138 m 243 56 l 326 56 l 326 1056 l 243 1056 l 132 944 l 132 167 l 243 56 m 511 1222 l 590 1301 l 511 1381 l 432 1301 l 511 1222 z "},"ċ":{"ha":840,"x_min":56,"x_max":799,"o":"m 521 556 l 521 778 l 375 778 l 375 56 l 639 56 l 749 165 l 792 122 l 669 0 l 185 0 l 56 129 l 56 704 l 185 833 l 697 833 l 799 732 l 799 556 l 521 556 m 313 778 l 215 778 l 118 681 l 118 153 l 215 56 l 313 56 l 313 778 m 583 611 l 736 611 l 736 708 l 667 778 l 583 778 l 583 611 m 438 944 l 517 1024 l 438 1103 l 358 1024 l 438 944 z "},"Č":{"ha":1000,"x_min":69,"x_max":931,"o":"m 931 138 l 793 0 l 213 0 l 69 143 l 69 968 l 213 1111 l 761 1111 l 858 1014 l 858 1125 l 921 1125 l 921 864 l 921 750 l 858 750 l 858 928 l 731 1056 l 389 1056 l 389 56 l 763 56 l 888 181 l 931 138 m 243 56 l 326 56 l 326 1056 l 243 1056 l 132 944 l 132 167 l 243 56 m 728 1408 l 564 1194 l 494 1194 l 331 1408 l 400 1408 l 529 1240 l 658 1408 l 728 1408 z "},"č":{"ha":840,"x_min":56,"x_max":799,"o":"m 521 556 l 521 778 l 375 778 l 375 56 l 639 56 l 749 165 l 792 122 l 669 0 l 185 0 l 56 129 l 56 704 l 185 833 l 697 833 l 799 732 l 799 556 l 521 556 m 313 778 l 215 778 l 118 681 l 118 153 l 215 56 l 313 56 l 313 778 m 583 611 l 736 611 l 736 708 l 667 778 l 583 778 l 583 611 m 635 1131 l 471 917 l 401 917 l 238 1131 l 307 1131 l 436 963 l 565 1131 l 635 1131 z "},"Ď":{"ha":1097,"x_min":28,"x_max":1028,"o":"m 1028 968 l 1028 143 l 885 0 l 28 0 l 28 56 l 139 56 l 139 1056 l 28 1056 l 28 1111 l 885 1111 l 1028 968 m 201 56 l 396 56 l 396 1056 l 201 1056 l 201 56 m 458 1056 l 458 56 l 708 56 l 708 1056 l 458 1056 m 965 944 l 854 1056 l 771 1056 l 771 56 l 854 56 l 965 167 l 965 944 m 749 1408 l 585 1194 l 515 1194 l 351 1408 l 421 1408 l 550 1240 l 679 1408 l 749 1408 z "},"ď":{"ha":1315,"x_min":69,"x_max":1288,"o":"m 1043 56 l 1043 0 l 742 0 l 644 99 l 546 0 l 199 0 l 69 129 l 69 704 l 199 833 l 538 833 l 613 758 l 613 1167 l 501 1167 l 501 1222 l 803 1222 l 932 1093 l 932 56 l 1043 56 m 772 56 l 869 56 l 869 1069 l 772 1167 l 675 1167 l 675 153 l 772 56 m 229 56 l 333 56 l 333 778 l 229 778 l 132 681 l 132 153 l 229 56 m 613 153 l 613 672 l 507 778 l 396 778 l 396 56 l 515 56 l 613 153 m 1288 1222 l 1029 1222 l 1029 861 l 1226 861 l 1288 1222 m 1092 917 l 1092 1167 l 1213 1167 l 1172 917 l 1092 917 z "},"Đ":{"ha":1097,"x_min":28,"x_max":1028,"o":"m 1028 968 l 1028 143 l 885 0 l 28 0 l 28 56 l 139 56 l 139 583 l 28 583 l 28 639 l 139 639 l 139 1056 l 28 1056 l 28 1111 l 885 1111 l 1028 968 m 201 639 l 396 639 l 396 1056 l 201 1056 l 201 639 m 583 639 l 583 583 l 458 583 l 458 56 l 708 56 l 708 1056 l 458 1056 l 458 639 l 583 639 m 965 944 l 854 1056 l 771 1056 l 771 56 l 854 56 l 965 167 l 965 944 m 201 56 l 396 56 l 396 583 l 201 583 l 201 56 z "},"đ":{"ha":1057,"x_min":69,"x_max":1043,"o":"m 932 944 l 932 56 l 1043 56 l 1043 0 l 742 0 l 644 99 l 546 0 l 199 0 l 69 129 l 69 704 l 199 833 l 538 833 l 613 758 l 613 944 l 307 944 l 307 1000 l 613 1000 l 613 1167 l 501 1167 l 501 1222 l 803 1222 l 932 1093 l 932 1000 l 1043 1000 l 1043 944 l 932 944 m 675 1000 l 869 1000 l 869 1069 l 772 1167 l 675 1167 l 675 1000 m 869 944 l 675 944 l 675 153 l 772 56 l 869 56 l 869 944 m 229 56 l 333 56 l 333 778 l 229 778 l 132 681 l 132 153 l 229 56 m 613 153 l 613 672 l 507 778 l 396 778 l 396 56 l 515 56 l 613 153 z "},"Ē":{"ha":1004,"x_min":28,"x_max":921,"o":"m 858 792 l 858 1056 l 458 1056 l 458 597 l 817 597 l 817 542 l 458 542 l 458 56 l 858 56 l 858 319 l 921 319 l 921 0 l 858 0 l 28 0 l 28 56 l 139 56 l 139 1056 l 28 1056 l 28 1111 l 889 1111 l 921 1111 l 921 792 l 858 792 m 396 1056 l 201 1056 l 201 56 l 396 56 l 396 1056 m 767 1278 l 767 1222 l 294 1222 l 294 1278 l 767 1278 z "},"ē":{"ha":931,"x_min":69,"x_max":868,"o":"m 701 1000 l 701 944 l 229 944 l 229 1000 l 701 1000 m 868 129 l 739 0 l 199 0 l 69 129 l 69 704 l 199 833 l 732 833 l 861 704 l 861 476 l 732 347 l 389 347 l 389 56 l 708 56 l 825 172 l 868 129 m 229 56 l 326 56 l 326 778 l 229 778 l 132 681 l 132 153 l 229 56 m 389 403 l 542 403 l 542 778 l 389 778 l 389 403 m 701 778 l 604 778 l 604 403 l 701 403 l 799 500 l 799 681 l 701 778 z "},"Ė":{"ha":1004,"x_min":28,"x_max":921,"o":"m 858 792 l 858 1056 l 458 1056 l 458 597 l 817 597 l 817 542 l 458 542 l 458 56 l 858 56 l 858 319 l 921 319 l 921 0 l 858 0 l 28 0 l 28 56 l 139 56 l 139 1056 l 28 1056 l 28 1111 l 889 1111 l 921 1111 l 921 792 l 858 792 m 396 1056 l 201 1056 l 201 56 l 396 56 l 396 1056 m 526 1222 l 606 1301 l 526 1381 l 447 1301 l 526 1222 z "},"ė":{"ha":931,"x_min":69,"x_max":868,"o":"m 472 944 l 551 1024 l 472 1103 l 393 1024 l 472 944 m 868 129 l 739 0 l 199 0 l 69 129 l 69 704 l 199 833 l 732 833 l 861 704 l 861 476 l 732 347 l 389 347 l 389 56 l 708 56 l 825 172 l 868 129 m 229 56 l 326 56 l 326 778 l 229 778 l 132 681 l 132 153 l 229 56 m 389 403 l 542 403 l 542 778 l 389 778 l 389 403 m 701 778 l 604 778 l 604 403 l 701 403 l 799 500 l 799 681 l 701 778 z "},"Ę":{"ha":1004,"x_min":28,"x_max":1032,"o":"m 1032 -281 l 964 -349 l 792 -349 l 704 -261 l 704 -131 l 835 0 l 28 0 l 28 56 l 139 56 l 139 1056 l 28 1056 l 28 1111 l 889 1111 l 921 1111 l 921 792 l 858 792 l 858 1056 l 458 1056 l 458 597 l 817 597 l 817 542 l 458 542 l 458 56 l 858 56 l 858 319 l 921 319 l 921 0 l 767 -154 l 767 -237 l 822 -293 l 933 -293 l 989 -237 l 1032 -281 m 201 56 l 396 56 l 396 1056 l 201 1056 l 201 56 z "},"ę":{"ha":917,"x_min":69,"x_max":872,"o":"m 872 -258 l 804 -326 l 632 -326 l 544 -239 l 544 -108 l 653 0 l 199 0 l 69 129 l 69 704 l 199 833 l 732 833 l 861 704 l 861 476 l 732 347 l 389 347 l 389 56 l 708 56 l 825 172 l 868 129 l 739 0 l 607 -132 l 607 -215 l 663 -271 l 774 -271 l 829 -215 l 872 -258 m 229 56 l 326 56 l 326 778 l 229 778 l 132 681 l 132 153 l 229 56 m 389 403 l 542 403 l 542 778 l 389 778 l 389 403 m 701 778 l 604 778 l 604 403 l 701 403 l 799 500 l 799 681 l 701 778 z "},"Ě":{"ha":1004,"x_min":28,"x_max":921,"o":"m 858 792 l 858 1056 l 458 1056 l 458 597 l 817 597 l 817 542 l 458 542 l 458 56 l 858 56 l 858 319 l 921 319 l 921 0 l 858 0 l 28 0 l 28 56 l 139 56 l 139 1056 l 28 1056 l 28 1111 l 889 1111 l 921 1111 l 921 792 l 858 792 m 396 1056 l 201 1056 l 201 56 l 396 56 l 396 1056 m 731 1408 l 567 1194 l 497 1194 l 333 1408 l 403 1408 l 532 1240 l 661 1408 l 731 1408 z "},"ě":{"ha":917,"x_min":69,"x_max":868,"o":"m 868 129 l 739 0 l 199 0 l 69 129 l 69 704 l 199 833 l 732 833 l 861 704 l 861 476 l 732 347 l 389 347 l 389 56 l 708 56 l 825 172 l 868 129 m 229 56 l 326 56 l 326 778 l 229 778 l 132 681 l 132 153 l 229 56 m 389 403 l 542 403 l 542 778 l 389 778 l 389 403 m 701 778 l 604 778 l 604 403 l 701 403 l 799 500 l 799 681 l 701 778 m 671 1131 l 507 917 l 438 917 l 274 1131 l 343 1131 l 472 963 l 601 1131 l 671 1131 z "},"Ğ":{"ha":1160,"x_min":111,"x_max":1118,"o":"m 1118 514 l 1021 514 l 1021 0 l 844 0 l 740 106 l 635 0 l 254 0 l 111 143 l 111 968 l 254 1111 l 817 1111 l 914 1014 l 914 1125 l 976 1125 l 976 864 l 976 778 l 914 778 l 914 928 l 786 1056 l 431 1056 l 431 56 l 604 56 l 708 160 l 708 514 l 597 514 l 597 569 l 1118 569 l 1118 514 m 285 56 l 368 56 l 368 1056 l 285 1056 l 174 944 l 174 167 l 285 56 m 958 514 l 771 514 l 771 160 l 875 56 l 958 56 l 958 514 m 763 1194 l 864 1296 l 864 1417 l 801 1417 l 801 1319 l 732 1250 l 426 1250 l 357 1319 l 357 1417 l 294 1417 l 294 1296 l 396 1194 l 763 1194 z "},"ğ":{"ha":1000,"x_min":69,"x_max":931,"o":"m 931 833 l 931 778 l 931 -218 l 801 -347 l 185 -347 l 69 -232 l 69 -69 l 382 -69 l 382 -292 l 611 -292 l 611 150 l 544 83 l 206 83 l 76 213 l 76 704 l 206 833 l 544 833 l 643 736 l 740 833 l 931 833 m 236 139 l 326 139 l 326 778 l 236 778 l 139 681 l 139 236 l 236 139 m 611 236 l 611 681 l 514 778 l 389 778 l 389 139 l 514 139 l 611 236 m 868 778 l 771 778 l 674 681 l 674 -292 l 771 -292 l 868 -194 l 868 778 m 215 -292 l 319 -292 l 319 -125 l 132 -125 l 132 -208 l 215 -292 m 713 917 l 814 1018 l 814 1139 l 751 1139 l 751 1042 l 682 972 l 376 972 l 307 1042 l 307 1139 l 244 1139 l 244 1018 l 346 917 l 713 917 z "},"Ġ":{"ha":1160,"x_min":111,"x_max":1118,"o":"m 1118 514 l 1021 514 l 1021 0 l 844 0 l 740 106 l 635 0 l 254 0 l 111 143 l 111 968 l 254 1111 l 817 1111 l 914 1014 l 914 1125 l 976 1125 l 976 864 l 976 778 l 914 778 l 914 928 l 786 1056 l 431 1056 l 431 56 l 604 56 l 708 160 l 708 514 l 597 514 l 597 569 l 1118 569 l 1118 514 m 285 56 l 368 56 l 368 1056 l 285 1056 l 174 944 l 174 167 l 285 56 m 958 514 l 771 514 l 771 160 l 875 56 l 958 56 l 958 514 m 578 1222 l 657 1301 l 578 1381 l 499 1301 l 578 1222 z "},"ġ":{"ha":1000,"x_min":69,"x_max":931,"o":"m 931 833 l 931 778 l 931 -218 l 801 -347 l 185 -347 l 69 -232 l 69 -69 l 382 -69 l 382 -292 l 611 -292 l 611 150 l 544 83 l 206 83 l 76 213 l 76 704 l 206 833 l 544 833 l 643 736 l 740 833 l 931 833 m 236 139 l 326 139 l 326 778 l 236 778 l 139 681 l 139 236 l 236 139 m 611 236 l 611 681 l 514 778 l 389 778 l 389 139 l 514 139 l 611 236 m 868 778 l 771 778 l 674 681 l 674 -292 l 771 -292 l 868 -194 l 868 778 m 215 -292 l 319 -292 l 319 -125 l 132 -125 l 132 -208 l 215 -292 m 511 944 l 590 1024 l 511 1103 l 432 1024 l 511 944 z "},"Ħ":{"ha":1236,"x_min":28,"x_max":1208,"o":"m 1097 1056 l 1097 847 l 1208 847 l 1208 792 l 1097 792 l 1097 56 l 1208 56 l 1208 0 l 681 0 l 681 56 l 778 56 l 778 542 l 458 542 l 458 56 l 556 56 l 556 0 l 28 0 l 28 56 l 139 56 l 139 792 l 28 792 l 28 847 l 139 847 l 139 1056 l 28 1056 l 28 1111 l 556 1111 l 556 1056 l 458 1056 l 458 847 l 778 847 l 778 1056 l 681 1056 l 681 1111 l 1208 1111 l 1208 1056 l 1097 1056 m 201 847 l 396 847 l 396 1056 l 201 1056 l 201 847 m 1035 1056 l 840 1056 l 840 847 l 1035 847 l 1035 1056 m 396 56 l 396 792 l 201 792 l 201 56 l 396 56 m 778 597 l 778 792 l 458 792 l 458 597 l 778 597 m 1035 792 l 840 792 l 840 56 l 1035 56 l 1035 792 z "},"ħ":{"ha":1076,"x_min":0,"x_max":1063,"o":"m 1063 56 l 1063 0 l 761 0 l 632 129 l 632 694 l 521 694 l 431 604 l 431 56 l 514 56 l 514 0 l 240 0 l 111 129 l 111 889 l 0 889 l 0 944 l 111 944 l 111 1167 l 0 1167 l 0 1222 l 301 1222 l 431 1093 l 431 944 l 625 944 l 625 889 l 431 889 l 431 690 l 490 750 l 822 750 l 951 621 l 951 56 l 1063 56 m 368 56 l 368 1069 l 271 1167 l 174 1167 l 174 153 l 271 56 l 368 56 m 792 56 l 889 56 l 889 597 l 792 694 l 694 694 l 694 153 l 792 56 z "},"Ĩ":{"ha":597,"x_min":28,"x_max":596,"o":"m 458 1056 l 458 56 l 569 56 l 569 0 l 28 0 l 28 56 l 139 56 l 139 1056 l 28 1056 l 28 1111 l 569 1111 l 569 1056 l 458 1056 m 396 1056 l 201 1056 l 201 56 l 396 56 l 396 1056 m 136 1338 l 36 1238 l 79 1194 l 167 1282 l 257 1282 l 344 1194 l 496 1194 l 596 1294 l 553 1338 l 465 1250 l 375 1250 l 288 1338 l 136 1338 z "},"ĩ":{"ha":597,"x_min":28,"x_max":596,"o":"m 79 917 l 36 960 l 136 1060 l 288 1060 l 375 972 l 465 972 l 553 1060 l 596 1017 l 496 917 l 344 917 l 257 1004 l 167 1004 l 79 917 m 458 56 l 569 56 l 569 0 l 268 0 l 139 129 l 139 778 l 28 778 l 28 833 l 329 833 l 458 704 l 458 56 m 299 56 l 396 56 l 396 681 l 299 778 l 201 778 l 201 153 l 299 56 z "},"Ī":{"ha":597,"x_min":28,"x_max":569,"o":"m 458 1056 l 458 56 l 569 56 l 569 0 l 28 0 l 28 56 l 139 56 l 139 1056 l 28 1056 l 28 1111 l 569 1111 l 569 1056 l 458 1056 m 396 1056 l 201 1056 l 201 56 l 396 56 l 396 1056 m 528 1278 l 528 1222 l 56 1222 l 56 1278 l 528 1278 z "},"ī":{"ha":597,"x_min":-4,"x_max":569,"o":"m 468 944 l -4 944 l -4 1000 l 468 1000 l 468 944 m 569 56 l 569 0 l 268 0 l 139 129 l 139 778 l 28 778 l 28 833 l 329 833 l 458 704 l 458 56 l 569 56 m 299 56 l 396 56 l 396 681 l 299 778 l 201 778 l 201 153 l 299 56 z "},"Į":{"ha":597,"x_min":28,"x_max":569,"o":"m 458 1056 l 458 56 l 569 56 l 569 0 l 361 0 l 215 -146 l 215 -229 l 271 -285 l 382 -285 l 438 -229 l 481 -272 l 413 -340 l 240 -340 l 153 -253 l 153 -122 l 275 0 l 28 0 l 28 56 l 139 56 l 139 1056 l 28 1056 l 28 1111 l 569 1111 l 569 1056 l 458 1056 m 396 1056 l 201 1056 l 201 56 l 396 56 l 396 1056 z "},"į":{"ha":597,"x_min":28,"x_max":569,"o":"m 281 944 l 69 1157 l 282 1368 l 493 1156 l 281 944 m 153 1157 l 281 1028 l 410 1156 l 282 1285 l 153 1157 m 167 -132 l 167 -215 l 222 -271 l 333 -271 l 389 -215 l 432 -258 l 364 -326 l 192 -326 l 104 -239 l 104 -108 l 240 28 l 139 129 l 139 778 l 28 778 l 28 833 l 329 833 l 458 704 l 458 56 l 569 56 l 569 0 l 299 0 l 167 -132 m 201 153 l 299 56 l 396 56 l 396 681 l 299 778 l 201 778 l 201 153 z "},"İ":{"ha":597,"x_min":28,"x_max":569,"o":"m 458 1056 l 458 56 l 569 56 l 569 0 l 28 0 l 28 56 l 139 56 l 139 1056 l 28 1056 l 28 1111 l 569 1111 l 569 1056 l 458 1056 m 396 1056 l 201 1056 l 201 56 l 396 56 l 396 1056 m 299 1222 l 378 1301 l 299 1381 l 219 1301 l 299 1222 z "},"Ĺ":{"ha":986,"x_min":28,"x_max":944,"o":"m 944 319 l 944 0 l 882 0 l 28 0 l 28 56 l 139 56 l 139 1056 l 28 1056 l 28 1111 l 569 1111 l 569 1056 l 458 1056 l 458 56 l 882 56 l 882 319 l 944 319 m 201 56 l 396 56 l 396 1056 l 201 1056 l 201 56 m 478 1394 l 411 1394 l 271 1194 l 338 1194 l 478 1394 z "},"ĺ":{"ha":542,"x_min":0,"x_max":514,"o":"m 514 56 l 514 0 l 226 0 l 97 129 l 97 1167 l 0 1167 l 0 1222 l 288 1222 l 417 1093 l 417 56 l 514 56 m 257 56 l 354 56 l 354 1069 l 257 1167 l 160 1167 l 160 153 l 257 56 m 415 1506 l 349 1506 l 208 1306 l 275 1306 l 415 1506 z "},"Ľ":{"ha":986,"x_min":28,"x_max":946,"o":"m 944 319 l 944 0 l 882 0 l 28 0 l 28 56 l 139 56 l 139 1056 l 28 1056 l 28 1111 l 569 1111 l 569 1056 l 458 1056 l 458 56 l 882 56 l 882 319 l 944 319 m 201 56 l 396 56 l 396 1056 l 201 1056 l 201 56 m 946 1111 l 688 1111 l 688 750 l 885 750 l 946 1111 m 750 806 l 750 1056 l 871 1056 l 831 806 l 750 806 z "},"ľ":{"ha":800,"x_min":0,"x_max":772,"o":"m 514 56 l 514 0 l 226 0 l 97 129 l 97 1167 l 0 1167 l 0 1222 l 288 1222 l 417 1093 l 417 56 l 514 56 m 257 56 l 354 56 l 354 1069 l 257 1167 l 160 1167 l 160 153 l 257 56 m 772 1222 l 514 1222 l 514 861 l 711 861 l 772 1222 m 576 917 l 576 1167 l 697 1167 l 657 917 l 576 917 z "},"Ł":{"ha":986,"x_min":-6,"x_max":944,"o":"m 944 319 l 944 0 l 882 0 l 28 0 l 28 56 l 139 56 l 139 450 l 29 390 l -6 446 l 139 524 l 139 1056 l 28 1056 l 28 1111 l 569 1111 l 569 1056 l 458 1056 l 458 697 l 611 779 l 646 724 l 458 622 l 458 56 l 882 56 l 882 319 l 944 319 m 201 558 l 396 663 l 396 1056 l 201 1056 l 201 558 m 201 56 l 396 56 l 396 589 l 201 483 l 201 56 z "},"ł":{"ha":542,"x_min":-44,"x_max":558,"o":"m 417 56 l 514 56 l 514 0 l 226 0 l 97 129 l 97 526 l -14 467 l -44 522 l 97 599 l 97 1167 l 0 1167 l 0 1222 l 288 1222 l 417 1093 l 417 774 l 528 833 l 558 778 l 417 701 l 417 56 m 160 633 l 354 739 l 354 1069 l 257 1167 l 160 1167 l 160 633 m 257 56 l 354 56 l 354 667 l 160 561 l 160 153 l 257 56 z "},"Ń":{"ha":1242,"x_min":28,"x_max":1214,"o":"m 1214 1056 l 1103 1056 l 1103 0 l 1040 0 l 728 0 l 201 1056 l 201 56 l 313 56 l 313 0 l 28 0 l 28 56 l 139 56 l 139 1056 l 28 1056 l 28 1111 l 313 1111 l 514 1111 l 1040 56 l 1040 1056 l 929 1056 l 929 1111 l 1214 1111 l 1214 1056 m 974 56 l 475 1056 l 268 1056 l 767 56 l 974 56 m 814 1394 l 747 1394 l 607 1194 l 674 1194 l 814 1394 z "},"ń":{"ha":1111,"x_min":28,"x_max":1083,"o":"m 1083 56 l 1083 0 l 768 0 l 653 115 l 653 778 l 556 778 l 458 681 l 458 56 l 528 56 l 528 0 l 28 0 l 28 56 l 139 56 l 139 778 l 28 778 l 28 833 l 329 833 l 428 736 l 525 833 l 843 833 l 972 704 l 972 56 l 1083 56 m 396 56 l 396 681 l 299 778 l 201 778 l 201 56 l 396 56 m 799 56 l 910 56 l 910 681 l 813 778 l 715 778 l 715 139 l 799 56 m 710 1117 l 643 1117 l 503 917 l 569 917 l 710 1117 z "},"Ň":{"ha":1242,"x_min":28,"x_max":1214,"o":"m 1214 1056 l 1103 1056 l 1103 0 l 1040 0 l 728 0 l 201 1056 l 201 56 l 313 56 l 313 0 l 28 0 l 28 56 l 139 56 l 139 1056 l 28 1056 l 28 1111 l 313 1111 l 514 1111 l 1040 56 l 1040 1056 l 929 1056 l 929 1111 l 1214 1111 l 1214 1056 m 974 56 l 475 1056 l 268 1056 l 767 56 l 974 56 m 842 1408 l 678 1194 l 608 1194 l 444 1408 l 514 1408 l 643 1240 l 772 1408 l 842 1408 z "},"ň":{"ha":1111,"x_min":28,"x_max":1083,"o":"m 1083 56 l 1083 0 l 768 0 l 653 115 l 653 778 l 556 778 l 458 681 l 458 56 l 528 56 l 528 0 l 28 0 l 28 56 l 139 56 l 139 778 l 28 778 l 28 833 l 329 833 l 428 736 l 525 833 l 843 833 l 972 704 l 972 56 l 1083 56 m 396 56 l 396 681 l 299 778 l 201 778 l 201 56 l 396 56 m 799 56 l 910 56 l 910 681 l 813 778 l 715 778 l 715 139 l 799 56 m 743 1131 l 579 917 l 510 917 l 346 1131 l 415 1131 l 544 963 l 674 1131 l 743 1131 z "},"Ŋ":{"ha":1242,"x_min":28,"x_max":1214,"o":"m 1214 1056 l 1103 1056 l 1103 0 l 1103 -274 l 974 -403 l 669 -403 l 540 -274 l 583 -231 l 700 -347 l 943 -347 l 1040 -250 l 1040 0 l 728 0 l 201 1056 l 201 56 l 313 56 l 313 0 l 28 0 l 28 56 l 139 56 l 139 1056 l 28 1056 l 28 1111 l 313 1111 l 514 1111 l 1040 56 l 1040 1056 l 929 1056 l 929 1111 l 1214 1111 l 1214 1056 m 974 56 l 475 1056 l 268 1056 l 767 56 l 974 56 z "},"ŋ":{"ha":1111,"x_min":28,"x_max":972,"o":"m 972 704 l 972 -274 l 843 -403 l 511 -403 l 396 -287 l 439 -244 l 542 -347 l 653 -347 l 653 778 l 556 778 l 458 681 l 458 56 l 528 56 l 528 0 l 28 0 l 28 56 l 139 56 l 139 778 l 28 778 l 28 833 l 329 833 l 428 736 l 525 833 l 843 833 l 972 704 m 396 56 l 396 681 l 299 778 l 201 778 l 201 56 l 396 56 m 910 681 l 813 778 l 715 778 l 715 -347 l 813 -347 l 910 -250 l 910 681 z "},"Ō":{"ha":1049,"x_min":69,"x_max":979,"o":"m 979 968 l 979 143 l 836 0 l 213 0 l 69 143 l 69 968 l 213 1111 l 836 1111 l 979 968 m 243 56 l 326 56 l 326 1056 l 243 1056 l 132 944 l 132 167 l 243 56 m 389 1056 l 389 56 l 660 56 l 660 1056 l 389 1056 m 917 944 l 806 1056 l 722 1056 l 722 56 l 806 56 l 917 167 l 917 944 m 757 1278 l 757 1222 l 285 1222 l 285 1278 l 757 1278 z "},"ō":{"ha":936,"x_min":69,"x_max":867,"o":"m 867 690 l 867 143 l 724 0 l 213 0 l 69 143 l 69 690 l 213 833 l 724 833 l 867 690 m 243 56 l 340 56 l 340 778 l 243 778 l 132 667 l 132 167 l 243 56 m 403 778 l 403 56 l 533 56 l 533 778 l 403 778 m 804 667 l 693 778 l 596 778 l 596 56 l 693 56 l 804 167 l 804 667 m 697 1000 l 697 944 l 225 944 l 225 1000 l 697 1000 z "},"Ő":{"ha":1049,"x_min":69,"x_max":979,"o":"m 474 1203 l 407 1203 l 533 1458 l 600 1458 l 474 1203 m 675 1203 l 608 1203 l 735 1458 l 801 1458 l 675 1203 m 979 968 l 979 143 l 836 0 l 213 0 l 69 143 l 69 968 l 213 1111 l 836 1111 l 979 968 m 243 56 l 326 56 l 326 1056 l 243 1056 l 132 944 l 132 167 l 243 56 m 389 1056 l 389 56 l 660 56 l 660 1056 l 389 1056 m 917 944 l 806 1056 l 722 1056 l 722 56 l 806 56 l 917 167 l 917 944 z "},"ő":{"ha":936,"x_min":69,"x_max":867,"o":"m 418 925 l 351 925 l 478 1181 l 544 1181 l 418 925 m 619 925 l 553 925 l 679 1181 l 746 1181 l 619 925 m 867 690 l 867 143 l 724 0 l 213 0 l 69 143 l 69 690 l 213 833 l 724 833 l 867 690 m 243 56 l 340 56 l 340 778 l 243 778 l 132 667 l 132 167 l 243 56 m 403 778 l 403 56 l 533 56 l 533 778 l 403 778 m 804 667 l 693 778 l 596 778 l 596 56 l 693 56 l 804 167 l 804 667 z "},"Œ":{"ha":1476,"x_min":69,"x_max":1393,"o":"m 1331 792 l 1331 1056 l 931 1056 l 931 597 l 1289 597 l 1289 542 l 931 542 l 931 56 l 1331 56 l 1331 319 l 1393 319 l 1393 0 l 1331 0 l 213 0 l 69 143 l 69 968 l 213 1111 l 1361 1111 l 1393 1111 l 1393 792 l 1331 792 m 243 56 l 326 56 l 326 1056 l 243 1056 l 132 944 l 132 167 l 243 56 m 389 1056 l 389 56 l 611 56 l 611 1056 l 389 1056 m 868 1056 l 674 1056 l 674 56 l 868 56 l 868 1056 z "},"œ":{"ha":1488,"x_min":69,"x_max":1432,"o":"m 936 347 l 936 132 l 1013 56 l 1203 56 l 1319 172 l 1363 129 l 1233 0 l 982 0 l 903 79 l 824 0 l 213 0 l 69 143 l 69 690 l 213 833 l 550 833 l 635 750 l 718 833 l 1303 833 l 1432 704 l 1432 476 l 1303 347 l 936 347 m 243 56 l 340 56 l 340 778 l 243 778 l 132 667 l 132 167 l 243 56 m 519 778 l 403 778 l 403 56 l 603 56 l 603 694 l 519 778 m 874 136 l 874 778 l 749 778 l 665 694 l 665 56 l 793 56 l 874 136 m 936 403 l 1140 403 l 1140 778 l 936 778 l 936 403 m 1272 778 l 1203 778 l 1203 403 l 1272 403 l 1369 500 l 1369 681 l 1272 778 z "},"Ŕ":{"ha":1157,"x_min":69,"x_max":1157,"o":"m 1157 56 l 1157 0 l 842 0 l 726 115 l 726 528 l 500 528 l 500 56 l 611 56 l 611 0 l 69 0 l 69 56 l 181 56 l 181 1056 l 69 1056 l 69 1111 l 917 1111 l 1046 982 l 1046 671 l 931 556 l 1046 440 l 1046 56 l 1157 56 m 438 56 l 438 1056 l 243 1056 l 243 56 l 438 56 m 726 1056 l 500 1056 l 500 583 l 726 583 l 726 1056 m 886 1056 l 789 1056 l 789 583 l 872 583 l 983 694 l 983 958 l 886 1056 m 872 56 l 983 56 l 983 417 l 872 528 l 789 528 l 789 139 l 872 56 m 775 1394 l 708 1394 l 568 1194 l 635 1194 l 775 1394 z "},"ŕ":{"ha":806,"x_min":28,"x_max":806,"o":"m 806 732 l 763 689 l 674 778 l 556 778 l 458 681 l 458 56 l 569 56 l 569 0 l 268 0 l 139 129 l 139 778 l 28 778 l 28 833 l 329 833 l 428 736 l 525 833 l 704 833 l 806 732 m 396 56 l 396 681 l 299 778 l 201 778 l 201 153 l 299 56 l 396 56 m 581 1117 l 514 1117 l 374 917 l 440 917 l 581 1117 z "},"Ř":{"ha":1157,"x_min":69,"x_max":1157,"o":"m 1157 56 l 1157 0 l 842 0 l 726 115 l 726 528 l 500 528 l 500 56 l 611 56 l 611 0 l 69 0 l 69 56 l 181 56 l 181 1056 l 69 1056 l 69 1111 l 917 1111 l 1046 982 l 1046 671 l 931 556 l 1046 440 l 1046 56 l 1157 56 m 438 56 l 438 1056 l 243 1056 l 243 56 l 438 56 m 726 1056 l 500 1056 l 500 583 l 726 583 l 726 1056 m 886 1056 l 789 1056 l 789 583 l 872 583 l 983 694 l 983 958 l 886 1056 m 872 56 l 983 56 l 983 417 l 872 528 l 789 528 l 789 139 l 872 56 m 800 1408 l 636 1194 l 567 1194 l 403 1408 l 472 1408 l 601 1240 l 731 1408 l 800 1408 z "},"ř":{"ha":806,"x_min":28,"x_max":806,"o":"m 806 732 l 763 689 l 674 778 l 556 778 l 458 681 l 458 56 l 569 56 l 569 0 l 268 0 l 139 129 l 139 778 l 28 778 l 28 833 l 329 833 l 428 736 l 525 833 l 704 833 l 806 732 m 396 56 l 396 681 l 299 778 l 201 778 l 201 153 l 299 56 l 396 56 m 631 1131 l 467 917 l 397 917 l 233 1131 l 303 1131 l 432 963 l 561 1131 l 631 1131 z "},"Ś":{"ha":1015,"x_min":69,"x_max":946,"o":"m 946 321 l 946 129 l 817 0 l 229 0 l 132 97 l 132 -14 l 69 -14 l 69 247 l 69 333 l 132 333 l 132 183 l 260 56 l 707 56 l 83 790 l 83 982 l 213 1111 l 758 1111 l 856 1014 l 856 1125 l 918 1125 l 918 864 l 918 778 l 856 778 l 856 928 l 728 1056 l 322 1056 l 946 321 m 883 300 l 243 1056 l 146 958 l 146 811 l 786 56 l 883 153 l 883 300 m 699 1394 l 632 1394 l 492 1194 l 558 1194 l 699 1394 z "},"ś":{"ha":890,"x_min":83,"x_max":793,"o":"m 793 283 l 793 115 l 678 0 l 240 0 l 146 94 l 146 -14 l 83 -14 l 83 285 l 146 285 l 146 181 l 271 56 l 564 56 l 97 550 l 97 718 l 213 833 l 622 833 l 717 739 l 717 847 l 779 847 l 779 549 l 717 549 l 717 653 l 592 778 l 326 778 l 793 283 m 731 261 l 243 778 l 160 694 l 160 572 l 647 56 l 731 139 l 731 261 m 626 1117 l 560 1117 l 419 917 l 486 917 l 626 1117 z "},"Š":{"ha":1015,"x_min":69,"x_max":946,"o":"m 946 321 l 946 129 l 817 0 l 229 0 l 132 97 l 132 -14 l 69 -14 l 69 247 l 69 333 l 132 333 l 132 183 l 260 56 l 707 56 l 83 790 l 83 982 l 213 1111 l 758 1111 l 856 1014 l 856 1125 l 918 1125 l 918 864 l 918 778 l 856 778 l 856 928 l 728 1056 l 322 1056 l 946 321 m 883 300 l 243 1056 l 146 958 l 146 811 l 786 56 l 883 153 l 883 300 m 717 1408 l 553 1194 l 483 1194 l 319 1408 l 389 1408 l 518 1240 l 647 1408 l 717 1408 z "},"š":{"ha":890,"x_min":83,"x_max":793,"o":"m 793 283 l 793 115 l 678 0 l 240 0 l 146 94 l 146 -14 l 83 -14 l 83 285 l 146 285 l 146 181 l 271 56 l 564 56 l 97 550 l 97 718 l 213 833 l 622 833 l 717 739 l 717 847 l 779 847 l 779 549 l 717 549 l 717 653 l 592 778 l 326 778 l 793 283 m 731 261 l 243 778 l 160 694 l 160 572 l 647 56 l 731 139 l 731 261 m 651 1131 l 488 917 l 418 917 l 254 1131 l 324 1131 l 453 963 l 582 1131 l 651 1131 z "},"Ť":{"ha":1083,"x_min":69,"x_max":1014,"o":"m 1014 792 l 951 792 l 951 1056 l 701 1056 l 701 56 l 813 56 l 813 0 l 271 0 l 271 56 l 382 56 l 382 1056 l 132 1056 l 132 792 l 69 792 l 69 1111 l 132 1111 l 1014 1111 l 1014 792 m 639 1056 l 444 1056 l 444 56 l 639 56 l 639 1056 m 754 1408 l 590 1194 l 521 1194 l 357 1408 l 426 1408 l 556 1240 l 685 1408 l 754 1408 z "},"ť":{"ha":674,"x_min":14,"x_max":793,"o":"m 646 129 l 517 0 l 240 0 l 111 129 l 111 1014 l 14 1014 l 14 1069 l 294 1069 l 410 954 l 410 750 l 604 750 l 604 694 l 410 694 l 410 56 l 486 56 l 603 172 l 646 129 m 271 56 l 347 56 l 347 931 l 264 1014 l 174 1014 l 174 153 l 271 56 m 793 1222 l 535 1222 l 535 861 l 732 861 l 793 1222 m 597 917 l 597 1167 l 718 1167 l 678 917 l 597 917 z "},"Ŧ":{"ha":1083,"x_min":69,"x_max":1014,"o":"m 1014 792 l 951 792 l 951 1056 l 701 1056 l 701 667 l 882 667 l 882 611 l 701 611 l 701 56 l 813 56 l 813 0 l 271 0 l 271 56 l 382 56 l 382 611 l 201 611 l 201 667 l 382 667 l 382 1056 l 132 1056 l 132 792 l 69 792 l 69 1111 l 132 1111 l 1014 1111 l 1014 792 m 639 1056 l 444 1056 l 444 667 l 639 667 l 639 1056 m 639 611 l 444 611 l 444 56 l 639 56 l 639 611 z "},"ŧ":{"ha":674,"x_min":-14,"x_max":646,"o":"m 646 129 l 517 0 l 240 0 l 111 129 l 111 500 l -14 500 l -14 556 l 111 556 l 111 1014 l 14 1014 l 14 1069 l 294 1069 l 410 954 l 410 750 l 604 750 l 604 694 l 410 694 l 410 556 l 604 556 l 604 500 l 410 500 l 410 56 l 486 56 l 603 172 l 646 129 m 174 556 l 347 556 l 347 931 l 264 1014 l 174 1014 l 174 556 m 271 56 l 347 56 l 347 500 l 174 500 l 174 153 l 271 56 z "},"Ũ":{"ha":1150,"x_min":42,"x_max":1108,"o":"m 1108 1056 l 997 1056 l 997 143 l 854 0 l 296 0 l 153 143 l 153 1056 l 42 1056 l 42 1111 l 583 1111 l 583 1056 l 472 1056 l 472 56 l 824 56 l 935 167 l 935 1056 l 824 1056 l 824 1111 l 1108 1111 l 1108 1056 m 326 56 l 410 56 l 410 1056 l 215 1056 l 215 167 l 326 56 m 468 1338 l 368 1238 l 411 1194 l 499 1282 l 589 1282 l 676 1194 l 828 1194 l 928 1294 l 885 1338 l 797 1250 l 707 1250 l 619 1338 l 468 1338 z "},"ũ":{"ha":1104,"x_min":28,"x_max":1076,"o":"m 1076 56 l 1076 0 l 775 0 l 678 99 l 579 0 l 268 0 l 139 129 l 139 778 l 28 778 l 28 833 l 322 833 l 451 704 l 451 56 l 549 56 l 646 153 l 646 808 l 646 833 l 836 833 l 965 704 l 965 56 l 1076 56 m 299 56 l 389 56 l 389 681 l 292 778 l 201 778 l 201 153 l 299 56 m 806 56 l 903 56 l 903 681 l 806 778 l 708 778 l 708 153 l 806 56 m 353 1060 l 253 960 l 296 917 l 383 1004 l 474 1004 l 561 917 l 713 917 l 813 1017 l 769 1060 l 682 972 l 592 972 l 504 1060 l 353 1060 z "},"Ū":{"ha":1150,"x_min":42,"x_max":1108,"o":"m 1108 1056 l 997 1056 l 997 143 l 854 0 l 296 0 l 153 143 l 153 1056 l 42 1056 l 42 1111 l 583 1111 l 583 1056 l 472 1056 l 472 56 l 824 56 l 935 167 l 935 1056 l 824 1056 l 824 1111 l 1108 1111 l 1108 1056 m 326 56 l 410 56 l 410 1056 l 215 1056 l 215 167 l 326 56 m 889 1278 l 889 1222 l 417 1222 l 417 1278 l 889 1278 z "},"ū":{"ha":1104,"x_min":28,"x_max":1076,"o":"m 1076 56 l 1076 0 l 775 0 l 678 99 l 579 0 l 268 0 l 139 129 l 139 778 l 28 778 l 28 833 l 322 833 l 451 704 l 451 56 l 549 56 l 646 153 l 646 808 l 646 833 l 836 833 l 965 704 l 965 56 l 1076 56 m 299 56 l 389 56 l 389 681 l 292 778 l 201 778 l 201 153 l 299 56 m 806 56 l 903 56 l 903 681 l 806 778 l 708 778 l 708 153 l 806 56 m 731 1000 l 731 944 l 258 944 l 258 1000 l 731 1000 z "},"Ů":{"ha":1150,"x_min":42,"x_max":1108,"o":"m 1108 1056 l 997 1056 l 997 143 l 854 0 l 296 0 l 153 143 l 153 1056 l 42 1056 l 42 1111 l 583 1111 l 583 1056 l 472 1056 l 472 56 l 824 56 l 935 167 l 935 1056 l 824 1056 l 824 1111 l 1108 1111 l 1108 1056 m 326 56 l 410 56 l 410 1056 l 215 1056 l 215 167 l 326 56 m 706 1167 l 858 1318 l 707 1471 l 554 1319 l 706 1167 m 621 1319 l 707 1404 l 792 1318 l 706 1233 l 621 1319 z "},"ů":{"ha":1104,"x_min":28,"x_max":1076,"o":"m 1076 56 l 1076 0 l 775 0 l 678 99 l 579 0 l 268 0 l 139 129 l 139 778 l 28 778 l 28 833 l 322 833 l 451 704 l 451 56 l 549 56 l 646 153 l 646 808 l 646 833 l 836 833 l 965 704 l 965 56 l 1076 56 m 299 56 l 389 56 l 389 681 l 292 778 l 201 778 l 201 153 l 299 56 m 806 56 l 903 56 l 903 681 l 806 778 l 708 778 l 708 153 l 806 56 m 529 889 l 682 1040 l 531 1193 l 378 1042 l 529 889 m 444 1042 l 531 1126 l 615 1040 l 529 956 l 444 1042 z "},"Ű":{"ha":1150,"x_min":42,"x_max":1108,"o":"m 626 1203 l 560 1203 l 686 1458 l 753 1458 l 626 1203 m 828 1203 l 761 1203 l 888 1458 l 954 1458 l 828 1203 m 1108 1056 l 997 1056 l 997 143 l 854 0 l 296 0 l 153 143 l 153 1056 l 42 1056 l 42 1111 l 583 1111 l 583 1056 l 472 1056 l 472 56 l 824 56 l 935 167 l 935 1056 l 824 1056 l 824 1111 l 1108 1111 l 1108 1056 m 326 56 l 410 56 l 410 1056 l 215 1056 l 215 167 l 326 56 z "},"ű":{"ha":1104,"x_min":28,"x_max":1076,"o":"m 428 925 l 361 925 l 488 1181 l 554 1181 l 428 925 m 629 925 l 563 925 l 689 1181 l 756 1181 l 629 925 m 1076 56 l 1076 0 l 775 0 l 678 99 l 579 0 l 268 0 l 139 129 l 139 778 l 28 778 l 28 833 l 322 833 l 451 704 l 451 56 l 549 56 l 646 153 l 646 808 l 646 833 l 836 833 l 965 704 l 965 56 l 1076 56 m 299 56 l 389 56 l 389 681 l 292 778 l 201 778 l 201 153 l 299 56 m 806 56 l 903 56 l 903 681 l 806 778 l 708 778 l 708 153 l 806 56 z "},"Ų":{"ha":1150,"x_min":42,"x_max":1108,"o":"m 1108 1056 l 997 1056 l 997 143 l 854 0 l 653 0 l 521 -132 l 521 -215 l 576 -271 l 688 -271 l 743 -215 l 786 -258 l 718 -326 l 546 -326 l 458 -239 l 458 -108 l 567 0 l 296 0 l 153 143 l 153 1056 l 42 1056 l 42 1111 l 583 1111 l 583 1056 l 472 1056 l 472 56 l 824 56 l 935 167 l 935 1056 l 824 1056 l 824 1111 l 1108 1111 l 1108 1056 m 326 56 l 410 56 l 410 1056 l 215 1056 l 215 167 l 326 56 z "},"ų":{"ha":1104,"x_min":28,"x_max":1076,"o":"m 679 -132 l 679 -215 l 735 -271 l 846 -271 l 901 -215 l 944 -258 l 876 -326 l 704 -326 l 617 -239 l 617 -108 l 750 25 l 678 99 l 579 0 l 268 0 l 139 129 l 139 778 l 28 778 l 28 833 l 322 833 l 451 704 l 451 56 l 549 56 l 646 153 l 646 808 l 646 833 l 836 833 l 965 704 l 965 56 l 1076 56 l 1076 0 l 811 0 l 679 -132 m 299 56 l 389 56 l 389 681 l 292 778 l 201 778 l 201 153 l 299 56 m 708 153 l 806 56 l 903 56 l 903 681 l 806 778 l 708 778 l 708 153 z "},"Ŵ":{"ha":1704,"x_min":14,"x_max":1690,"o":"m 978 1194 l 849 1363 l 719 1194 l 650 1194 l 814 1408 l 883 1408 l 1047 1194 l 978 1194 m 1690 1056 l 1599 1056 l 1315 0 l 983 0 l 851 489 l 721 0 l 389 0 l 106 1056 l 14 1056 l 14 1111 l 422 1111 l 540 1111 l 1017 1111 l 1135 1111 l 1135 1056 l 1032 1056 l 1282 124 l 1532 1056 l 1381 1056 l 1381 1111 l 1614 1111 l 1690 1111 l 1690 1056 m 638 56 l 375 1056 l 174 1056 l 436 56 l 638 56 m 819 611 l 700 1056 l 511 1056 l 438 1056 l 688 124 l 819 611 m 1232 56 l 969 1056 l 768 1056 l 1031 56 l 1232 56 z "},"ŵ":{"ha":1522,"x_min":14,"x_max":1508,"o":"m 888 917 l 758 1085 l 629 917 l 560 917 l 724 1131 l 793 1131 l 957 917 l 888 917 m 1508 778 l 1417 778 l 1208 0 l 890 0 l 763 478 l 633 0 l 315 0 l 107 778 l 14 778 l 14 833 l 410 833 l 501 833 l 501 778 l 425 778 l 600 125 l 728 603 l 682 778 l 588 778 l 588 833 l 985 833 l 1079 833 l 1079 778 l 1000 778 l 1175 124 l 1350 778 l 1226 778 l 1226 833 l 1432 833 l 1508 833 l 1508 778 m 550 56 l 357 778 l 169 778 l 363 56 l 550 56 m 1125 56 l 932 778 l 744 778 l 938 56 l 1125 56 z "},"Ŷ":{"ha":1069,"x_min":-14,"x_max":1056,"o":"m 693 528 l 693 56 l 804 56 l 804 0 l 263 0 l 263 56 l 374 56 l 374 475 l 90 1056 l -14 1056 l -14 1111 l 521 1111 l 521 1056 l 436 1056 l 660 597 l 882 1056 l 760 1056 l 760 1111 l 1056 1111 l 1056 1056 l 950 1056 l 693 528 m 631 56 l 631 517 l 368 1056 l 158 1056 l 436 486 l 436 56 l 631 56 m 763 1194 l 633 1363 l 504 1194 l 435 1194 l 599 1408 l 668 1408 l 832 1194 l 763 1194 z "},"ŷ":{"ha":1035,"x_min":28,"x_max":965,"o":"m 965 704 l 965 -218 l 836 -347 l 233 -347 l 118 -232 l 118 -69 l 438 -69 l 438 -292 l 646 -292 l 646 150 l 579 83 l 268 83 l 139 213 l 139 778 l 28 778 l 28 833 l 322 833 l 451 704 l 451 139 l 549 139 l 646 236 l 646 778 l 549 778 l 549 833 l 836 833 l 965 704 m 299 139 l 389 139 l 389 681 l 292 778 l 201 778 l 201 236 l 299 139 m 903 681 l 806 778 l 708 778 l 708 -292 l 806 -292 l 903 -194 l 903 681 m 264 -292 l 375 -292 l 375 -125 l 181 -125 l 181 -208 l 264 -292 m 631 917 l 501 1085 l 372 917 l 303 917 l 467 1131 l 536 1131 l 700 917 l 631 917 z "},"Ÿ":{"ha":1069,"x_min":-14,"x_max":1056,"o":"m 693 528 l 693 56 l 804 56 l 804 0 l 263 0 l 263 56 l 374 56 l 374 475 l 90 1056 l -14 1056 l -14 1111 l 521 1111 l 521 1056 l 436 1056 l 660 597 l 882 1056 l 760 1056 l 760 1111 l 1056 1111 l 1056 1056 l 950 1056 l 693 528 m 631 56 l 631 517 l 368 1056 l 158 1056 l 436 486 l 436 56 l 631 56 m 488 1222 l 567 1301 l 488 1381 l 408 1301 l 488 1222 m 792 1222 l 871 1301 l 792 1381 l 713 1301 l 792 1222 z "},"Ź":{"ha":1078,"x_min":56,"x_max":1022,"o":"m 944 319 l 1007 319 l 1007 0 l 944 0 l 99 0 l 56 51 l 626 1056 l 157 1056 l 157 792 l 94 792 l 94 1111 l 157 1111 l 978 1111 l 1022 1058 l 453 56 l 944 56 l 944 319 m 156 56 l 376 56 l 936 1042 l 922 1056 l 703 1056 l 143 69 l 156 56 m 735 1394 l 668 1394 l 528 1194 l 594 1194 l 735 1394 z "},"ź":{"ha":889,"x_min":44,"x_max":844,"o":"m 767 250 l 829 250 l 829 0 l 767 0 l 88 0 l 44 51 l 476 778 l 146 778 l 146 583 l 83 583 l 83 833 l 146 833 l 800 833 l 844 781 l 414 56 l 767 56 l 767 250 m 144 56 l 338 56 l 758 764 l 744 778 l 553 778 l 132 69 l 144 56 m 657 1117 l 590 1117 l 450 917 l 517 917 l 657 1117 z "},"Ż":{"ha":1078,"x_min":56,"x_max":1022,"o":"m 944 319 l 1007 319 l 1007 0 l 944 0 l 99 0 l 56 51 l 626 1056 l 157 1056 l 157 792 l 94 792 l 94 1111 l 157 1111 l 978 1111 l 1022 1058 l 453 56 l 944 56 l 944 319 m 156 56 l 376 56 l 936 1042 l 922 1056 l 703 1056 l 143 69 l 156 56 m 568 1222 l 647 1301 l 568 1381 l 489 1301 l 568 1222 z "},"ż":{"ha":889,"x_min":44,"x_max":844,"o":"m 767 250 l 829 250 l 829 0 l 767 0 l 88 0 l 44 51 l 476 778 l 146 778 l 146 583 l 83 583 l 83 833 l 146 833 l 800 833 l 844 781 l 414 56 l 767 56 l 767 250 m 144 56 l 338 56 l 758 764 l 744 778 l 553 778 l 132 69 l 144 56 m 475 944 l 554 1024 l 475 1103 l 396 1024 l 475 944 z "},"Ž":{"ha":1078,"x_min":56,"x_max":1022,"o":"m 944 319 l 1007 319 l 1007 0 l 944 0 l 99 0 l 56 51 l 626 1056 l 157 1056 l 157 792 l 94 792 l 94 1111 l 157 1111 l 978 1111 l 1022 1058 l 453 56 l 944 56 l 944 319 m 156 56 l 376 56 l 936 1042 l 922 1056 l 703 1056 l 143 69 l 156 56 m 754 1408 l 590 1194 l 521 1194 l 357 1408 l 426 1408 l 556 1240 l 685 1408 l 754 1408 z "},"ž":{"ha":889,"x_min":44,"x_max":844,"o":"m 767 250 l 829 250 l 829 0 l 767 0 l 88 0 l 44 51 l 476 778 l 146 778 l 146 583 l 83 583 l 83 833 l 146 833 l 800 833 l 844 781 l 414 56 l 767 56 l 767 250 m 144 56 l 338 56 l 758 764 l 744 778 l 553 778 l 132 69 l 144 56 m 671 1131 l 507 917 l 438 917 l 274 1131 l 343 1131 l 472 963 l 601 1131 l 671 1131 z "},"ƒ":{"ha":681,"x_min":-107,"x_max":819,"o":"m 583 1167 l 525 833 l 706 833 l 696 778 l 515 778 l 351 -149 l 200 -278 l -107 -278 l -97 -222 l 14 -222 l 190 778 l 79 778 l 89 833 l 200 833 l 246 1093 l 397 1222 l 724 1222 l 819 1107 l 765 1064 l 681 1167 l 583 1167 m 518 1167 l 421 1167 l 307 1069 l 79 -222 l 176 -222 l 290 -125 l 518 1167 z "},"Ǎ":{"ha":1235,"x_min":14,"x_max":1221,"o":"m 1221 56 l 1221 0 l 813 0 l 646 0 l 646 56 l 794 56 l 678 417 l 293 417 l 175 56 l 317 56 l 317 0 l 90 0 l 14 0 l 14 56 l 108 56 l 451 1111 l 783 1111 l 1126 56 l 1221 56 m 1061 56 l 736 1056 l 535 1056 l 860 56 l 1061 56 m 660 472 l 485 1008 l 311 472 l 660 472 m 815 1408 l 651 1194 l 582 1194 l 418 1408 l 488 1408 l 617 1240 l 746 1408 l 815 1408 z "},"ǎ":{"ha":1014,"x_min":83,"x_max":986,"o":"m 986 56 l 986 0 l 671 0 l 588 85 l 503 0 l 199 0 l 83 115 l 83 329 l 199 444 l 556 444 l 556 778 l 410 778 l 410 556 l 118 556 l 118 718 l 233 833 l 760 833 l 875 718 l 875 56 l 986 56 m 347 778 l 264 778 l 181 694 l 181 611 l 347 611 l 347 778 m 701 56 l 813 56 l 813 694 l 729 778 l 618 778 l 618 139 l 701 56 m 229 56 l 347 56 l 347 389 l 229 389 l 146 306 l 146 139 l 229 56 m 556 139 l 556 389 l 410 389 l 410 56 l 472 56 l 556 139 m 692 1131 l 528 917 l 458 917 l 294 1131 l 364 1131 l 493 963 l 622 1131 l 692 1131 z "},"Ǒ":{"ha":1049,"x_min":69,"x_max":979,"o":"m 979 968 l 979 143 l 836 0 l 213 0 l 69 143 l 69 968 l 213 1111 l 836 1111 l 979 968 m 243 56 l 326 56 l 326 1056 l 243 1056 l 132 944 l 132 167 l 243 56 m 389 1056 l 389 56 l 660 56 l 660 1056 l 389 1056 m 917 944 l 806 1056 l 722 1056 l 722 56 l 806 56 l 917 167 l 917 944 m 726 1408 l 563 1194 l 493 1194 l 329 1408 l 399 1408 l 528 1240 l 657 1408 l 726 1408 z "},"ǒ":{"ha":936,"x_min":69,"x_max":867,"o":"m 867 690 l 867 143 l 724 0 l 213 0 l 69 143 l 69 690 l 213 833 l 724 833 l 867 690 m 243 56 l 340 56 l 340 778 l 243 778 l 132 667 l 132 167 l 243 56 m 403 778 l 403 56 l 533 56 l 533 778 l 403 778 m 804 667 l 693 778 l 596 778 l 596 56 l 693 56 l 804 167 l 804 667 m 667 1131 l 503 917 l 433 917 l 269 1131 l 339 1131 l 468 963 l 597 1131 l 667 1131 z "},"̀":{"ha":0,"x_min":125,"x_max":318,"o":"m 318 1194 l 192 1450 l 125 1450 l 251 1194 l 318 1194 z "},"́":{"ha":0,"x_min":139,"x_max":346,"o":"m 346 1394 l 279 1394 l 139 1194 l 206 1194 l 346 1394 z "},"̃":{"ha":0,"x_min":215,"x_max":775,"o":"m 315 1338 l 215 1238 l 258 1194 l 346 1282 l 436 1282 l 524 1194 l 675 1194 l 775 1294 l 732 1338 l 644 1250 l 554 1250 l 467 1338 l 315 1338 z "},"̉":{"ha":0,"x_min":-417,"x_max":-139,"o":"m -349 1579 l -212 1579 l -139 1506 l -139 1400 l -254 1285 l -254 1215 l -317 1215 l -317 1308 l -201 1424 l -201 1482 l -243 1524 l -318 1524 l -374 1468 l -417 1511 l -349 1579 z "},"̣":{"ha":0,"x_min":-297,"x_max":-139,"o":"m -218 -242 l -139 -162 l -218 -83 l -297 -162 l -218 -242 z "},"Ẁ":{"ha":1704,"x_min":14,"x_max":1690,"o":"m 929 1194 l 803 1450 l 736 1450 l 863 1194 l 929 1194 m 1690 1056 l 1599 1056 l 1315 0 l 983 0 l 851 489 l 721 0 l 389 0 l 106 1056 l 14 1056 l 14 1111 l 422 1111 l 540 1111 l 1017 1111 l 1135 1111 l 1135 1056 l 1032 1056 l 1282 124 l 1532 1056 l 1381 1056 l 1381 1111 l 1614 1111 l 1690 1111 l 1690 1056 m 638 56 l 375 1056 l 174 1056 l 436 56 l 638 56 m 819 611 l 700 1056 l 511 1056 l 438 1056 l 688 124 l 819 611 m 1232 56 l 969 1056 l 768 1056 l 1031 56 l 1232 56 z "},"ẁ":{"ha":1522,"x_min":14,"x_max":1508,"o":"m 839 917 l 713 1172 l 646 1172 l 772 917 l 839 917 m 1508 778 l 1417 778 l 1208 0 l 890 0 l 763 478 l 633 0 l 315 0 l 107 778 l 14 778 l 14 833 l 410 833 l 501 833 l 501 778 l 425 778 l 600 125 l 728 603 l 682 778 l 588 778 l 588 833 l 985 833 l 1079 833 l 1079 778 l 1000 778 l 1175 124 l 1350 778 l 1226 778 l 1226 833 l 1432 833 l 1508 833 l 1508 778 m 550 56 l 357 778 l 169 778 l 363 56 l 550 56 m 1125 56 l 932 778 l 744 778 l 938 56 l 1125 56 z "},"Ẃ":{"ha":1704,"x_min":14,"x_max":1690,"o":"m 1058 1394 l 992 1394 l 851 1194 l 918 1194 l 1058 1394 m 1690 1056 l 1599 1056 l 1315 0 l 983 0 l 851 489 l 721 0 l 389 0 l 106 1056 l 14 1056 l 14 1111 l 422 1111 l 540 1111 l 1017 1111 l 1135 1111 l 1135 1056 l 1032 1056 l 1282 124 l 1532 1056 l 1381 1056 l 1381 1111 l 1614 1111 l 1690 1111 l 1690 1056 m 638 56 l 375 1056 l 174 1056 l 436 56 l 638 56 m 819 611 l 700 1056 l 511 1056 l 438 1056 l 688 124 l 819 611 m 1232 56 l 969 1056 l 768 1056 l 1031 56 l 1232 56 z "},"ẃ":{"ha":1522,"x_min":14,"x_max":1508,"o":"m 1508 778 l 1417 778 l 1208 0 l 890 0 l 763 478 l 633 0 l 315 0 l 107 778 l 14 778 l 14 833 l 410 833 l 501 833 l 501 778 l 425 778 l 600 125 l 728 603 l 682 778 l 588 778 l 588 833 l 985 833 l 1079 833 l 1079 778 l 1000 778 l 1175 124 l 1350 778 l 1226 778 l 1226 833 l 1432 833 l 1508 833 l 1508 778 m 550 56 l 357 778 l 169 778 l 363 56 l 550 56 m 1125 56 l 932 778 l 744 778 l 938 56 l 1125 56 m 968 1117 l 901 1117 l 761 917 l 828 917 l 968 1117 z "},"Ẅ":{"ha":1704,"x_min":14,"x_max":1690,"o":"m 1690 1056 l 1599 1056 l 1315 0 l 983 0 l 851 489 l 721 0 l 389 0 l 106 1056 l 14 1056 l 14 1111 l 422 1111 l 540 1111 l 1017 1111 l 1135 1111 l 1135 1056 l 1032 1056 l 1282 124 l 1532 1056 l 1381 1056 l 1381 1111 l 1614 1111 l 1690 1111 l 1690 1056 m 638 56 l 375 1056 l 174 1056 l 436 56 l 638 56 m 819 611 l 700 1056 l 511 1056 l 438 1056 l 688 124 l 819 611 m 1232 56 l 969 1056 l 768 1056 l 1031 56 l 1232 56 m 663 1222 l 742 1301 l 663 1381 l 583 1301 l 663 1222 m 967 1222 l 1046 1301 l 967 1381 l 888 1301 l 967 1222 z "},"ẅ":{"ha":1522,"x_min":14,"x_max":1508,"o":"m 1508 778 l 1417 778 l 1208 0 l 890 0 l 763 478 l 633 0 l 315 0 l 107 778 l 14 778 l 14 833 l 410 833 l 501 833 l 501 778 l 425 778 l 600 125 l 728 603 l 682 778 l 588 778 l 588 833 l 985 833 l 1079 833 l 1079 778 l 1000 778 l 1175 124 l 1350 778 l 1226 778 l 1226 833 l 1432 833 l 1508 833 l 1508 778 m 550 56 l 357 778 l 169 778 l 363 56 l 550 56 m 1125 56 l 932 778 l 744 778 l 938 56 l 1125 56 m 626 944 l 706 1024 l 626 1103 l 547 1024 l 626 944 m 931 944 l 1010 1024 l 931 1103 l 851 1024 l 931 944 z "},"Ỳ":{"ha":1069,"x_min":-14,"x_max":1056,"o":"m 693 528 l 693 56 l 804 56 l 804 0 l 263 0 l 263 56 l 374 56 l 374 475 l 90 1056 l -14 1056 l -14 1111 l 521 1111 l 521 1056 l 436 1056 l 660 597 l 882 1056 l 760 1056 l 760 1111 l 1056 1111 l 1056 1056 l 950 1056 l 693 528 m 631 56 l 631 517 l 368 1056 l 158 1056 l 436 486 l 436 56 l 631 56 m 647 1194 l 521 1450 l 454 1450 l 581 1194 l 647 1194 z "},"ỳ":{"ha":1035,"x_min":28,"x_max":965,"o":"m 965 704 l 965 -218 l 836 -347 l 233 -347 l 118 -232 l 118 -69 l 438 -69 l 438 -292 l 646 -292 l 646 150 l 579 83 l 268 83 l 139 213 l 139 778 l 28 778 l 28 833 l 322 833 l 451 704 l 451 139 l 549 139 l 646 236 l 646 778 l 549 778 l 549 833 l 836 833 l 965 704 m 299 139 l 389 139 l 389 681 l 292 778 l 201 778 l 201 236 l 299 139 m 903 681 l 806 778 l 708 778 l 708 -292 l 806 -292 l 903 -194 l 903 681 m 264 -292 l 375 -292 l 375 -125 l 181 -125 l 181 -208 l 264 -292 m 528 917 l 401 1172 l 335 1172 l 461 917 l 528 917 z "},"–":{"ha":778,"x_min":69,"x_max":708,"o":"m 708 472 l 708 417 l 69 417 l 69 472 l 708 472 z "},"—":{"ha":1222,"x_min":69,"x_max":1153,"o":"m 1153 472 l 1153 417 l 69 417 l 69 472 l 1153 472 z "},"‘":{"ha":332,"x_min":35,"x_max":290,"o":"m 35 863 l 290 861 l 290 1222 l 93 1224 l 35 863 m 228 1167 l 228 917 l 107 918 l 147 1168 l 228 1167 z "},"’":{"ha":335,"x_min":42,"x_max":300,"o":"m 300 1222 l 42 1222 l 42 861 l 239 861 l 300 1222 m 104 917 l 104 1167 l 225 1167 l 185 917 l 104 917 z "},"‚":{"ha":233,"x_min":0,"x_max":219,"o":"m 219 194 l 136 194 l 0 -158 l 63 -158 l 219 194 z "},"“":{"ha":649,"x_min":35,"x_max":607,"o":"m 35 861 l 293 861 l 293 1222 l 96 1222 l 35 861 m 349 861 l 607 861 l 607 1222 l 410 1222 l 349 861 m 231 1167 l 231 917 l 110 917 l 150 1167 l 231 1167 m 544 1167 l 544 917 l 424 917 l 464 1167 l 544 1167 z "},"”":{"ha":649,"x_min":42,"x_max":614,"o":"m 300 1222 l 42 1222 l 42 861 l 239 861 l 300 1222 m 614 1222 l 356 1222 l 356 861 l 553 861 l 614 1222 m 104 917 l 104 1167 l 225 1167 l 185 917 l 104 917 m 418 917 l 418 1167 l 539 1167 l 499 917 l 418 917 z "},"„":{"ha":649,"x_min":42,"x_max":614,"o":"m 300 167 l 42 167 l 42 -194 l 239 -194 l 300 167 m 614 167 l 356 167 l 356 -194 l 553 -194 l 614 167 m 104 -139 l 104 111 l 225 111 l 185 -139 l 104 -139 m 418 -139 l 418 111 l 539 111 l 499 -139 l 418 -139 z "},"†":{"ha":1075,"x_min":97,"x_max":978,"o":"m 978 653 l 697 653 l 697 -167 l 697 -194 l 378 -194 l 378 -139 l 378 653 l 97 653 l 97 708 l 378 708 l 378 1083 l 378 1111 l 697 1111 l 697 1056 l 697 708 l 978 708 l 978 653 m 440 708 l 635 708 l 635 1056 l 440 1056 l 440 708 m 635 653 l 440 653 l 440 -139 l 635 -139 l 635 653 z "},"‡":{"ha":1075,"x_min":97,"x_max":978,"o":"m 697 653 l 697 264 l 978 264 l 978 208 l 697 208 l 697 -167 l 697 -194 l 378 -194 l 378 -139 l 378 208 l 97 208 l 97 264 l 378 264 l 378 653 l 97 653 l 97 708 l 378 708 l 378 1083 l 378 1111 l 697 1111 l 697 1056 l 697 708 l 978 708 l 978 653 l 697 653 m 440 708 l 635 708 l 635 1056 l 440 1056 l 440 708 m 635 653 l 440 653 l 440 264 l 635 264 l 635 653 m 635 208 l 440 208 l 440 -139 l 635 -139 l 635 208 z "},"•":{"ha":592,"x_min":111,"x_max":481,"o":"m 296 417 q 164 467 217 417 q 111 597 111 518 q 164 727 111 676 q 296 778 217 778 q 428 727 375 778 q 481 597 481 676 q 428 467 481 518 q 296 417 375 417 z "},"…":{"ha":1354,"x_min":111,"x_max":1243,"o":"m 111 0 l 375 0 l 375 250 l 111 250 l 111 0 m 174 194 l 313 194 l 313 56 l 174 56 l 174 194 m 576 0 l 840 0 l 840 250 l 576 250 l 576 0 m 639 194 l 778 194 l 778 56 l 639 56 l 639 194 m 979 0 l 1243 0 l 1243 250 l 979 250 l 979 0 m 1042 194 l 1181 194 l 1181 56 l 1042 56 l 1042 194 z "},"‰":{"ha":2046,"x_min":69,"x_max":1990,"o":"m 1118 1111 l 310 -39 l 256 0 l 1064 1150 l 1118 1111 m 517 639 l 171 639 l 69 740 l 69 1038 l 171 1139 l 517 1139 l 618 1038 l 618 740 l 517 639 m 201 694 l 313 694 l 313 1083 l 201 1083 l 132 1014 l 132 764 l 201 694 m 486 694 l 556 764 l 556 1014 l 486 1083 l 375 1083 l 375 694 l 486 694 m 1229 514 l 1331 413 l 1331 101 l 1229 0 l 883 0 l 782 101 l 782 413 l 883 514 l 1229 514 m 1990 413 l 1990 101 l 1889 0 l 1543 0 l 1442 101 l 1442 413 l 1543 514 l 1889 514 l 1990 413 m 914 56 l 1025 56 l 1025 458 l 914 458 l 844 389 l 844 125 l 914 56 m 1268 389 l 1199 458 l 1088 458 l 1088 56 l 1199 56 l 1268 125 l 1268 389 m 1574 56 l 1685 56 l 1685 458 l 1574 458 l 1504 389 l 1504 125 l 1574 56 m 1928 389 l 1858 458 l 1747 458 l 1747 56 l 1858 56 l 1928 125 l 1928 389 z "},"‹":{"ha":353,"x_min":56,"x_max":283,"o":"m 283 658 l 236 688 l 56 444 l 236 201 l 283 231 l 167 444 l 283 658 z "},"›":{"ha":353,"x_min":69,"x_max":297,"o":"m 69 231 l 117 201 l 297 444 l 117 688 l 69 658 l 186 444 l 69 231 z "},"⁄":{"ha":511,"x_min":-194,"x_max":678,"o":"m -194 0 l 624 1206 l 678 1167 l -140 -39 l -194 0 z "},"€":{"ha":1083,"x_min":56,"x_max":1014,"o":"m 971 167 l 1014 124 l 890 0 l 351 0 l 208 143 l 208 375 l 56 375 l 56 431 l 208 431 l 208 625 l 56 625 l 56 681 l 208 681 l 208 913 l 351 1056 l 890 1056 l 1014 932 l 971 889 l 860 1000 l 528 1000 l 528 681 l 833 681 l 833 625 l 528 625 l 528 431 l 833 431 l 833 375 l 528 375 l 528 56 l 860 56 l 971 167 m 271 681 l 465 681 l 465 1000 l 382 1000 l 271 889 l 271 681 m 271 431 l 465 431 l 465 625 l 271 625 l 271 431 m 382 56 l 465 56 l 465 375 l 271 375 l 271 167 l 382 56 z "},"₺":{"ha":1018,"x_min":49,"x_max":949,"o":"m 949 500 l 949 171 l 778 0 l 250 0 l 250 367 l 83 268 l 49 324 l 250 443 l 250 603 l 83 504 l 49 560 l 250 679 l 250 1031 l 250 1056 l 569 1056 l 569 836 l 778 958 l 813 903 l 569 760 l 569 600 l 778 722 l 813 667 l 569 524 l 569 56 l 747 56 l 886 194 l 886 500 l 949 500 m 313 56 l 507 56 l 507 1000 l 313 1000 l 313 56 z "},"₽":{"ha":1129,"x_min":56,"x_max":990,"o":"m 493 472 l 493 306 l 875 306 l 875 250 l 493 250 l 493 56 l 604 56 l 604 0 l 56 0 l 56 56 l 181 56 l 181 250 l 56 250 l 56 306 l 181 306 l 181 472 l 56 472 l 56 528 l 181 528 l 181 1000 l 56 1000 l 56 1056 l 861 1056 l 990 926 l 990 615 l 847 472 l 493 472 m 431 56 l 431 1000 l 243 1000 l 243 56 l 431 56 m 493 528 l 678 528 l 678 1000 l 493 1000 l 493 528 m 831 1000 l 740 1000 l 740 528 l 817 528 l 928 639 l 928 903 l 831 1000 z "},"™":{"ha":1276,"x_min":83,"x_max":1186,"o":"m 511 1000 l 483 1000 l 483 1086 l 365 1086 l 365 692 l 414 692 l 414 667 l 181 667 l 181 692 l 229 692 l 229 1086 l 111 1086 l 111 1000 l 83 1000 l 83 1111 l 111 1111 l 511 1111 l 511 1000 m 1138 1086 l 1138 692 l 1186 692 l 1186 667 l 960 667 l 960 692 l 1001 692 l 1001 1082 l 900 667 l 764 667 l 657 1083 l 657 692 l 699 692 l 699 667 l 581 667 l 581 692 l 629 692 l 629 1086 l 581 1086 l 581 1111 l 657 1111 l 786 1111 l 886 722 l 981 1111 l 1008 1111 l 1186 1111 l 1186 1086 l 1138 1086 m 338 1086 l 257 1086 l 257 692 l 338 692 l 338 1086 m 865 692 l 764 1086 l 683 1086 l 785 692 l 865 692 m 1110 1086 l 1029 1086 l 1029 692 l 1110 692 l 1110 1086 z "},"∂":{"ha":1015,"x_min":69,"x_max":932,"o":"m 932 1010 l 932 157 l 775 0 l 226 0 l 69 157 l 69 565 l 226 722 l 538 722 l 613 647 l 613 1111 l 307 1111 l 307 1167 l 775 1167 l 932 1010 m 869 986 l 744 1111 l 675 1111 l 675 56 l 744 56 l 869 181 l 869 986 m 257 56 l 333 56 l 333 667 l 257 667 l 132 542 l 132 181 l 257 56 m 507 667 l 396 667 l 396 56 l 613 56 l 613 561 l 507 667 z "},"∏":{"ha":1319,"x_min":83,"x_max":1208,"o":"m 1111 1000 l 1111 -153 l 1208 -153 l 1208 -208 l 708 -208 l 708 -153 l 792 -153 l 792 1000 l 500 1000 l 500 -153 l 583 -153 l 583 -208 l 83 -208 l 83 -153 l 181 -153 l 181 1000 l 83 1000 l 83 1056 l 1208 1056 l 1208 1000 l 1111 1000 m 438 1000 l 243 1000 l 243 -153 l 438 -153 l 438 1000 m 1049 1000 l 854 1000 l 854 -153 l 1049 -153 l 1049 1000 z "},"∑":{"ha":1004,"x_min":28,"x_max":879,"o":"m 879 111 l 879 -208 l 817 -208 l 28 -208 l 28 -154 l 360 289 l 28 1000 l 28 1056 l 833 1056 l 865 1056 l 865 736 l 803 736 l 803 1000 l 365 1000 l 596 506 l 103 -153 l 817 -153 l 817 111 l 879 111 m 401 343 l 526 511 l 299 1000 l 94 1000 l 401 343 z "},"−":{"ha":847,"x_min":69,"x_max":778,"o":"m 778 597 l 778 542 l 69 542 l 69 597 l 778 597 z "},"√":{"ha":1089,"x_min":56,"x_max":1157,"o":"m 1157 1271 l 657 -181 l 339 -181 l 147 486 l 56 486 l 56 542 l 290 542 l 450 542 l 626 -75 l 1097 1292 l 1157 1271 m 575 -125 l 400 486 l 214 486 l 389 -125 l 575 -125 z "},"∞":{"ha":1253,"x_min":69,"x_max":1183,"o":"m 1183 694 l 1183 467 l 1054 338 l 826 338 l 626 538 l 426 338 l 199 338 l 69 467 l 69 694 l 199 824 l 426 824 l 626 624 l 826 824 l 1054 824 l 1183 694 m 583 581 l 396 768 l 229 768 l 132 671 l 132 490 l 229 393 l 396 393 l 583 581 m 1121 671 l 1024 768 l 857 768 l 669 581 l 857 393 l 1024 393 l 1121 490 l 1121 671 z "},"∫":{"ha":764,"x_min":-21,"x_max":785,"o":"m 785 1107 l 742 1064 l 639 1167 l 542 1167 l 542 -218 l 413 -347 l 94 -347 l -21 -232 l 22 -189 l 125 -292 l 222 -292 l 222 1093 l 351 1222 l 669 1222 l 785 1107 m 479 1167 l 382 1167 l 285 1069 l 285 -292 l 382 -292 l 479 -194 l 479 1167 z "},"≈":{"ha":1007,"x_min":83,"x_max":963,"o":"m 239 792 l 83 636 l 126 593 l 269 736 l 436 736 l 579 593 l 807 593 l 963 749 l 919 792 l 776 649 l 610 649 l 467 792 l 239 792 m 239 528 l 83 372 l 126 329 l 269 472 l 436 472 l 579 329 l 807 329 l 963 485 l 919 528 l 776 385 l 610 385 l 467 528 l 239 528 z "},"≠":{"ha":847,"x_min":69,"x_max":778,"o":"m 524 681 l 396 458 l 778 458 l 778 403 l 364 403 l 263 228 l 215 254 l 301 403 l 69 403 l 69 458 l 333 458 l 461 681 l 69 681 l 69 736 l 493 736 l 585 896 l 632 869 l 556 736 l 778 736 l 778 681 l 524 681 z "},"≤":{"ha":835,"x_min":56,"x_max":765,"o":"m 194 650 l 765 507 l 750 449 l 69 618 l 69 681 l 750 850 l 765 792 l 194 650 m 56 333 l 764 333 l 764 278 l 56 278 l 56 333 z "},"≥":{"ha":835,"x_min":69,"x_max":779,"o":"m 69 507 l 640 650 l 69 792 l 85 850 l 765 681 l 765 618 l 85 449 l 69 507 m 779 333 l 779 278 l 71 278 l 71 333 l 779 333 z "},"◊":{"ha":807,"x_min":56,"x_max":751,"o":"m 368 1111 l 439 1111 l 751 556 l 439 0 l 368 0 l 56 556 l 368 1111 m 404 63 l 681 556 l 404 1049 l 126 556 l 404 63 z "}}}
